<svg id="ecbYF0pMLdB1" xmlns="http://www.w3.org/2000/svg" xmlns:xlink="http://www.w3.org/1999/xlink" viewBox="0 0 425.2 425.2" shape-rendering="geometricPrecision" text-rendering="geometricPrecision"><style><![CDATA[#ecbYF0pMLdB73 {animation: ecbYF0pMLdB73_c_o 2100ms linear infinite normal forwards}@keyframes ecbYF0pMLdB73_c_o { 0% {opacity: 0} 9.52381% {opacity: 1} 100% {opacity: 1}} #ecbYF0pMLdB74 {animation: ecbYF0pMLdB74_c_o 2100ms linear infinite normal forwards}@keyframes ecbYF0pMLdB74_c_o { 0% {opacity: 0} 9.52381% {opacity: 0} 19.047619% {opacity: 1} 100% {opacity: 1}} #ecbYF0pMLdB75 {animation: ecbYF0pMLdB75_c_o 2100ms linear infinite normal forwards}@keyframes ecbYF0pMLdB75_c_o { 0% {opacity: 0} 19.047619% {opacity: 0} 28.571429% {opacity: 1} 100% {opacity: 1}} #ecbYF0pMLdB76 {animation: ecbYF0pMLdB76_c_o 2100ms linear infinite normal forwards}@keyframes ecbYF0pMLdB76_c_o { 0% {opacity: 0} 28.571429% {opacity: 0} 38.095238% {opacity: 1} 100% {opacity: 1}} #ecbYF0pMLdB77 {animation: ecbYF0pMLdB77_c_o 2100ms linear infinite normal forwards}@keyframes ecbYF0pMLdB77_c_o { 0% {opacity: 0} 38.095238% {opacity: 0} 47.619048% {opacity: 1} 100% {opacity: 1}} #ecbYF0pMLdB78 {animation: ecbYF0pMLdB78_c_o 2100ms linear infinite normal forwards}@keyframes ecbYF0pMLdB78_c_o { 0% {opacity: 0} 47.619048% {opacity: 0} 57.142857% {opacity: 1} 100% {opacity: 1}} #ecbYF0pMLdB79 {animation: ecbYF0pMLdB79_c_o 2100ms linear infinite normal forwards}@keyframes ecbYF0pMLdB79_c_o { 0% {opacity: 0} 57.142857% {opacity: 0} 66.666667% {opacity: 1} 100% {opacity: 1}} #ecbYF0pMLdB80 {animation: ecbYF0pMLdB80_c_o 2100ms linear infinite normal forwards}@keyframes ecbYF0pMLdB80_c_o { 0% {opacity: 0} 66.666667% {opacity: 0} 76.190476% {opacity: 1} 100% {opacity: 1}} #ecbYF0pMLdB81 {animation: ecbYF0pMLdB81_c_o 2100ms linear infinite normal forwards}@keyframes ecbYF0pMLdB81_c_o { 0% {opacity: 0} 76.190476% {opacity: 0} 85.714286% {opacity: 1} 100% {opacity: 1}} #ecbYF0pMLdB82 {animation: ecbYF0pMLdB82_c_o 2100ms linear infinite normal forwards}@keyframes ecbYF0pMLdB82_c_o { 0% {opacity: 0} 85.714286% {opacity: 0} 95.238095% {opacity: 1} 100% {opacity: 1}} #ecbYF0pMLdB83_tr {animation: ecbYF0pMLdB83_tr__tr 2100ms linear infinite normal forwards}@keyframes ecbYF0pMLdB83_tr__tr { 0% {transform: translate(211.700012px,149.249992px) rotate(0deg)} 100% {transform: translate(211.700012px,149.249992px) rotate(180deg)}}]]></style><defs><rect id="ecbYF0pMLdB2" width="121.4" height="66.8" rx="0" ry="0"/><rect id="ecbYF0pMLdB3" width="121.4" height="66.8" rx="0" ry="0"/><linearGradient id="ecbYF0pMLdB10-fill" x1="-0.0208" y1="4.6437" x2="135.2957" y2="4.6437" spreadMethod="pad" gradientUnits="userSpaceOnUse" gradientTransform="translate(0 0)"><stop id="ecbYF0pMLdB10-fill-0" offset="0%" stop-color="#326933"/><stop id="ecbYF0pMLdB10-fill-1" offset="42.97%" stop-color="#235a2d"/><stop id="ecbYF0pMLdB10-fill-2" offset="100%" stop-color="#034521"/></linearGradient><linearGradient id="ecbYF0pMLdB11-fill" x1="-0.0208" y1="4.625" x2="135.2957" y2="4.625" spreadMethod="pad" gradientUnits="userSpaceOnUse" gradientTransform="translate(0 0)"><stop id="ecbYF0pMLdB11-fill-0" offset="0%" stop-color="#326933"/><stop id="ecbYF0pMLdB11-fill-1" offset="42.97%" stop-color="#235a2d"/><stop id="ecbYF0pMLdB11-fill-2" offset="100%" stop-color="#034521"/></linearGradient><linearGradient id="ecbYF0pMLdB13-fill" x1="244.4899" y1="606.637" x2="252.85" y2="763.0905" spreadMethod="pad" gradientUnits="userSpaceOnUse" gradientTransform="translate(0 0)"><stop id="ecbYF0pMLdB13-fill-0" offset="0%" stop-color="#5bba47"/><stop id="ecbYF0pMLdB13-fill-1" offset="32.78%" stop-color="#34ae49"/><stop id="ecbYF0pMLdB13-fill-2" offset="100%" stop-color="#00984d"/></linearGradient><linearGradient id="ecbYF0pMLdB14-fill" x1="225.7482" y1="271.0437" x2="228.7733" y2="271.0437" spreadMethod="pad" gradientUnits="userSpaceOnUse" gradientTransform="translate(0 0)"><stop id="ecbYF0pMLdB14-fill-0" offset="0%" stop-color="#326933"/><stop id="ecbYF0pMLdB14-fill-1" offset="42.97%" stop-color="#235a2d"/><stop id="ecbYF0pMLdB14-fill-2" offset="100%" stop-color="#034521"/></linearGradient><linearGradient id="ecbYF0pMLdB15-fill" x1="225.7482" y1="295.0251" x2="228.7733" y2="295.0251" spreadMethod="pad" gradientUnits="userSpaceOnUse" gradientTransform="translate(0 0)"><stop id="ecbYF0pMLdB15-fill-0" offset="0%" stop-color="#326933"/><stop id="ecbYF0pMLdB15-fill-1" offset="42.97%" stop-color="#235a2d"/><stop id="ecbYF0pMLdB15-fill-2" offset="100%" stop-color="#034521"/></linearGradient><linearGradient id="ecbYF0pMLdB17-fill" x1="287.8336" y1="604.321" x2="296.1937" y2="760.7745" spreadMethod="pad" gradientUnits="userSpaceOnUse" gradientTransform="translate(0 0)"><stop id="ecbYF0pMLdB17-fill-0" offset="0%" stop-color="#5bba47"/><stop id="ecbYF0pMLdB17-fill-1" offset="32.78%" stop-color="#34ae49"/><stop id="ecbYF0pMLdB17-fill-2" offset="100%" stop-color="#00984d"/></linearGradient><linearGradient id="ecbYF0pMLdB18-fill" x1="269.2157" y1="271.0437" x2="272.2409" y2="271.0437" spreadMethod="pad" gradientUnits="userSpaceOnUse" gradientTransform="translate(0 0)"><stop id="ecbYF0pMLdB18-fill-0" offset="0%" stop-color="#326933"/><stop id="ecbYF0pMLdB18-fill-1" offset="42.97%" stop-color="#235a2d"/><stop id="ecbYF0pMLdB18-fill-2" offset="100%" stop-color="#034521"/></linearGradient><linearGradient id="ecbYF0pMLdB19-fill" x1="269.2157" y1="295.0251" x2="272.2409" y2="295.0251" spreadMethod="pad" gradientUnits="userSpaceOnUse" gradientTransform="translate(0 0)"><stop id="ecbYF0pMLdB19-fill-0" offset="0%" stop-color="#326933"/><stop id="ecbYF0pMLdB19-fill-1" offset="42.97%" stop-color="#235a2d"/><stop id="ecbYF0pMLdB19-fill-2" offset="100%" stop-color="#034521"/></linearGradient><linearGradient id="ecbYF0pMLdB21-fill" x1="331.1773" y1="602.0051" x2="339.5374" y2="758.4586" spreadMethod="pad" gradientUnits="userSpaceOnUse" gradientTransform="translate(0 0)"><stop id="ecbYF0pMLdB21-fill-0" offset="0%" stop-color="#5bba47"/><stop id="ecbYF0pMLdB21-fill-1" offset="32.78%" stop-color="#34ae49"/><stop id="ecbYF0pMLdB21-fill-2" offset="100%" stop-color="#00984d"/></linearGradient><linearGradient id="ecbYF0pMLdB22-fill" x1="312.6833" y1="271.0437" x2="315.7085" y2="271.0437" spreadMethod="pad" gradientUnits="userSpaceOnUse" gradientTransform="translate(0 0)"><stop id="ecbYF0pMLdB22-fill-0" offset="0%" stop-color="#326933"/><stop id="ecbYF0pMLdB22-fill-1" offset="42.97%" stop-color="#235a2d"/><stop id="ecbYF0pMLdB22-fill-2" offset="100%" stop-color="#034521"/></linearGradient><linearGradient id="ecbYF0pMLdB23-fill" x1="312.6833" y1="295.0251" x2="315.7085" y2="295.0251" spreadMethod="pad" gradientUnits="userSpaceOnUse" gradientTransform="translate(0 0)"><stop id="ecbYF0pMLdB23-fill-0" offset="0%" stop-color="#326933"/><stop id="ecbYF0pMLdB23-fill-1" offset="42.97%" stop-color="#235a2d"/><stop id="ecbYF0pMLdB23-fill-2" offset="100%" stop-color="#034521"/></linearGradient><linearGradient id="ecbYF0pMLdB25-fill" x1="0.0478" y1="4.6437" x2="135.3643" y2="4.6437" spreadMethod="pad" gradientUnits="userSpaceOnUse" gradientTransform="translate(0 0)"><stop id="ecbYF0pMLdB25-fill-0" offset="0%" stop-color="#326933"/><stop id="ecbYF0pMLdB25-fill-1" offset="42.97%" stop-color="#235a2d"/><stop id="ecbYF0pMLdB25-fill-2" offset="100%" stop-color="#034521"/></linearGradient><linearGradient id="ecbYF0pMLdB26-fill" x1="0.0478" y1="4.625" x2="135.3643" y2="4.625" spreadMethod="pad" gradientUnits="userSpaceOnUse" gradientTransform="translate(0 0)"><stop id="ecbYF0pMLdB26-fill-0" offset="0%" stop-color="#326933"/><stop id="ecbYF0pMLdB26-fill-1" offset="42.97%" stop-color="#235a2d"/><stop id="ecbYF0pMLdB26-fill-2" offset="100%" stop-color="#034521"/></linearGradient><linearGradient id="ecbYF0pMLdB28-fill" x1="70.687" y1="615.9243" x2="79.0471" y2="772.3777" spreadMethod="pad" gradientUnits="userSpaceOnUse" gradientTransform="translate(0 0)"><stop id="ecbYF0pMLdB28-fill-0" offset="0%" stop-color="#5bba47"/><stop id="ecbYF0pMLdB28-fill-1" offset="32.78%" stop-color="#34ae49"/><stop id="ecbYF0pMLdB28-fill-2" offset="100%" stop-color="#00984d"/></linearGradient><linearGradient id="ecbYF0pMLdB30-fill" x1="114.0308" y1="613.6083" x2="122.3909" y2="770.0618" spreadMethod="pad" gradientUnits="userSpaceOnUse" gradientTransform="translate(0 0)"><stop id="ecbYF0pMLdB30-fill-0" offset="0%" stop-color="#5bba47"/><stop id="ecbYF0pMLdB30-fill-1" offset="32.78%" stop-color="#34ae49"/><stop id="ecbYF0pMLdB30-fill-2" offset="100%" stop-color="#00984d"/></linearGradient><linearGradient id="ecbYF0pMLdB32-fill" x1="157.3746" y1="611.2924" x2="165.7347" y2="767.7458" spreadMethod="pad" gradientUnits="userSpaceOnUse" gradientTransform="translate(0 0)"><stop id="ecbYF0pMLdB32-fill-0" offset="0%" stop-color="#5bba47"/><stop id="ecbYF0pMLdB32-fill-1" offset="32.78%" stop-color="#34ae49"/><stop id="ecbYF0pMLdB32-fill-2" offset="100%" stop-color="#00984d"/></linearGradient><linearGradient id="ecbYF0pMLdB34-fill" x1="200.7184" y1="608.9758" x2="209.0785" y2="765.4294" spreadMethod="pad" gradientUnits="userSpaceOnUse" gradientTransform="translate(0 0)"><stop id="ecbYF0pMLdB34-fill-0" offset="0%" stop-color="#5bba47"/><stop id="ecbYF0pMLdB34-fill-1" offset="32.78%" stop-color="#34ae49"/><stop id="ecbYF0pMLdB34-fill-2" offset="100%" stop-color="#00984d"/></linearGradient><linearGradient id="ecbYF0pMLdB35-fill" x1="181.8519" y1="271.0437" x2="184.877" y2="271.0437" spreadMethod="pad" gradientUnits="userSpaceOnUse" gradientTransform="translate(0 0)"><stop id="ecbYF0pMLdB35-fill-0" offset="0%" stop-color="#326933"/><stop id="ecbYF0pMLdB35-fill-1" offset="42.97%" stop-color="#235a2d"/><stop id="ecbYF0pMLdB35-fill-2" offset="100%" stop-color="#034521"/></linearGradient><linearGradient id="ecbYF0pMLdB36-fill" x1="181.8519" y1="295.0251" x2="184.877" y2="295.0251" spreadMethod="pad" gradientUnits="userSpaceOnUse" gradientTransform="translate(0 0)"><stop id="ecbYF0pMLdB36-fill-0" offset="0%" stop-color="#326933"/><stop id="ecbYF0pMLdB36-fill-1" offset="42.97%" stop-color="#235a2d"/><stop id="ecbYF0pMLdB36-fill-2" offset="100%" stop-color="#034521"/></linearGradient><linearGradient id="ecbYF0pMLdB43-fill" x1="111.0011" y1="271.0437" x2="246.3174" y2="271.0437" spreadMethod="pad" gradientUnits="userSpaceOnUse" gradientTransform="translate(0 0)"><stop id="ecbYF0pMLdB43-fill-0" offset="0%" stop-color="#326933"/><stop id="ecbYF0pMLdB43-fill-1" offset="42.97%" stop-color="#235a2d"/><stop id="ecbYF0pMLdB43-fill-2" offset="100%" stop-color="#034521"/></linearGradient><linearGradient id="ecbYF0pMLdB44-fill" x1="111.0011" y1="295.025" x2="246.3174" y2="295.025" spreadMethod="pad" gradientUnits="userSpaceOnUse" gradientTransform="translate(0 0)"><stop id="ecbYF0pMLdB44-fill-0" offset="0%" stop-color="#326933"/><stop id="ecbYF0pMLdB44-fill-1" offset="42.97%" stop-color="#235a2d"/><stop id="ecbYF0pMLdB44-fill-2" offset="100%" stop-color="#034521"/></linearGradient><linearGradient id="ecbYF0pMLdB46-fill" x1="215.2486" y1="608.1998" x2="223.6087" y2="764.6533" spreadMethod="pad" gradientUnits="userSpaceOnUse" gradientTransform="translate(0 0)"><stop id="ecbYF0pMLdB46-fill-0" offset="0%" stop-color="#5bba47"/><stop id="ecbYF0pMLdB46-fill-1" offset="32.78%" stop-color="#34ae49"/><stop id="ecbYF0pMLdB46-fill-2" offset="100%" stop-color="#00984d"/></linearGradient><linearGradient id="ecbYF0pMLdB47-fill" x1="196.4235" y1="271.0437" x2="199.4487" y2="271.0437" spreadMethod="pad" gradientUnits="userSpaceOnUse" gradientTransform="translate(0 0)"><stop id="ecbYF0pMLdB47-fill-0" offset="0%" stop-color="#326933"/><stop id="ecbYF0pMLdB47-fill-1" offset="42.97%" stop-color="#235a2d"/><stop id="ecbYF0pMLdB47-fill-2" offset="100%" stop-color="#034521"/></linearGradient><linearGradient id="ecbYF0pMLdB48-fill" x1="196.4235" y1="295.0251" x2="199.4487" y2="295.0251" spreadMethod="pad" gradientUnits="userSpaceOnUse" gradientTransform="translate(0 0)"><stop id="ecbYF0pMLdB48-fill-0" offset="0%" stop-color="#326933"/><stop id="ecbYF0pMLdB48-fill-1" offset="42.97%" stop-color="#235a2d"/><stop id="ecbYF0pMLdB48-fill-2" offset="100%" stop-color="#034521"/></linearGradient><linearGradient id="ecbYF0pMLdB50-fill" x1="171.9048" y1="610.5156" x2="180.2649" y2="766.9691" spreadMethod="pad" gradientUnits="userSpaceOnUse" gradientTransform="translate(0 0)"><stop id="ecbYF0pMLdB50-fill-0" offset="0%" stop-color="#5bba47"/><stop id="ecbYF0pMLdB50-fill-1" offset="32.78%" stop-color="#34ae49"/><stop id="ecbYF0pMLdB50-fill-2" offset="100%" stop-color="#00984d"/></linearGradient><linearGradient id="ecbYF0pMLdB51-fill" x1="152.956" y1="271.0437" x2="155.9811" y2="271.0437" spreadMethod="pad" gradientUnits="userSpaceOnUse" gradientTransform="translate(0 0)"><stop id="ecbYF0pMLdB51-fill-0" offset="0%" stop-color="#326933"/><stop id="ecbYF0pMLdB51-fill-1" offset="42.97%" stop-color="#235a2d"/><stop id="ecbYF0pMLdB51-fill-2" offset="100%" stop-color="#034521"/></linearGradient><linearGradient id="ecbYF0pMLdB52-fill" x1="152.956" y1="295.0251" x2="155.9811" y2="295.0251" spreadMethod="pad" gradientUnits="userSpaceOnUse" gradientTransform="translate(0 0)"><stop id="ecbYF0pMLdB52-fill-0" offset="0%" stop-color="#326933"/><stop id="ecbYF0pMLdB52-fill-1" offset="42.97%" stop-color="#235a2d"/><stop id="ecbYF0pMLdB52-fill-2" offset="100%" stop-color="#034521"/></linearGradient><linearGradient id="ecbYF0pMLdB54-fill" x1="128.561" y1="612.8315" x2="136.9211" y2="769.285" spreadMethod="pad" gradientUnits="userSpaceOnUse" gradientTransform="translate(0 0)"><stop id="ecbYF0pMLdB54-fill-0" offset="0%" stop-color="#5bba47"/><stop id="ecbYF0pMLdB54-fill-1" offset="32.78%" stop-color="#34ae49"/><stop id="ecbYF0pMLdB54-fill-2" offset="100%" stop-color="#00984d"/></linearGradient><linearGradient id="ecbYF0pMLdB55-fill" x1="109.4884" y1="271.0437" x2="112.5136" y2="271.0437" spreadMethod="pad" gradientUnits="userSpaceOnUse" gradientTransform="translate(0 0)"><stop id="ecbYF0pMLdB55-fill-0" offset="0%" stop-color="#326933"/><stop id="ecbYF0pMLdB55-fill-1" offset="42.97%" stop-color="#235a2d"/><stop id="ecbYF0pMLdB55-fill-2" offset="100%" stop-color="#034521"/></linearGradient><linearGradient id="ecbYF0pMLdB56-fill" x1="109.4884" y1="295.0251" x2="112.5136" y2="295.0251" spreadMethod="pad" gradientUnits="userSpaceOnUse" gradientTransform="translate(0 0)"><stop id="ecbYF0pMLdB56-fill-0" offset="0%" stop-color="#326933"/><stop id="ecbYF0pMLdB56-fill-1" offset="42.97%" stop-color="#235a2d"/><stop id="ecbYF0pMLdB56-fill-2" offset="100%" stop-color="#034521"/></linearGradient><linearGradient id="ecbYF0pMLdB58-fill" x1="241.8323" y1="271.0437" x2="377.149" y2="271.0437" spreadMethod="pad" gradientUnits="userSpaceOnUse" gradientTransform="translate(0 0)"><stop id="ecbYF0pMLdB58-fill-0" offset="0%" stop-color="#326933"/><stop id="ecbYF0pMLdB58-fill-1" offset="42.97%" stop-color="#235a2d"/><stop id="ecbYF0pMLdB58-fill-2" offset="100%" stop-color="#034521"/></linearGradient><linearGradient id="ecbYF0pMLdB59-fill" x1="241.8323" y1="295.025" x2="377.149" y2="295.025" spreadMethod="pad" gradientUnits="userSpaceOnUse" gradientTransform="translate(0 0)"><stop id="ecbYF0pMLdB59-fill-0" offset="0%" stop-color="#326933"/><stop id="ecbYF0pMLdB59-fill-1" offset="42.97%" stop-color="#235a2d"/><stop id="ecbYF0pMLdB59-fill-2" offset="100%" stop-color="#034521"/></linearGradient><linearGradient id="ecbYF0pMLdB61-fill" x1="389.0514" y1="598.9125" x2="397.4116" y2="755.366" spreadMethod="pad" gradientUnits="userSpaceOnUse" gradientTransform="translate(0 0)"><stop id="ecbYF0pMLdB61-fill-0" offset="0%" stop-color="#5bba47"/><stop id="ecbYF0pMLdB61-fill-1" offset="32.78%" stop-color="#34ae49"/><stop id="ecbYF0pMLdB61-fill-2" offset="100%" stop-color="#00984d"/></linearGradient><linearGradient id="ecbYF0pMLdB63-fill" x1="345.7076" y1="601.2284" x2="354.0677" y2="757.6819" spreadMethod="pad" gradientUnits="userSpaceOnUse" gradientTransform="translate(0 0)"><stop id="ecbYF0pMLdB63-fill-0" offset="0%" stop-color="#5bba47"/><stop id="ecbYF0pMLdB63-fill-1" offset="32.78%" stop-color="#34ae49"/><stop id="ecbYF0pMLdB63-fill-2" offset="100%" stop-color="#00984d"/></linearGradient><linearGradient id="ecbYF0pMLdB65-fill" x1="302.3639" y1="603.545" x2="310.724" y2="759.9985" spreadMethod="pad" gradientUnits="userSpaceOnUse" gradientTransform="translate(0 0)"><stop id="ecbYF0pMLdB65-fill-0" offset="0%" stop-color="#5bba47"/><stop id="ecbYF0pMLdB65-fill-1" offset="32.78%" stop-color="#34ae49"/><stop id="ecbYF0pMLdB65-fill-2" offset="100%" stop-color="#00984d"/></linearGradient><linearGradient id="ecbYF0pMLdB67-fill" x1="259.0201" y1="605.8609" x2="267.3802" y2="762.3144" spreadMethod="pad" gradientUnits="userSpaceOnUse" gradientTransform="translate(0 0)"><stop id="ecbYF0pMLdB67-fill-0" offset="0%" stop-color="#5bba47"/><stop id="ecbYF0pMLdB67-fill-1" offset="32.78%" stop-color="#34ae49"/><stop id="ecbYF0pMLdB67-fill-2" offset="100%" stop-color="#00984d"/></linearGradient><linearGradient id="ecbYF0pMLdB68-fill" x1="240.3198" y1="271.0437" x2="243.345" y2="271.0437" spreadMethod="pad" gradientUnits="userSpaceOnUse" gradientTransform="translate(0 0)"><stop id="ecbYF0pMLdB68-fill-0" offset="0%" stop-color="#326933"/><stop id="ecbYF0pMLdB68-fill-1" offset="42.97%" stop-color="#235a2d"/><stop id="ecbYF0pMLdB68-fill-2" offset="100%" stop-color="#034521"/></linearGradient><linearGradient id="ecbYF0pMLdB69-fill" x1="240.3198" y1="295.0251" x2="243.345" y2="295.0251" spreadMethod="pad" gradientUnits="userSpaceOnUse" gradientTransform="translate(0 0)"><stop id="ecbYF0pMLdB69-fill-0" offset="0%" stop-color="#326933"/><stop id="ecbYF0pMLdB69-fill-1" offset="42.97%" stop-color="#235a2d"/><stop id="ecbYF0pMLdB69-fill-2" offset="100%" stop-color="#034521"/></linearGradient><linearGradient id="ecbYF0pMLdB72-fill" x1="205.024" y1="116.1706" x2="215.7727" y2="306.0644" spreadMethod="pad" gradientUnits="userSpaceOnUse" gradientTransform="translate(0 0)"><stop id="ecbYF0pMLdB72-fill-0" offset="0%" stop-color="#5bba47"/><stop id="ecbYF0pMLdB72-fill-1" offset="32.78%" stop-color="#34ae49"/><stop id="ecbYF0pMLdB72-fill-2" offset="100%" stop-color="#00984d"/></linearGradient><linearGradient id="ecbYF0pMLdB83-fill" x1="100.5541" y1="149.1668" x2="322.9241" y2="149.1668" spreadMethod="pad" gradientUnits="userSpaceOnUse" gradientTransform="translate(0 0)"><stop id="ecbYF0pMLdB83-fill-0" offset="0%" stop-color="#326933"/><stop id="ecbYF0pMLdB83-fill-1" offset="42.97%" stop-color="#235a2d"/><stop id="ecbYF0pMLdB83-fill-2" offset="100%" stop-color="#034521"/></linearGradient></defs><g><g><g><g clip-path="url(#ecbYF0pMLdB37)"><g><g><rect width="135.3" height="9.3" rx="0" ry="0" transform="translate(178.9 266.4)" fill="url(#ecbYF0pMLdB10-fill)"/><rect width="135.3" height="9.3" rx="0" ry="0" transform="translate(178.9 290.4)" fill="url(#ecbYF0pMLdB11-fill)"/><g><polygon points="232.2,310 222.3,310 222.3,258.4 227.3,251.1 232.2,258.4" fill="url(#ecbYF0pMLdB13-fill)"/><path d="M228.8,271c0,.8-.7,1.5-1.5,1.5s-1.5-.7-1.5-1.5.7-1.5,1.5-1.5s1.5.7,1.5,1.5Z" fill="url(#ecbYF0pMLdB14-fill)"/><path d="M228.8,295c0,.8-.7,1.5-1.5,1.5s-1.5-.7-1.5-1.5.7-1.5,1.5-1.5s1.5.7,1.5,1.5Z" fill="url(#ecbYF0pMLdB15-fill)"/></g><g><polygon points="275.6,310 265.8,310 265.8,258.4 270.7,251.1 275.6,258.4" fill="url(#ecbYF0pMLdB17-fill)"/><path d="M272.2,271c0,.8-.7,1.5-1.5,1.5s-1.5-.7-1.5-1.5.7-1.5,1.5-1.5c.9,0,1.5.7,1.5,1.5Z" fill="url(#ecbYF0pMLdB18-fill)"/><path d="M272.2,295c0,.8-.7,1.5-1.5,1.5s-1.5-.7-1.5-1.5.7-1.5,1.5-1.5c.9,0,1.5.7,1.5,1.5Z" fill="url(#ecbYF0pMLdB19-fill)"/></g><g><polygon points="319.1,310 309.3,310 309.3,258.4 314.2,251.1 319.1,258.4" fill="url(#ecbYF0pMLdB21-fill)"/><path d="M315.7,271c0,.8-.7,1.5-1.5,1.5s-1.5-.7-1.5-1.5.7-1.5,1.5-1.5s1.5.7,1.5,1.5Z" fill="url(#ecbYF0pMLdB22-fill)"/><path d="M315.7,295c0,.8-.7,1.5-1.5,1.5s-1.5-.7-1.5-1.5.7-1.5,1.5-1.5s1.5.7,1.5,1.5Z" fill="url(#ecbYF0pMLdB23-fill)"/></g></g><g><rect width="135.3" height="9.3" rx="0" ry="0" transform="translate(48 266.4)" fill="url(#ecbYF0pMLdB25-fill)"/><rect width="135.3" height="9.3" rx="0" ry="0" transform="translate(48 290.4)" fill="url(#ecbYF0pMLdB26-fill)"/><g><polygon points="57.9,310 48,310 48,258.4 53,251.1 57.9,258.4" fill="url(#ecbYF0pMLdB28-fill)"/></g><g><polygon points="101.3,310 91.5,310 91.5,258.4 96.4,251.1 101.3,258.4" fill="url(#ecbYF0pMLdB30-fill)"/></g><g><polygon points="144.8,310 135,310 135,258.4 139.9,251.1 144.8,258.4" fill="url(#ecbYF0pMLdB32-fill)"/></g><g><polygon points="188.3,310 178.5,310 178.5,258.4 183.4,251.1 188.3,258.4" fill="url(#ecbYF0pMLdB34-fill)"/><path d="M184.9,271c0,.8-.7,1.5-1.5,1.5s-1.5-.7-1.5-1.5.7-1.5,1.5-1.5s1.5.7,1.5,1.5Z" fill="url(#ecbYF0pMLdB35-fill)"/><path d="M184.9,295c0,.8-.7,1.5-1.5,1.5s-1.5-.7-1.5-1.5.7-1.5,1.5-1.5s1.5.7,1.5,1.5Z" fill="url(#ecbYF0pMLdB36-fill)"/></g></g></g><clipPath id="ecbYF0pMLdB37"><use width="121.400002" height="66.800003" xlink:href="#ecbYF0pMLdB2" transform="translate(35.3 247.3)"/></clipPath></g></g><g><g clip-path="url(#ecbYF0pMLdB70)"><g><g><polygon points="111,275.7 246.3,275.7 246.3,266.4 111,266.4" fill="url(#ecbYF0pMLdB43-fill)"/><polygon points="111,299.7 246.3,299.7 246.3,290.4 111,290.4" fill="url(#ecbYF0pMLdB44-fill)"/><g><polygon points="193,310 202.8,310 202.8,258.4 197.9,251.1 193,258.4" fill="url(#ecbYF0pMLdB46-fill)"/><path d="M196.4,271c0,.8.7,1.5,1.5,1.5s1.5-.7,1.5-1.5-.7-1.5-1.5-1.5-1.5.7-1.5,1.5Z" fill="url(#ecbYF0pMLdB47-fill)"/><path d="M196.4,295c0,.8.7,1.5,1.5,1.5s1.5-.7,1.5-1.5-.7-1.5-1.5-1.5-1.5.7-1.5,1.5Z" fill="url(#ecbYF0pMLdB48-fill)"/></g><g><polygon points="149.6,310 159.4,310 159.4,258.4 154.5,251.1 149.6,258.4" fill="url(#ecbYF0pMLdB50-fill)"/><path d="M153,271c0,.8.7,1.5,1.5,1.5s1.5-.7,1.5-1.5-.7-1.5-1.5-1.5c-.9,0-1.5.7-1.5,1.5Z" fill="url(#ecbYF0pMLdB51-fill)"/><path d="M153,295c0,.8.7,1.5,1.5,1.5s1.5-.7,1.5-1.5-.7-1.5-1.5-1.5c-.9,0-1.5.7-1.5,1.5Z" fill="url(#ecbYF0pMLdB52-fill)"/></g><g><polygon points="106.1,310 115.9,310 115.9,258.4 111,251.1 106.1,258.4" fill="url(#ecbYF0pMLdB54-fill)"/><path d="M109.5,271c0,.8.7,1.5,1.5,1.5s1.5-.7,1.5-1.5-.7-1.5-1.5-1.5-1.5.7-1.5,1.5Z" fill="url(#ecbYF0pMLdB55-fill)"/><path d="M109.5,295c0,.8.7,1.5,1.5,1.5s1.5-.7,1.5-1.5-.7-1.5-1.5-1.5-1.5.7-1.5,1.5Z" fill="url(#ecbYF0pMLdB56-fill)"/></g></g><g><polygon points="241.8,275.7 377.1,275.7 377.1,266.4 241.8,266.4" fill="url(#ecbYF0pMLdB58-fill)"/><polygon points="241.8,299.7 377.1,299.7 377.1,290.4 241.8,290.4" fill="url(#ecbYF0pMLdB59-fill)"/><g><polygon points="367.3,310 377.1,310 377.1,258.4 372.2,251.1 367.3,258.4" fill="url(#ecbYF0pMLdB61-fill)"/></g><g><polygon points="323.9,310 333.7,310 333.7,258.4 328.8,251.1 323.9,258.4" fill="url(#ecbYF0pMLdB63-fill)"/></g><g><polygon points="280.4,310 290.2,310 290.2,258.4 285.3,251.1 280.4,258.4" fill="url(#ecbYF0pMLdB65-fill)"/></g><g><polygon points="236.9,310 246.7,310 246.7,258.4 241.8,251.1 236.9,258.4" fill="url(#ecbYF0pMLdB67-fill)"/><path d="M240.3,271c0,.8.7,1.5,1.5,1.5s1.5-.7,1.5-1.5-.7-1.5-1.5-1.5-1.5.7-1.5,1.5Z" fill="url(#ecbYF0pMLdB68-fill)"/><path d="M240.3,295c0,.8.7,1.5,1.5,1.5s1.5-.7,1.5-1.5-.7-1.5-1.5-1.5-1.5.7-1.5,1.5Z" fill="url(#ecbYF0pMLdB69-fill)"/></g></g></g><clipPath id="ecbYF0pMLdB70"><use width="121.400002" height="66.800003" xlink:href="#ecbYF0pMLdB3" transform="matrix(-1 0 0-1 389.892 314.078)"/></clipPath></g></g><path d="M262.5,159.3v0l-14.3-11.9v0l-.4-.3-7.1-5.9v0l-.8-.6v0l-7.1-5.9-.4-.3v0l-6.8-5.6-.8-.6L212,117.5v0v0v0l-5.5,4.6-.5.4v0l-14.3,11.9v0l-.8.6v0l-6.8,5.6-.8.6-6.8,5.6v0l-.6.5-7.4,6.2-.3.2-6.8,5.6v0l-.7.6-6.8,5.7v0l-.4.3v.3v5.3.7.6v1.3v118.2v2.5v22.8h30.7v-27.4c0-16.5,13.4-29.9,29.9-29.9v0c16.5,0,29.9,13.4,29.9,29.9v27.4h26v-143.3-1.3-.6-.7-5.3-.3l-7.5-6.8ZM222,239.2h-19.7v-21.3c0-5.4,4.4-9.8,9.8-9.8s9.8,4.4,9.8,9.8v21.3Zm0-39.3h-19.7v-21.3c0-5.4,4.4-9.8,9.8-9.8s9.8,4.4,9.8,9.8v21.3Z" fill="url(#ecbYF0pMLdB72-fill)"/></g></g><path id="ecbYF0pMLdB73" d="M73.6,373.5c-2.1.9-5.3,1.7-9.6,2.4-4,.7-7.2,1-9.7,1-4.3,0-6.4-1.9-6.4-5.6c0,.3.2-2.5.5-8.3.5-7.6.7-16.1.7-25.4c0-1,.3-1.8,1-2.5s1.6-1.1,2.6-1.1s1.9.4,2.6,1.1s1.1,1.5,1.1,2.5c0,9.3-.2,17.9-.7,25.8-.2,1.4-.3,3.5-.5,6.4c4.2-.1,9.5-1.1,16-3c.4-.1.8-.2,1.2-.2c1.1,0,2,.4,2.7,1.2.6.7.9,1.5.9,2.4-.1,1.5-.9,2.6-2.4,3.3Z" opacity="0" fill="#034521"/><path id="ecbYF0pMLdB74" d="M96.5,376.1c-5.2,0-9.6-1.5-13.2-4.5-3.9-3.2-5.8-7.3-5.8-12.4c0-6,1.9-11.4,5.6-16.3c4.2-5.5,9.5-8.3,15.8-8.3c6.1,0,10.7,1.4,13.7,4.2s4.6,7,4.6,12.6c0,6-1.7,11.3-5.1,16.2-4.1,5.7-9.2,8.5-15.6,8.5Zm2.3-34.3c-3.9,0-7.2,1.9-10,5.7-2.6,3.5-3.9,7.5-3.9,11.8c0,2.9,1.1,5.3,3.4,7.1c2.2,1.8,4.9,2.6,8.2,2.6c3.9,0,7.1-1.9,9.6-5.7c2.4-3.5,3.5-7.4,3.5-11.8c0-3.7-.8-6.2-2.5-7.7-1.5-1.3-4.3-2-8.3-2Z" opacity="0" fill="#034521"/><path id="ecbYF0pMLdB75" d="M151.6,375.3c-1.4-.1-2.8-1.7-4.2-4.9-.9-2.1-1.7-4.4-2.4-7.1-1.3.2-3.4.4-6.4.6-2.8.2-4.9.4-6.4.7-.8,1.9-2.2,4.8-4.2,8.7-.8,1.3-1.8,1.9-3.2,1.9-1,0-1.8-.3-2.6-1s-1.2-1.5-1.2-2.5c0-.9,1.3-3.9,3.8-9.1-.2-.5-.4-1.1-.3-1.5.1-.8.9-1.5,2.5-2c2.5-4.3,5.3-8.8,8.3-13.4c4.4-6.6,7.1-10,8.1-10c1.9,0,3.2,1.2,3.9,3.5.4,1.9.9,4.7,1.7,8.4c1.1,5,2.4,10.8,3.9,17.3.1.5.6,1.6,1.3,3.5.6,1.5.9,2.6.9,3.4c0,1-.4,1.9-1.1,2.5-.5.7-1.4,1-2.4,1Zm-9.8-26.9c-1.4,2.3-3.2,5.5-5.6,9.6.8-.2,2-.3,3.7-.4c2-.1,3.2-.2,3.7-.3-.4-2.3-1-5.3-1.8-8.9Z" opacity="0" fill="#034521"/><path id="ecbYF0pMLdB76" d="M165.6,374.8c-1,0-1.9-.4-2.6-1.1s-1.1-1.5-1.1-2.5c0-1.8.1-4.4.2-7.9.2-3.5.2-6.1.2-7.9c0-1.9,0-4.9-.1-8.7-.1-3.9-.1-6.8-.1-8.7c0-1,.5-1.9,1.4-2.9s1.9-1.4,3-1.4c.6,0,2,.5,4.4,1.6c2.7,1.3,4.3,2,4.8,2.2c5.1,1.7,9.5,4.2,13.1,7.7c4.3,4.2,6.5,8.7,6.5,13.8c0,3-.7,5.9-2.2,8.6-1.5,2.8-3.5,5-6.1,6.7-2.9,1.9-7,2.8-12.3,2.8-1.3,0-2.7-.2-4.4-.6-2-.4-3.6-1-4.7-1.7Zm14.7-27c-1.7-1.1-5.3-2.7-10.9-5v26c.7.4,1.5.8,2.4,1s1.9.3,3,.3c3.8,0,6.5-.5,8.1-1.6c1.6-1,2.8-2.4,3.7-4.1s1.4-3.5,1.4-5.4c-.1-4.3-2.6-8.1-7.7-11.2Z" opacity="0" fill="#034521"/><path id="ecbYF0pMLdB77" d="M221.5,343.5c-.8,0-3.1-.2-6.9-.7-.2,3.2-.4,7.5-.4,12.8v11.8c2.3-.1,4.7-.1,7.1-.1c1.1,0,1.9.4,2.6,1.1s1,1.5,1,2.5-.4,1.8-1.1,2.5-1.6,1-2.7,1c-1,0-2.5,0-4.5.1-2,0-3.5.1-4.5.1-1.2,0-3,.2-5.3.5-2.4.3-4.1.5-5.3.5-1.1,0-2-.3-2.7-1s-1.1-1.5-1.1-2.5.4-1.8,1.1-2.5s1.7-1.1,2.8-1.1c1.3,0,2.9-.1,5-.4c0-2.1-.1-6-.1-11.9c0-4.8.2-9.3.5-13.6l-5.7.2c-1.1,0-1.9-.3-2.6-1s-1.1-1.5-1.1-2.5.3-1.9,1-2.5c.6-.6,1.4-.9,2.3-1c1.5-.1,4.1-.2,7.8-.2c3.3,0,7.6.4,12.9,1.1c2.1.3,3.1,1.5,3.1,3.6c0,1.1-.4,2-1.2,2.7-.4.2-1.1.5-2,.5Z" opacity="0" fill="#034521"/><path id="ecbYF0pMLdB78" d="M267.9,368.1c0,.9-.1,2.3-.4,4.2-.4,2.3-1.6,3.4-3.8,3.4-1.2,0-2.6-.7-4.2-2.1-6.7-6.1-14.4-14.6-22.8-25.6-.1,4.6-.2,7.3-.2,8.4c0,1.4,0,3.5.1,6.3s.1,4.9.1,6.3c0,5.2-1.3,7.7-3.8,7.7-1.3,0-2.3-.4-3.1-1.2-.7-.7-1-1.5-1-2.5c0-.7.1-1.8.2-3.2s.2-2.5.2-3.2c0-1,0-2.6.1-4.6.1-2.1.1-3.6.1-4.6c0-1.1,0-2.8-.1-5s-.1-3.9-.1-5-.1-2.6-.3-4.7-.3-3.7-.3-4.7.5-2,1.4-2.8s1.9-1.2,3.1-1.2c1.3,0,2.7,1.1,4.3,3.4c8,11.3,15.8,20.6,23.5,27.8c0-.6,0-1.9,0-4c0-8.6-.1-14.5-.3-17.5c0-.5-.1-1.5-.3-2.8-.2-1.2-.3-2.2-.3-2.9c0-2.4,1.3-3.6,3.8-3.6c2.9,0,4.3,4.4,4.3,13.2c0,.2,0,1.6-.1,4.2c0,8.5-.1,14.1-.1,16.3Z" opacity="0" fill="#034521"/><path id="ecbYF0pMLdB79" d="M305.2,359.1c-1.2,5.2-3.6,9.4-7.2,12.5-3.7,3.2-8,4.7-12.9,4.7-4.7,0-8.2-1.2-10.5-3.7s-3.5-6.2-3.5-11.1c0-4.5,1.1-9.1,3.3-13.8s5-8.5,8.5-11.5c2.4-2,5-3.1,7.8-3.1c1.7,0,4,.6,6.9,1.8c3.5,1.5,5.2,3,5.2,4.6c0,.9-.4,1.8-1.1,2.5s-1.6,1.1-2.7,1.1c-.5,0-1.7-.5-3.5-1.5s-3.4-1.5-4.9-1.5c-1.6,0-3.7,1.7-6.4,5.1-3.9,4.9-5.9,10.3-5.9,16c0,2.9.4,4.9,1.3,6s2.7,1.7,5.3,1.7c2.7,0,5-.8,7.1-2.3c2.2-1.6,3.7-4,4.8-7-4.1.3-7.6,1.1-10.6,2.5-.5.2-1.1.4-1.6.4-1.1,0-2-.4-2.7-1.2-.6-.7-1-1.5-1-2.4c0-2.7,3.2-4.6,9.5-5.6c3.6-.6,7.7-.9,12.5-.9c1.1,0,1.9.3,2.6,1s1.1,1.5,1.1,2.5c.2,1.5-.4,2.5-1.4,3.2Z" opacity="0" fill="#034521"/><path id="ecbYF0pMLdB80" d="M318.3,377.2c-1.2,0-2.2-.4-3-1.1s-1.3-1.5-1.3-2.5c0-.9.4-1.8,1.3-2.5s1.9-1.1,3-1.1c1.2,0,2.3.4,3.1,1.1s1.2,1.6,1.2,2.6c0,.9-.4,1.8-1.3,2.5s-1.9,1-3,1Z" opacity="0" fill="#034521"/><path id="ecbYF0pMLdB81" d="M341.6,377.2c-1.2,0-2.2-.4-3-1.1s-1.3-1.5-1.3-2.5c0-.9.4-1.8,1.3-2.5s1.9-1.1,3-1.1c1.2,0,2.3.4,3.1,1.1s1.2,1.6,1.2,2.6c0,.9-.4,1.8-1.3,2.5-.8.7-1.8,1-3,1Z" opacity="0" fill="#034521"/><path id="ecbYF0pMLdB82" d="M364.9,377.2c-1.2,0-2.2-.4-3-1.1s-1.3-1.5-1.3-2.5c0-.9.4-1.8,1.3-2.5s1.9-1.1,3-1.1c1.2,0,2.3.4,3.1,1.1s1.2,1.6,1.2,2.6c0,.9-.4,1.8-1.3,2.5-.8.7-1.8,1-3,1Z" opacity="0" fill="#034521"/><g id="ecbYF0pMLdB83_tr" transform="translate(211.700012,149.249992) rotate(0)"><path d="M315.1,229.1c0,0,0,0,0,0s0,0,0,0l-27.7-27.7c0,0,0,0,0,0s0,0,0,0l-13.8-13.8c0,0,0,0,0,0s0,0,0,0l-6.9-6.9c0,0,0,0,0,0s0,0,0,0l-13.2-13.2-15.6,3.6-.2.2-18.5-18.5c.3-.9.5-1.8.5-2.8c0-1.4-.4-2.7-1-3.8l19-19l.2.2l15.6,3.6l13.2-13.2c0,0,0,0,0,0s0,0,0,0l6.9-6.9c0,0,0,0,0,0s0,0,0,0l13.8-13.8c0,0,0,0,0,0s0,0,0,0l27.7-27.7c0,0,0,0,0,0s0,0,0,0l7.2-7.2c.8-.8.8-2.1,0-2.9L302.1,39c-.8-.8-2.1-.8-2.9,0L292,46.2c0,0,0,0,0,0s0,0,0,0l-6.9,6.9c0,0,0,0,0,0s0,0,0,0L278.2,60c0,0,0,0,0,0s0,0,0,0l-6.9,6.9c0,0,0,0,0,0s0,0,0,0l-6.9,6.9c0,0,0,0,0,0s0,0,0,0l-6.9,6.9c0,0,0,0,0,0s0,0,0,0l-6.9,6.9c0,0,0,0,0,0s0,0,0,0L231,107.2l3.3,16.3-19.2,19.2c-1.1-.5-2.2-.8-3.5-.8-1.2,0-2.3.3-3.3.7l-19.1-19.1l3.3-16.3L173,87.7c0,0,0,0,0,0s0,0,0,0l-6.9-6.9c0,0,0,0,0,0s0,0,0,0l-6.9-6.9c0,0,0,0,0,0s0,0,0,0L152.3,67c0,0,0,0,0,0s0,0,0,0l-6.9-6.9c0,0,0,0,0,0s0,0,0,0l-6.9-6.9c0,0,0,0,0,0s0,0,0,0l-6.9-6.9c0,0,0,0,0,0s0,0,0,0l-7.2-7.2c-.8-.8-2.1-.8-2.9,0L101.3,59.3c-.8.8-.8,2.1,0,2.9l7.2,7.2c0,0,0,0,0,0s0,0,0,0L136,96.9c0,0,0,0,0,0s0,0,0,0l13.8,13.8c0,0,0,0,0,0s0,0,0,0l6.9,6.9c0,0,0,0,0,0s0,0,0,0l13.2,13.2l15.6-3.6.2-.2l18.8,18.8c-.7,1.2-1.1,2.5-1.1,4c0,1.1.2,2,.6,3l-18.3,18.3-.2-.2-15.6-3.6-13.2,13.2c0,0,0,0,0,0s0,0,0,0l-6.9,6.9c0,0,0,0,0,0s0,0,0,0l-13.8,14c0,0,0,0,0,0s0,0,0,0l-27.7,27.7c0,0,0,0,0,0s0,0,0,0l-7.2,7.2c-.8.8-.8,2.1,0,2.9l20.2,20.2c.8.8,2.1.8,2.9,0l7.2-7.2c0,0,0,0,0,0s0,0,0,0l6.9-6.9c0,0,0,0,0,0s0,0,0,0l6.9-6.9c0,0,0,0,0,0s0,0,0,0l6.9-6.9c0,0,0,0,0,0s0,0,0,0l6.9-6.9c0,0,0,0,0,0s0,0,0,0l6.9-6.9c0,0,0,0,0,0s0,0,0,0l6.9-6.9c0,0,0,0,0,0s0,0,0,0L186.6,197c0,0,0,0,0,0s0,0,0,0l5.7-5.7L189,175l18.1-18.1c1.2.8,2.7,1.3,4.3,1.3s3.2-.5,4.4-1.3L234,175.1l-3.3,16.3l5.7,5.7c0,0,0,0,0,0s0,0,0,0l13.8,13.8c0,0,0,0,0,0s0,0,0,0l6.9,6.9c0,0,0,0,0,0s0,0,0,0l6.9,6.9c0,0,0,0,0,0s0,0,0,0l6.9,6.9c0,0,0,0,0,0s0,0,0,0l6.9,6.9c0,0,0,0,0,0s0,0,0,0l6.9,6.9c0,0,0,0,0,0s0,0,0,0l6.9,6.9c0,0,0,0,0,0s0,0,0,0l7.2,7.2c.8.8,2.1.8,2.9,0l20.2-20.2c.8-.8.8-2.1,0-2.9l-6.8-7.3Zm-25.7,14.7l17.3-17.3l4,4-17.3,17.3-4-4Zm-6.9-6.9l6.9-6.9l4,4-6.9,6.9-4-4Zm-6.9-6.9l6.9-6.9l4,4-6.9,6.9-4-4Zm-6.9-6.9l6.9-6.9l4,4-6.9,6.9-4-4Zm-6.9-7l6.9-6.9l4,4-6.9,6.9-4-4Zm-6.9-6.9l6.9-6.9l4,4-6.9,6.9-4-4Zm-7-6.9l6.9-6.9l4,4-6.9,6.9-4-4Zm-6.9-6.9l6.9-6.9l4,4-6.9,6.9-4-4Zm21.3-13.3l-6.9,6.9-4-4l6.9-6.9l4,4Zm7,6.9l-6.9,6.9-4-4l6.9-6.9l4,4Zm6.9,6.9l-6.9,6.9-4-4l6.9-6.9l4,4Zm6.9,6.9l-6.9,6.9-4-4l6.9-6.9l4,4Zm6.9,7l-6.9,6.9-4-4l6.9-6.9l4,4Zm6.9,6.9l-6.9,6.9-4-4l6.9-6.9l4,4Zm6.9,6.9l-6.9,6.9-4-4l6.9-6.9l4,4Zm-62.5-48.7l11.4-2.5l2.8,2.8-6.9,6.9-7.3-7.2v0Zm11.4-49l-11.4-2.5v0l7.2-7.2l6.9,6.9-2.7,2.8Zm-7.7-27l6.9,6.9-4,4L241,103l4-4.1Zm7-6.9l6.9,6.9-4,4L248,96l4-4Zm6.9-6.9l6.9,6.9-4,4-6.9-6.9l4-4Zm6.9-6.9l6.9,6.9-4,4-6.9-6.9l4-4Zm6.9-6.9l6.9,6.9-4,4-6.9-6.9l4-4Zm6.9-7l6.9,6.9-4,4-6.9-6.9l4-4Zm6.9-6.9l6.9,6.9-4,4-6.9-6.9l4-4Zm7-6.9l17.3,17.3-4,4-17.3-17.3l4-4Zm6.3,28.2l-6.9-6.9l4-4l6.9,6.9-4,4Zm-6.9,7L286,78.8l4-4l6.9,6.9-4,4ZM286,92.6l-6.9-6.9l4-4l6.9,6.9-4,4Zm-6.9,6.9l-6.9-6.9l4-4l6.9,6.9-4,4Zm-6.9,6.9l-6.9-6.9l4-4l6.9,6.9-4,4Zm-7,6.9l-6.9-6.9l4-4l6.9,6.9-4,4Zm-9.8-4l6.9,6.9-4,4-6.9-6.9l4-4Zm45.3-66L318,60.6l-4.3,4.3-17.3-17.3l4.3-4.3Zm-65.3,65.2l2.7-2.7l6.9,6.9-7.2,7.2-2.4-11.4ZM185.7,120l-7.2-7.2l6.9-6.9l2.7,2.7-2.4,11.4Zm-24.6-3.8l6.9-6.9l4,4-6.9,6.9-4-4Zm-6.9-6.9l6.9-6.9l4,4-6.9,6.9-4-4Zm-6.9-6.9l6.9-6.9l4,4-6.9,6.9-4-4Zm-6.9-6.9l6.9-6.9l4,4-6.9,6.9-4-4Zm-6.9-6.9l6.9-6.9l4,4-6.9,6.9-4-4Zm-6.9-7l6.9-6.9l4,4-6.9,6.9-4-4Zm-7-6.9l6.9-6.9l4,4-6.9,6.9-4-4Zm-6.9-6.9L130,50.5l4,4-17.3,17.3-4-4Zm28.2-6.4L134,68.3l-4-4l6.9-6.9l4,4Zm7,7L141,75.3l-4-4l6.9-6.9l4,4Zm6.9,6.9l-6.9,6.9-4-4l6.9-6.9l4,4Zm6.9,6.9l-6.9,6.9-4-4l6.9-6.9l4,4Zm6.9,6.9L161.7,96l-4-4l6.9-6.9l4,4Zm6.9,6.9l-6.9,6.9-4-4l6.9-6.9l4,4Zm-4,9.8l6.9-6.9l4,4-6.9,6.9-4-4ZM122.8,43.3l4.3,4.3-17.3,17.3-4.3-4.3l17.3-17.3Zm59.4,80.2L170.8,126l-2.8-2.8l6.9-6.9l7.3,7.2v0Zm-11.4,48.9l11.4,2.5v0l-7.2,7.2-6.9-6.9l2.7-2.8Zm7.6,27l-6.9-6.9l4-4l6.9,6.9-4,4Zm-6.9,6.9l-6.9-6.9l4-4l6.9,6.9-4,4Zm-6.9,6.9l-6.9-6.9l4-4l6.9,6.9-4,4Zm-6.9,7l-6.9-6.9l4-4l6.9,6.9-4,4Zm-6.9,6.9l-6.9-6.9l4-4l6.9,6.9-4,4Zm-6.9,6.9l-6.9-6.9l4-4l6.9,6.9-4,4Zm-7,6.9L130,234l4-4l6.9,6.9-4,4Zm-6.9,6.9l-17.3-17.3l4-4L134,243.8l-4,4Zm-6.4-28.2l6.9,6.9-4,4-6.9-6.9l4-4Zm7-6.9l6.9,6.9-4,4-6.9-6.9l4-4Zm6.9-6.9l6.9,6.9-4,4-6.9-6.9l4-4Zm6.9-7l6.9,6.9-4,4-6.9-6.9l4-4Zm6.9-6.9l6.9,6.9-4,4-6.9-6.9l4-4Zm6.9-6.9l6.9,6.9-4,4-6.9-6.9l4-4Zm9.9,4l-6.9-6.9l4-4l6.9,6.9-4,4Zm-45.3,66l-17.3-17.3l4.3-4.3l17.3,17.3-4.3,4.3ZM188,189.8l-2.7,2.7-6.9-6.9l7.2-7.2l2.4,11.4Zm49.8-11.4l7.2,7.2-6.9,6.9-2.7-2.7l2.4-11.4ZM300.7,255l-4.3-4.3l17.3-17.3l4.3,4.3L300.7,255Z" transform="translate(-211.700012,-149.249992)" fill="url(#ecbYF0pMLdB83-fill)"/></g></svg>