<?xml version="1.0" encoding="utf-8"?>
<!-- Generator: Adobe Illustrator 25.2.0, SVG Export Plug-In . SVG Version: 6.00 Build 0)  -->
<svg version="1.1" id="fan_1_" xmlns="http://www.w3.org/2000/svg" xmlns:xlink="http://www.w3.org/1999/xlink" x="0px" y="0px"
	 viewBox="0 0 150 150" style="enable-background:new 0 0 150 150;" xml:space="preserve">
<style type="text/css">
	.st0{fill:#D10B31;}
	.st1{fill:#494749;}
	.st2{fill:#2D2C2D;}
	.st3{fill:#282328;}
</style>
<g id="fan">
	<path class="st0" d="M67.4,56c1.6,1.5,3.4,3.2,5.4,3.7c0.1,0.1,0.2,0,0.3,0c0.1,0,0.1,0,0.2,0s0.2,0,0.3,0c0.1,0,0.1,0,0.2,0
		c0.2,0,0.3,0,0.4,0l0,0l0,0c0.6,0,1.2-0.2,1.7-0.4c0.2-0.1,0.4-0.2,0.5-0.3c0.3-0.2,0.7-0.4,0.9-0.7c0.5-0.4,0.8-0.9,1.2-1.4
		c0.3-0.3,0.5-0.7,0.7-1.1c0.5-1,0.8-2,1-3c0.1-0.4,0.1-0.8,0.2-1.2c0.2-1.4,0.2-2.9,0.3-4.4c0-0.4,0.1-0.8,0.1-1.2s0.1-0.8,0.2-1.2
		c0.1-0.6,0.3-1.2,0.5-1.8c0.7-1.8,1.7-3.3,3-4.7c1.2-1.4,2.7-2.7,4.1-4c1.9-1.8,3.8-3.8,4.8-6.1c0.5-1.1,0.8-2.2,0.9-3.4
		c0-0.7,0-1.4-0.1-2.2c-0.1-0.5-0.2-1-0.4-1.4c-0.1-0.2-0.2-0.5-0.3-0.7c-0.4-0.9-0.9-1.7-1.5-2.5c-0.3-0.4-0.6-0.8-1-1.1
		c-0.3-0.4-0.7-0.7-1.1-1c-0.4-0.3-0.8-0.6-1.1-0.9c-0.4-0.3-0.7-0.5-1.1-0.7c-0.1-0.1-0.2-0.2-0.4-0.2c-0.3-0.2-0.5-0.3-0.8-0.5
		c-0.2,0-0.3-0.2-0.4-0.2c-0.3-0.2-0.5-0.3-0.8-0.4c-0.2,0-0.3-0.1-0.4-0.2c-0.3-0.2-0.6-0.3-1-0.4c-0.1-0.1-0.2,0-0.3-0.1
		c-0.4-0.2-0.8-0.2-1.2-0.4c-0.1-0.1-0.2,0-0.4-0.1c-0.3-0.1-0.6-0.1-0.9-0.2c-0.2,0-0.3,0-0.5-0.1c-0.3,0-0.6-0.1-0.9-0.1
		c-0.2,0-0.3,0-0.5,0c-0.3,0-0.6-0.1-0.9-0.1c-0.1,0-0.3,0-0.4,0c-0.4,0-0.9,0-1.3-0.1c-0.1,0-0.2,0-0.3,0c-0.3,0-0.7,0-1,0
		c-0.2,0-0.3,0-0.5,0c-0.3,0-0.6,0.1-0.8,0.1c-0.2,0-0.3,0.1-0.5,0.1c-0.3,0.1-0.6,0.1-0.8,0.1c-0.2,0-0.3,0.1-0.4,0.1
		c-0.4,0.1-0.7,0.2-1.2,0.2c-0.1,0-0.1,0-0.2,0.1l0,0l0,0c-1.4,0.3-2.7,0.8-4,1.5c-6.8,3.3-11.7,10.1-13,17.7
		c-0.8,4.6-0.3,9.4,1.9,13.5C58.8,49.2,63.5,52.3,67.4,56z"/>
	<path class="st0" d="M90.4,72.7c-0.1,0.1,0,0.2,0,0.3c0,0.1,0,0.1,0,0.2s0,0.2,0,0.3c0,0.1,0,0.1,0,0.2c0,0.2,0,0.3,0,0.4
		c0,0.6,0.2,1.2,0.4,1.7c0.2,0.4,0.3,0.7,0.6,1c0.6,0.8,1.4,1.5,2.3,2c0.4,0.2,0.8,0.4,1.1,0.6c0.4,0.2,0.8,0.3,1.2,0.5
		c0.2,0,0.4,0.1,0.6,0.1s0.4,0.1,0.6,0.1c0.8,0.1,1.7,0.2,2.5,0.3c0.4,0,0.9,0,1.2,0.1c0.4,0,0.9,0,1.2,0.1c0.4,0,0.9,0.1,1.2,0.1
		c1.2,0.1,2.5,0.3,3.6,0.8c2.2,0.8,4.1,2.3,5.8,4c0.2,0.2,0.3,0.3,0.5,0.5c0.3,0.4,0.7,0.7,1,1c0.5,0.5,1,1,1.5,1.6
		c1.1,1.2,2.4,2.4,3.7,3.4c0.4,0.3,0.8,0.6,1.2,0.8c0.2,0.1,0.4,0.3,0.6,0.4c0.6,0.3,1.3,0.6,1.9,0.8c0.6,0.2,1.3,0.3,2.1,0.4
		c3.9,0.2,7.6-2.3,9.9-5.4c0.3-0.4,0.5-0.7,0.7-1.1c0.1-0.1,0.2-0.2,0.2-0.4c0.2-0.3,0.3-0.5,0.5-0.8c0.1-0.2,0.2-0.3,0.2-0.4
		c0.2-0.3,0.3-0.5,0.4-0.8c0-0.2,0.1-0.3,0.2-0.4c0.2-0.3,0.3-0.6,0.4-1c0.1-0.1,0.1-0.2,0.1-0.3c0.2-0.4,0.3-0.8,0.4-1.2
		c0.1-0.1,0-0.2,0.1-0.4c0.1-0.3,0.1-0.6,0.2-0.9c0-0.2,0-0.3,0.1-0.5c0-0.3,0.1-0.6,0.1-0.9c0-0.2,0-0.3,0-0.5
		c0-0.3,0.1-0.6,0.1-0.9c0-0.1,0-0.3,0-0.4c0-0.4,0-0.8,0.1-1.3c0-0.1,0-0.2,0-0.3c0-0.3,0-0.7,0-1c0-0.2,0-0.3,0-0.5
		c0-0.3-0.1-0.6-0.1-0.8c0-0.2-0.1-0.3-0.1-0.5c-0.1-0.3-0.1-0.6-0.1-0.8c0-0.2-0.1-0.3-0.1-0.4c-0.1-0.4-0.2-0.7-0.2-1.2
		c0-0.1,0-0.1-0.1-0.2l0,0l0,0c-0.3-1.4-0.8-2.7-1.5-4c-3.3-6.8-10.2-11.7-17.7-13c-4.6-0.8-9.5-0.3-13.5,1.9
		c-4.7,2.6-7.9,7.2-11.5,11.2C92.6,68.9,90.9,70.6,90.4,72.7z"/>
	<path class="st0" d="M82.8,93.9c-1.6-1.5-3.4-3.2-5.4-3.7c-0.1-0.1-0.2,0-0.3,0c-0.1,0-0.1,0-0.2,0s-0.2,0-0.3,0
		c-0.1,0-0.1,0-0.2,0c-0.2,0-0.3,0-0.4,0c-1.6,0-3,1-4,2.3s-1.7,3-2,4.6c-0.4,2-0.3,4.1-0.6,6.2c0,0.2,0,0.4-0.1,0.6
		c0,0.4-0.1,0.8-0.2,1.2c-0.1,0.6-0.3,1.2-0.5,1.8c-1.3,3.6-4.3,6.1-7.1,8.7c-0.2,0.2-0.4,0.3-0.5,0.5c-2,2-4,4.3-4.8,7
		c-0.2,0.6-0.3,1.3-0.4,2.1c0,0.7,0,1.4,0.1,2.2c0.1,0.5,0.2,1,0.4,1.4c0.1,0.2,0.2,0.5,0.3,0.7c0.4,0.9,0.9,1.7,1.5,2.5
		c0.3,0.4,0.6,0.8,1,1.1c0.3,0.4,0.7,0.7,1.1,1c0.4,0.3,0.8,0.6,1.1,0.9c0.4,0.3,0.7,0.5,1.1,0.7c0.1,0.1,0.2,0.2,0.4,0.2
		c0.3,0.2,0.5,0.3,0.8,0.5c0.2,0,0.3,0.2,0.4,0.2c0.3,0.2,0.5,0.3,0.8,0.4c0.2,0,0.3,0.1,0.4,0.2c0.3,0.2,0.6,0.3,1,0.4
		c0.1,0.1,0.2,0,0.3,0.1c0.4,0.2,0.8,0.2,1.2,0.4c0.1,0.1,0.2,0,0.4,0.1c0.3,0.1,0.6,0.1,0.9,0.2c0.2,0,0.3,0,0.5,0.1
		c0.3,0,0.6,0.1,0.9,0.1c0.2,0,0.3,0,0.5,0c0.3,0,0.6,0.1,0.9,0.1c0.1,0,0.3,0,0.4,0c0.4,0,0.9,0,1.3,0.1c0.1,0,0.2,0,0.3,0
		c0.3,0,0.7,0,1,0c0.2,0,0.3,0,0.5,0c0.3,0,0.6-0.1,0.8-0.1c0.2,0,0.3-0.1,0.5-0.1c0.3-0.1,0.6-0.1,0.8-0.1c0.2,0,0.3-0.1,0.4-0.1
		c0.4-0.1,0.7-0.2,1.2-0.2c0.1,0,0.1,0,0.2-0.1l0,0l0,0c1.4-0.3,2.7-0.8,4-1.5c6.8-3.3,11.7-10.1,13-17.7c0.8-4.6,0.3-9.4-1.9-13.5
		C91.4,100.7,86.8,97.6,82.8,93.9z"/>
	<path class="st0" d="M11.3,74.3c0,0.2,0,0.3,0,0.5c0,0.3,0.1,0.6,0.1,0.8c0,0.2,0.1,0.3,0.1,0.5c0.1,0.3,0.1,0.6,0.1,0.8
		c0,0.2,0.1,0.3,0.1,0.5c0.1,0.4,0.2,0.7,0.2,1.1c0.3,1.4,0.9,2.8,1.5,4.1c3.3,6.8,10.2,11.7,17.7,13c4.6,0.8,9.5,0.3,13.5-1.9
		c4.7-2.6,7.9-7.2,11.5-11.2c1.5-1.6,3.2-3.3,3.7-5.3l0,0l0,0c0-0.1,0-0.1,0-0.1c0.1-0.1,0-0.2,0.1-0.3c0-0.1,0-0.1,0-0.2
		s0-0.2,0-0.3c0-0.1,0-0.1,0-0.2c0-0.2,0-0.3,0-0.4l0,0c0-0.2,0-0.4-0.1-0.6s-0.1-0.4-0.1-0.6c-0.2-0.7-0.6-1.4-1.2-2
		C57.1,71,55.1,70,53,69.6c-3.3-0.6-6.7-0.2-9.8-1.3c-0.9-0.3-1.7-0.8-2.5-1.3c-0.4-0.3-0.8-0.5-1.1-0.8c-0.5-0.4-1.1-0.9-1.6-1.4
		c-0.3-0.3-0.7-0.7-1-1c-0.2-0.2-0.3-0.4-0.5-0.5c-0.7-0.7-1.3-1.4-2-2.1c-1-1-2.1-2-3.2-3c-1-0.7-1.9-1.4-3-1.9
		c-0.4-0.2-0.9-0.4-1.3-0.5c-0.6-0.2-1.3-0.3-2.1-0.4c-2.9-0.2-5.7,1.2-7.9,3.2c-0.6,0.5-1,1.1-1.5,1.6c-0.2,0.2-0.3,0.4-0.5,0.6
		c-0.3,0.4-0.5,0.7-0.7,1.1c-0.1,0.1-0.2,0.2-0.2,0.4c-0.2,0.3-0.3,0.5-0.5,0.8c0,0.2-0.2,0.3-0.2,0.4c-0.2,0.3-0.3,0.5-0.4,0.8
		c0,0.2-0.1,0.3-0.2,0.4c-0.2,0.3-0.3,0.6-0.4,1c-0.1,0.1,0,0.2-0.1,0.3c-0.2,0.4-0.3,0.8-0.4,1.2c-0.1,0.1,0,0.2-0.1,0.4
		c-0.1,0.3-0.1,0.6-0.2,0.9c0,0.2,0,0.3-0.1,0.5c0,0.3-0.1,0.6-0.1,0.9c0,0.2,0,0.3,0,0.5c0,0.3-0.1,0.6-0.1,0.9c0,0.1,0,0.3,0,0.4
		c0,0.4,0,0.8-0.1,1.3c0,0.1,0,0.2,0,0.3C11.3,73.6,11.3,73.9,11.3,74.3z"/>
</g>
<g id="Layer_2_1_">
	<ellipse class="st1" cx="74.9" cy="74.8" rx="13.8" ry="13.8"/>
	<ellipse class="st2" cx="75" cy="74.8" rx="9" ry="9"/>
</g>
<path id="frame" class="st3" d="M75,2.2C34.9,2.2,2.2,34.9,2.2,75s32.6,72.8,72.8,72.8s72.8-32.6,72.8-72.8
	C147.8,34.9,115.1,2.2,75,2.2z M140.5,73.6h-8.2c0-0.6,0-1.2,0-1.7c-0.8-14.1-6.6-26.8-15.7-36.3l5.8-5.8
	C133.3,41.2,140.1,56.6,140.5,73.6z M114.5,33.5c-10-9.5-23.4-15.4-38-15.8V9.5c17,0.4,32.3,7.2,43.8,18.2L114.5,33.5z M73.6,92
	c-3.6-0.3-6.9-1.7-9.6-4l9.6-9.6V92z M76.4,78.5l9.6,9.6c-2.6,2.2-5.9,3.7-9.6,4V78.5z M76.4,58c3.6,0.3,6.9,1.7,9.6,4l-9.6,9.6V58z
	 M73.6,71.5L64,62c2.6-2.2,5.9-3.7,9.6-4V71.5z M61.6,59.6L59,57c1.3-1.2,2.7-2.2,4.3-3c3.1-1.7,6.6-2.7,10.2-3v3.6
	C69.1,54.9,64.9,56.7,61.6,59.6z M71.5,73.6H58c0.3-3.6,1.7-6.9,4-9.6L71.5,73.6z M71.5,76.4L61.9,86c-2.2-2.6-3.7-5.9-4-9.6H71.5z
	 M61.6,90.5c0.5,0.4,0.9,0.8,1.4,1.2c3.1,2.3,6.7,3.6,10.6,3.8V99c-5.4-0.3-10.5-2.5-14.5-6L61.6,90.5z M76.4,95.4
	c4.4-0.3,8.7-2.1,12-5L91,93c-1.3,1.2-2.7,2.2-4.3,3c-3.1,1.7-6.6,2.7-10.2,3L76.4,95.4L76.4,95.4z M78.5,76.4H92
	c-0.3,3.6-1.7,6.9-4,9.6L78.5,76.4z M78.5,73.6L88,64c2.2,2.6,3.7,5.9,4,9.6H78.5z M88.4,59.6c-0.4-0.4-0.9-0.8-1.4-1.2
	c-3.1-2.3-6.7-3.6-10.6-3.8V51c5.4,0.3,10.5,2.5,14.5,6L88.4,59.6z M73.6,48.1c-4,0.2-8,1.3-11.6,3.3c-1.8,1-3.5,2.2-5,3.5l-4.5-4.5
	c3.8-3.5,8.5-6.1,13.6-7.5c2.5-0.7,5-1.1,7.4-1.2L73.6,48.1L73.6,48.1z M59.5,61.6c-0.4,0.5-0.8,0.9-1.2,1.4
	c-2.3,3.1-3.6,6.8-3.8,10.6H51c0.3-5.3,2.4-10.5,6-14.5L59.5,61.6z M54.6,76.4c0,0.6,0.1,1.2,0.2,1.8c0.6,3.8,2.3,7.3,4.8,10.2
	L57,91c-1.2-1.3-2.2-2.7-3-4.3c-1.8-3.3-2.7-6.7-3-10.2L54.6,76.4L54.6,76.4z M57,95c4.5,4,10.3,6.5,16.5,6.9v6.3
	c-8-0.3-15.4-3.6-21-8.7L57,95z M76.4,101.9c4-0.2,8-1.3,11.6-3.3c1.8-1,3.5-2.2,5-3.5l4.5,4.5c-3.7,3.5-8.4,6.1-13.6,7.5
	c-2.5,0.7-5,1.1-7.4,1.2L76.4,101.9L76.4,101.9z M90.5,88.5c0.4-0.5,0.8-0.9,1.2-1.4c2.3-3.2,3.6-6.9,3.8-10.6h3.6
	c-0.1,1.7-0.4,3.5-0.9,5.2c-1,3.5-2.7,6.7-5.1,9.3L90.5,88.5z M95.4,73.6c-0.3-4.4-2-8.6-5-12L93,59c1.2,1.3,2.2,2.7,3,4.3
	c1.8,3.2,2.8,6.7,3,10.2L95.4,73.6L95.4,73.6z M93,55c-4.5-4-10.3-6.5-16.5-6.9v-6.3c8,0.3,15.4,3.6,21,8.7L93,55z M73.6,38.9
	c-2.7,0.1-5.5,0.5-8.2,1.3c-5.6,1.6-10.7,4.4-14.9,8.3l-5.2-5.2c6.3-6,14.5-10.1,23.8-11.3c1.5-0.2,3-0.3,4.5-0.4V38.9L73.6,38.9z
	 M55,57c-4.1,4.6-6.5,10.5-6.8,16.5h-6.3c0.2-5.2,1.7-10.3,4.3-14.9c1.2-2.2,2.7-4.2,4.4-6.1L55,57z M48.1,76.4
	c0.2,3.9,1.3,7.9,3.3,11.6c1,1.8,2.2,3.5,3.5,5l-4.5,4.5c-3.5-3.8-6.1-8.4-7.5-13.6c-0.7-2.5-1.1-5-1.2-7.4L48.1,76.4L48.1,76.4z
	 M50.5,101.6c6.2,5.7,14.3,9.2,23.1,9.6v7.4c-9.9-0.3-19.5-4-27.1-10.6c-0.4-0.4-0.9-0.8-1.2-1.2L50.5,101.6z M76.4,111.1
	c2.7-0.1,5.5-0.5,8.2-1.3c5.8-1.6,10.8-4.5,14.9-8.3l5.3,5.3C98.3,113,90.1,117,81,118.2c-1.5,0.2-3,0.3-4.5,0.4L76.4,111.1
	L76.4,111.1z M95,93c2.7-3,4.7-6.6,5.9-10.6c0.6-2,0.9-4,1-6h6.3c-0.3,7.9-3.5,15.3-8.7,21.1L95,93z M101.9,73.6
	c-0.2-4-1.3-8-3.3-11.6c-1-1.8-2.2-3.5-3.5-5l4.5-4.5c3.5,3.8,6.1,8.4,7.5,13.6c0.7,2.5,1.1,5,1.2,7.4L101.9,73.6z M99.5,48.5
	c-6.2-5.7-14.3-9.2-23.1-9.6v-7.4c9.9,0.3,19.5,4,27.1,10.6c0.4,0.4,0.9,0.8,1.2,1.2L99.5,48.5z M73.6,28.6c-1.6,0-3.3,0.2-5,0.4
	c-9.9,1.4-18.6,5.8-25.5,12.2l-5.6-5.6c9.3-8.9,21.4-14.1,34.4-14.9c0.5,0,1.1,0,1.6,0L73.6,28.6L73.6,28.6z M48.4,50.5
	c-1.9,2-3.5,4.3-4.9,6.7c-2.9,5.1-4.5,10.7-4.7,16.4h-7.4c0.3-10.8,4.7-20.8,11.8-28.3L48.4,50.5z M38.9,76.4
	c0.1,2.7,0.5,5.5,1.3,8.2c1.6,5.7,4.5,10.7,8.3,14.9l-5.3,5.3C37.1,98.3,33,89.9,31.8,81c-0.2-1.5-0.3-3-0.4-4.5L38.9,76.4
	L38.9,76.4z M43.2,108.9c0.5,0.4,1,0.9,1.4,1.3c8.1,7,18.4,11,29,11.3v7.9c-13.9-0.3-26.5-6-36-14.9L43.2,108.9z M76.4,121.5
	c1.6,0,3.3-0.2,5-0.4c9.7-1.3,18.5-5.6,25.5-12.2l5.6,5.6c-9.3,8.9-21.4,14.1-34.4,14.9c-0.5,0-1.1,0-1.6,0L76.4,121.5L76.4,121.5z
	 M101.6,99.6c5.8-6.2,9.2-14.4,9.6-23.1h7.4c-0.3,8.9-3.3,17.6-8.8,24.8c-0.9,1.2-1.9,2.4-2.9,3.5L101.6,99.6z M111.1,73.6
	c-0.1-2.7-0.5-5.5-1.3-8.2c-1.6-5.7-4.5-10.7-8.3-14.9l5.3-5.3C113,51.7,117,60.1,118.2,69c0.2,1.5,0.3,3,0.4,4.5L111.1,73.6
	L111.1,73.6z M106.8,41.2c-0.5-0.4-1-0.9-1.4-1.3c-8.1-7-18.4-11-29-11.3v-7.9c13.9,0.3,26.5,6,36,14.9L106.8,41.2z M73.6,17.8
	c-0.6,0-1.2,0-1.7,0c-13.7,0.8-26.5,6.3-36.3,15.7l-5.8-5.8c11.4-11,26.8-17.8,43.8-18.2L73.6,17.8L73.6,17.8z M35.5,37.6l5.6,5.6
	C33.6,51.3,28.9,62,28.6,73.6h-7.9c0.3-12.9,5.1-25.1,13.8-34.8C34.8,38.3,35.2,37.9,35.5,37.6z M28.5,76.4c0,1.6,0.2,3.3,0.4,5
	c1.3,9.6,5.6,18.5,12.2,25.5l-5.6,5.6c-8.6-9-14.1-21.1-14.9-34.4c0-0.5,0-1.1,0-1.6L28.5,76.4L28.5,76.4z M35.5,116.5
	c10,9.5,23.4,15.4,38,15.8v8.2c-17-0.4-32.3-7.2-43.8-18.2L35.5,116.5z M76.4,132.3c0.6,0,1.2,0,1.7,0c13.7-0.8,26.5-6.3,36.3-15.7
	l5.8,5.8c-11.4,11-26.8,17.8-43.8,18.2L76.4,132.3L76.4,132.3z M114.5,112.4l-5.6-5.6c1.1-1.2,2.2-2.5,3.2-3.8
	c5.9-7.8,9.1-17,9.4-26.6h7.9c-0.3,12.9-5.1,25.1-13.8,34.8C115.2,111.7,114.8,112.1,114.5,112.4z M121.5,73.6c0-1.6-0.2-3.3-0.4-5
	c-1.3-9.6-5.6-18.5-12.2-25.5l5.6-5.6c8.6,9,14.1,21.1,14.9,34.4c0,0.5,0,1.1,0,1.6L121.5,73.6L121.5,73.6z M27.7,29.8l5.8,5.8
	c-0.4,0.4-0.8,0.8-1.2,1.2C23.1,47,18,60,17.7,73.6H9.5C9.9,56.6,16.7,41.2,27.7,29.8z M9.5,76.4h8.2c0,0.6,0,1.2,0,1.7
	c0.8,14.1,6.6,26.8,15.7,36.3l-5.8,5.8C16.7,108.8,9.9,93.4,9.5,76.4z M122.3,120.3l-5.8-5.8c0.4-0.4,0.8-0.8,1.2-1.2
	c9.2-10.2,14.3-23.2,14.6-36.8h8.2C140.1,93.4,133.3,108.8,122.3,120.3z"/>
</svg>
