<?xml version="1.0" encoding="utf-8"?>
<!-- Generator: Adobe Illustrator 25.2.0, SVG Export Plug-In . SVG Version: 6.00 Build 0)  -->
<svg version="1.1" id="ek57ppnncy61" shape-rendering="geometricPrecision" text-rendering="geometricPrecision"
	 xmlns="http://www.w3.org/2000/svg" xmlns:xlink="http://www.w3.org/1999/xlink" x="0px" y="0px" viewBox="0 0 1417.3 1417.3"
	 style="enable-background:new 0 0 1417.3 1417.3;" xml:space="preserve">
<style type="text/css">
	.st0{fill:#59E351;}
	.st1{fill:#1F7F17;}
	.st2{opacity:0;}
	.st3{fill:#D9D9D8;}
	.st4{fill:#BCBCBB;}
	.st5{fill:#FFFFFF;}
	.st6{opacity:0.72;}
	.st7{fill:#C6C4BE;}
	.st8{fill:#B7B7B7;}
	.st9{fill:#B0AEAE;}
	.st10{fill:#ABABAB;}
	.st11{fill:#71777F;}
	.st12{fill:#81898C;}
	.st13{fill:#838989;}
	.st14{fill:#8D9191;}
	.st15{fill:#B7B6B2;}
	.st16{fill:#333736;}
	.st17{fill:#A09F9F;}
	.st18{fill:#7D7D7D;}
	.st19{fill:#C6C4BE;stroke:#8C8C8C;stroke-width:1.2556;stroke-miterlimit:10;}
	.st20{fill:#9C9A8E;}
	.st21{fill:#7F515C;}
	.st22{opacity:0.85;}
	.st23{fill:#55B102;}
	.st24{fill:#55B004;}
	.st25{fill:#44A102;}
	.st26{opacity:0.39;fill:#3A7209;}
	.st27{fill:#323D3F;}
	.st28{fill:#3A474A;}
	.st29{fill:#1E2223;}
	.st30{fill:#508E0E;}
	.st31{fill:#2E6D05;}
	.st32{fill:#175608;}
</style>
<image style="overflow:visible;" width="408" height="376" xlink:href="943D8378.jpg"  transform="matrix(1 0 0 1 -1951.5106 195.7058)">
</image>
<polygon class="st0" points="-1713.7,624 -1650.8,639.3 -1650.8,683.7 -1714.6,695.2 "/>
<polygon class="st1" points="-1713.8,628 -1651.5,642.9 -1650.8,639.3 -1713.7,624 "/>
<image style="overflow:visible;" width="1380" height="690" xlink:href="943D8379.jpg"  transform="matrix(1 0 0 1 -3021.6809 -389.2091)">
</image>
<image style="overflow:visible;" width="170" height="128" xlink:href="943D837F.jpg"  transform="matrix(6.4401 0 0 6.4401 -3045.5532 635.8831)">
</image>
<image style="overflow:visible;" width="170" height="128" xlink:href="943D837A.jpg"  transform="matrix(6.4401 0 0 6.4401 364.4893 -947.6063)">
</image>
<g id="ek57ppnncy62_1_" class="st2">
	<path id="ek57ppnncy63_1_" class="st3" d="M-369.1,1002.1c-29.6-10.3-45.8-39.2-59.3-65.7c-21,3.9-39.1-14.3-48.2-32.3
		c-16.6-32.3-20.5-70.1-10.8-104.8c6.6-24.5,19.9-48,19.2-73.3c-0.9-25.2-15.6-48-31-68.8c-17.6-24-41.5-34.2-50.4-38.3
		c-23.2-10.7-44.3-13.4-57-14.2c7.8-2.1,15.5-4.2,23.3-6.3c20.3-6.4,37.3-7.6,50.1-6.9c26.1,1.2,39.8,9.1,51.5,1.4
		c8.9-5.7,11.9-16.8,10.8-26.7c-1-9.9-5.5-19.2-8.9-28.7c-15.6-43.8-8.7-94,18.4-132.7c6.6-9.5,14.9-18.6,25.9-23.5
		c11-4.9,25.5-4.3,34.2,3.8c8.7-41.8,39.5-84.2,85.1-90.6c27.6-3.8,57.2,7.3,74.3,27.9c17.1,20.6,20.7,49.9,9.4,73.6
		c54,14.9,98.3,59.8,103.9,111.7c5.6,51.7-31,106.2-85.4,120.2c20.1,10.4,48.4,27.6,60.2,56c12,28.4,6.4,82.9-8.2,110.3
		c-14.6,27.4-49.4,46.3-81.2,38.3c9.4,45.4,14.1,96.7-16.4,133.2c-11.7,13.9-27.8,24.5-45.4,31.5
		C-325.3,1005.5-348.6,1009.2-369.1,1002.1z"/>
	<path id="ek57ppnncy64_1_" class="st4" d="M-428.4,936.6c-21,3.9-39.1-14.3-48.2-32.3c-16.6-32.3-20.5-70.1-10.8-104.8
		c6.6-24.5,19.9-48,19.2-73.3c-0.9-25.2-15.6-48-31-68.8c-7.4-10.2-24.4-29.5-50.4-38.3c-5.9-2-14.9-4.3-20.2-5.7
		c-16-4.2-29.6-6.9-38.8-8.6c32.3-11.5,57.7-13.4,75.5-13c11.6,0.3,29.1,2,43.3-8.1c3.5-2.5,10.9-8.6,13.9-18.2
		c3.8-12.3-2-23.6-3.8-27.6c-18.6-40.5,0-106.4,18.4-132.7c6.6-9.5,14.9-18.6,25.9-23.5c11.1-4.8,25.5-4.3,34.2,3.8
		c7.4-36,31.3-72.3,66.9-85.9c-9.6,11.1-16.8,24-20.6,37.7c-7.8,28.7-0.7,60.6,18.9,84.1c-29.1-9-62.7,7.6-76.5,32.8
		c-13.8,25.3-10.4,56.4,2.5,82.1c5.3,10.6,12.3,20.9,13.8,32.5c1.5,11.6-4.7,25.3-17.1,27.8c-13.6,2.7-19.4,18.9-15.4,31.2
		s14.7,21.5,24.4,30.8c9.6,9.1,19.2,19.9,20.2,32.7c1,13.8-8.1,26.3-15.6,38.3c-11.5,18.2-20.3,37.9-25.9,58.4
		c-5,18.1-7.4,37.4-1,55.1c6.4,17.7,23.5,33,43.7,33.5c2.1-4,4.3-8,6.4-11.9c6.1,16.6,30.1,22.7,47.7,16.2s29.5-21.9,37.8-37.7
		c0.3,14.5,16.6,24,31.7,27.2c7.4,1.6,15.3,2.5,22.7,3.9c2.7,33.1-1.2,66.2-22.7,91.9c-11.7,13.9-27.8,24.5-45.4,31.5
		c-20.2,8.1-43.5,11.7-64.1,4.6C-399,991.8-415.1,963-428.4,936.6z"/>
	<path id="ek57ppnncy65_1_" class="st5" d="M-170.8,477.6c7,15.5,11.1,58.3-14.5,61.8c-8.6,1.2-16.4-5.1-20.6-12.1
		c-4-7-5.7-15.1-9.6-22.3c-4.3-7.8-11.3-14.3-19.8-18.2c-12.3-5.7-28.4-7.2-35.2-18.2c-5.2-8.7-1.7-20.5,6.4-27.1
		c8.1-6.6,19.4-8.9,30.2-8.5C-205,434.1-181.5,453.6-170.8,477.6z"/>
	<path id="ek57ppnncy66_1_" class="st5" d="M-178.8,767.5c-6.9,6.6-20.5,8.3-26.2,0.8c-5.1-6.6-1.6-15.6,0.9-23.5
		c3.4-10.6,4.7-21.8,3.9-32.7c-0.4-5.1-1.3-10.2-0.1-15.1c1.2-5,4.8-9.9,10.2-10.8c7.4-1.4,13.9,5.1,17.2,11.3
		C-163.9,714.7-163.5,752.7-178.8,767.5z"/>
</g>
<g id="ek57ppnncy67_1_" class="st2">
	<path id="ek57ppnncy68_1_" class="st3" d="M-376.6,933.4c-23.6-8.2-36.4-31.2-47.2-52.3c-16.7,3.1-31.1-11.4-38.4-25.7
		c-13.2-25.7-16.3-55.8-8.6-83.4c5.3-19.5,15.9-38.2,15.3-58.3c-0.7-20-12.5-38.2-24.7-54.8c-14-19.1-33-27.2-40.2-30.5
		c-18.5-8.5-35.3-10.7-45.3-11.3c6.2-1.7,12.3-3.3,18.6-5c16.2-5.1,29.7-6,39.8-5.5c20.8,0.9,31.6,7.3,41,1.1
		c7.1-4.6,9.4-13.4,8.6-21.3c-0.8-7.9-4.4-15.3-7.1-22.8c-12.5-34.9-7-74.8,14.6-105.6c5.3-7.6,11.8-14.8,20.6-18.7
		c8.8-3.8,20.3-3.4,27.2,3c7-33.3,31.4-67,67.8-72.1c22-3,45.6,5.8,59.1,22.2c13.6,16.4,16.5,39.7,7.5,58.6
		c43,11.8,78.2,47.6,82.7,88.9c4.5,41.2-24.7,84.6-68,95.7c16,8.3,38.5,22,47.9,44.6c9.5,22.6,5.1,66-6.5,87.8
		c-11.6,21.8-39.3,36.8-64.6,30.5c7.5,36.1,11.2,77-13.1,106c-9.3,11.1-22.1,19.5-36.1,25.1C-341.8,936.1-360.4,939-376.6,933.4z"/>
	<path id="ek57ppnncy69_1_" class="st4" d="M-423.9,881.2c-16.7,3.1-31.1-11.4-38.4-25.7c-13.2-25.7-16.3-55.8-8.6-83.4
		c5.3-19.5,15.9-38.2,15.3-58.3c-0.7-20-12.5-38.2-24.7-54.8c-5.9-8.1-19.4-23.4-40.2-30.5c-4.7-1.6-11.8-3.4-16.1-4.6
		c-12.8-3.3-23.6-5.5-30.9-6.8c25.7-9.1,46-10.7,60.1-10.4c9.2,0.2,23.1,1.6,34.4-6.4c2.8-2,8.7-6.8,11.1-14.5c3-9.8-1.6-18.8-3-22
		c-14.8-32.3,0-84.7,14.6-105.6c5.3-7.6,11.8-14.8,20.6-18.7c8.8-3.8,20.3-3.4,27.2,3c5.9-28.6,24.9-57.6,53.2-68.4
		c-7.7,8.8-13.4,19.1-16.4,30c-6.2,22.8-0.5,48.2,15,66.9c-23.1-7.2-49.9,6-60.9,26.1c-11,20.1-8.3,44.9,2,65.4
		c4.3,8.4,9.8,16.6,11,25.8c1.2,9.2-3.7,20.1-13.6,22.1c-10.8,2.2-15.5,15-12.2,24.8c3.2,9.8,11.7,17.1,19.4,24.5
		c7.7,7.3,15.3,15.9,16.1,26c0.8,11-6.4,21-12.5,30.5c-9.1,14.5-16.2,30.2-20.6,46.5c-3.9,14.4-5.9,29.8-0.8,43.9
		c5.1,14.1,18.7,26.3,34.8,26.7c1.7-3.2,3.4-6.3,5.1-9.4c4.9,13.2,24,18.1,38,12.9s23.4-17.4,30.1-30c0.2,11.5,13.2,19.1,25.2,21.7
		c5.9,1.2,12.1,2,18.1,3.1c2.2,26.4-0.9,52.7-18.1,73.2c-9.3,11.1-22.1,19.5-36.1,25.1c-16.1,6.4-34.7,9.3-51,3.6
		C-400.4,925.2-413.3,902.2-423.9,881.2z"/>
	<path id="ek57ppnncy610_1_" class="st5" d="M-218.8,515.8c5.6,12.3,8.8,46.4-11.5,49.2c-6.8,0.9-13.1-4-16.4-9.6
		c-3.2-5.6-4.6-12-7.7-17.7c-3.4-6.2-9-11.4-15.8-14.5c-9.8-4.6-22.6-5.7-28-14.5c-4.2-7-1.3-16.3,5.1-21.6
		c6.4-5.3,15.5-7.1,24.1-6.7C-246,481.2-227.3,496.7-218.8,515.8z"/>
	<path id="ek57ppnncy611_1_" class="st5" d="M-225.2,746.6c-5.5,5.3-16.3,6.6-20.9,0.6c-4-5.3-1.2-12.5,0.7-18.7
		c2.7-8.4,3.7-17.3,3.1-26c-0.3-4-1-8.1-0.1-12c0.9-3.9,3.8-7.9,8.1-8.6c5.9-1.1,11.1,4,13.7,9C-213.3,704.6-213,734.8-225.2,746.6z
		"/>
</g>
<g id="ek57ppnncy612_1_" class="st2">
	<path id="ek57ppnncy613_1_" class="st3" d="M-431.6,838.9c-16.6-5.8-25.7-22.1-33.4-37c-11.8,2.2-22-8.1-27.1-18.2
		c-9.3-18.2-11.5-39.5-6.1-59c3.7-13.8,11.2-27,10.8-41.2c-0.5-14.2-8.8-27-17.5-38.7c-9.9-13.5-23.3-19.2-28.4-21.6
		c-13.1-6-24.9-7.6-32.1-8c4.4-1.2,8.7-2.3,13.1-3.5c11.4-3.6,21-4.3,28.2-3.9c14.7,0.7,22.4,5.1,29,0.8c5-3.2,6.7-9.5,6.1-15
		c-0.6-5.5-3.1-10.8-5-16.1c-8.8-24.6-4.9-52.9,10.3-74.7c3.7-5.4,8.4-10.5,14.6-13.2c6.2-2.7,14.4-2.4,19.2,2.1
		c4.9-23.5,22.2-47.4,47.9-51c15.5-2.1,32.2,4.1,41.8,15.7s11.7,28.1,5.3,41.4c30.4,8.4,55.3,33.7,58.5,62.9
		c3.2,29.1-17.5,59.8-48,67.6c11.3,5.9,27.2,15.5,33.9,31.5c6.7,16,3.6,46.6-4.6,62.1c-8.2,15.5-27.8,26-45.7,21.6
		c5.3,25.5,7.9,54.4-9.2,75c-6.6,7.8-15.6,13.8-25.5,17.7C-407,840.8-420.1,842.9-431.6,838.9z"/>
	<path id="ek57ppnncy614_1_" class="st4" d="M-465,802c-11.8,2.2-22-8.1-27.1-18.2c-9.3-18.2-11.5-39.5-6.1-59
		c3.7-13.8,11.2-27,10.8-41.2c-0.5-14.2-8.8-27-17.5-38.7c-4.2-5.7-13.7-16.6-28.4-21.6c-3.3-1.1-8.4-2.4-11.4-3.2
		c-9-2.3-16.6-3.9-21.9-4.8c18.2-6.5,32.5-7.6,42.5-7.3c6.5,0.1,16.4,1.1,24.4-4.5c2-1.4,6.2-4.8,7.8-10.3
		c2.1-6.9-1.1-13.3-2.1-15.5c-10.5-22.8,0-59.9,10.3-74.7c3.7-5.4,8.4-10.5,14.6-13.2c6.2-2.7,14.4-2.4,19.2,2.1
		c4.2-20.2,17.6-40.7,37.6-48.3c-5.4,6.2-9.5,13.5-11.6,21.2c-4.4,16.1-0.4,34.1,10.6,47.3c-16.4-5.1-35.3,4.3-43.1,18.5
		c-7.8,14.2-5.9,31.8,1.4,46.2c3,5.9,6.9,11.7,7.8,18.3c0.9,6.5-2.6,14.2-9.6,15.6c-7.6,1.5-10.9,10.6-8.7,17.5
		c2.3,6.9,8.3,12.1,13.7,17.3c5.4,5.1,10.8,11.2,11.4,18.4c0.6,7.8-4.5,14.8-8.8,21.6c-6.5,10.3-11.4,21.3-14.6,32.9
		c-2.8,10.2-4.2,21.1-0.6,31c3.6,10,13.2,18.6,24.6,18.9c1.2-2.3,2.4-4.5,3.6-6.7c3.4,9.3,16.9,12.8,26.8,9.1
		c9.9-3.7,16.6-12.3,21.3-21.2c0.1,8.1,9.3,13.5,17.8,15.3c4.2,0.9,8.6,1.4,12.8,2.2c1.5,18.6-0.7,37.3-12.8,51.7
		c-6.6,7.8-15.6,13.8-25.5,17.7c-11.4,4.5-24.5,6.6-36.1,2.6C-448.4,833.1-457.5,816.9-465,802z"/>
	<path id="ek57ppnncy615_1_" class="st5" d="M-320.1,543.8c4,8.7,6.2,32.8-8.1,34.8c-4.8,0.7-9.2-2.9-11.6-6.8
		c-2.3-4-3.2-8.5-5.4-12.5c-2.4-4.4-6.4-8.1-11.1-10.3c-6.9-3.2-16-4-19.8-10.3c-2.9-4.9-1-11.5,3.6-15.3c4.5-3.7,10.9-5,17-4.8
		C-339.3,519.3-326.1,530.3-320.1,543.8z"/>
	<path id="ek57ppnncy616_1_" class="st5" d="M-324.6,706.9c-3.9,3.7-11.5,4.7-14.7,0.4c-2.9-3.7-0.9-8.8,0.5-13.2
		c1.9-5.9,2.6-12.2,2.2-18.4c-0.2-2.9-0.7-5.7-0.1-8.5c0.7-2.8,2.7-5.6,5.7-6.1c4.2-0.8,7.8,2.9,9.7,6.4
		C-316.2,677.2-316,698.5-324.6,706.9z"/>
</g>
<g id="ek57ppnncy617_1_" class="st2">
	<path id="ek57ppnncy618_1_" class="st3" d="M-460.7,766.1c-11.3-3.9-17.5-15-22.7-25.1c-8,1.5-14.9-5.5-18.4-12.3
		c-6.3-12.3-7.8-26.8-4.1-40c2.5-9.4,7.6-18.3,7.3-28c-0.3-9.6-6-18.3-11.9-26.3c-6.7-9.2-15.8-13-19.3-14.6
		c-8.9-4.1-16.9-5.1-21.8-5.4c3-0.8,5.9-1.6,8.9-2.4c7.8-2.4,14.2-2.9,19.1-2.6c10,0.4,15.2,3.5,19.7,0.5c3.4-2.2,4.5-6.4,4.1-10.2
		s-2.1-7.3-3.4-11c-6-16.7-3.3-35.9,7-50.7c2.5-3.6,5.7-7.1,9.9-9c4.2-1.8,9.8-1.6,13,1.4c3.3-16,15.1-32.2,32.5-34.6
		c10.6-1.4,21.9,2.8,28.4,10.7c6.5,7.9,7.9,19.1,3.6,28.1c20.6,5.7,37.5,22.9,39.7,42.7c2.1,19.8-11.9,40.6-32.6,45.9
		c7.7,4,18.5,10.6,23,21.4c4.6,10.9,2.4,31.7-3.1,42.1c-5.6,10.5-18.9,17.7-31,14.6c3.6,17.3,5.4,36.9-6.3,50.9
		c-4.5,5.3-10.6,9.4-17.3,12C-443.9,767.4-452.8,768.8-460.7,766.1z"/>
	<path id="ek57ppnncy619_1_" class="st4" d="M-483.3,741.1c-8,1.5-14.9-5.5-18.4-12.3c-6.3-12.3-7.8-26.8-4.1-40
		c2.5-9.4,7.6-18.3,7.3-28c-0.3-9.6-6-18.3-11.9-26.3c-2.8-3.9-9.3-11.3-19.3-14.6c-2.2-0.7-5.7-1.6-7.7-2.2
		c-6.1-1.6-11.3-2.6-14.8-3.3c12.3-4.4,22.1-5.1,28.8-5c4.4,0.1,11.1,0.7,16.5-3.1c1.3-0.9,4.2-3.3,5.3-7c1.4-4.7-0.7-9-1.4-10.6
		c-7.1-15.5,0-40.6,7-50.7c2.5-3.6,5.7-7.1,9.9-9c4.2-1.8,9.8-1.6,13,1.4c2.8-13.7,12-27.6,25.5-32.8c-3.7,4.2-6.4,9.2-7.9,14.4
		c-3,11-0.2,23.2,7.2,32.1c-11.1-3.4-24,2.9-29.2,12.5c-5.2,9.6-4,21.6,0.9,31.4c2,4,4.7,8,5.3,12.4s-1.8,9.7-6.5,10.6
		c-5.2,1-7.4,7.2-5.9,11.9s5.6,8.2,9.3,11.8c3.7,3.5,7.3,7.6,7.7,12.5c0.4,5.3-3.1,10.1-6,14.6c-4.4,7-7.8,14.5-9.9,22.3
		c-1.9,6.9-2.8,14.3-0.4,21.1s9,12.6,16.7,12.8c0.8-1.5,1.6-3,2.4-4.5c2.3,6.3,11.5,8.7,18.2,6.2c6.7-2.5,11.3-8.4,14.4-14.4
		c0.1,5.5,6.3,9.2,12.1,10.4c2.8,0.6,5.8,0.9,8.7,1.5c1,12.6-0.4,25.3-8.7,35.1c-4.5,5.3-10.6,9.4-17.3,12
		c-7.7,3.1-16.6,4.5-24.5,1.7C-472.1,762.2-478.2,751.2-483.3,741.1z"/>
	<path id="ek57ppnncy620_1_" class="st5" d="M-384.9,565.8c2.7,5.9,4.2,22.3-5.5,23.6c-3.3,0.4-6.3-1.9-7.9-4.6
		c-1.5-2.7-2.2-5.8-3.7-8.5c-1.6-3-4.3-5.5-7.6-7c-4.7-2.2-10.9-2.7-13.4-7c-2-3.3-0.6-7.8,2.4-10.4c3.1-2.5,7.4-3.4,11.6-3.2
		C-398,549.1-389,556.6-384.9,565.8z"/>
	<path id="ek57ppnncy621_1_" class="st5" d="M-388,676.5c-2.6,2.5-7.8,3.2-10,0.3c-1.9-2.5-0.6-6,0.3-9c1.3-4,1.8-8.3,1.5-12.5
		c-0.1-1.9-0.5-3.9,0-5.8c0.5-1.9,1.8-3.8,3.9-4.1c2.8-0.5,5.3,1.9,6.6,4.3C-382.3,656.3-382.1,670.8-388,676.5z"/>
</g>
<g id="ek57ppnncy622_1_" class="st2">
	<path id="ek57ppnncy623_1_" class="st3" d="M-484.5,697.8c-6-2.1-9.2-7.9-11.9-13.2c-4.2,0.8-7.9-2.9-9.7-6.5
		c-3.3-6.5-4.1-14.1-2.2-21.1c1.3-4.9,4-9.7,3.9-14.7c-0.2-5.1-3.1-9.7-6.2-13.9c-3.5-4.8-8.3-6.9-10.2-7.7
		c-4.7-2.2-8.9-2.7-11.5-2.9c1.6-0.4,3.1-0.8,4.7-1.3c4.1-1.3,7.5-1.5,10.1-1.4c5.2,0.2,8,1.8,10.4,0.3c1.8-1.2,2.4-3.4,2.2-5.4
		c-0.2-2-1.1-3.9-1.8-5.8c-3.1-8.8-1.8-18.9,3.7-26.7c1.3-1.9,3-3.8,5.2-4.7c2.2-1,5.1-0.9,6.9,0.8c1.8-8.4,7.9-16.9,17.1-18.2
		c5.6-0.8,11.5,1.5,15,5.6s4.2,10,1.9,14.8c10.9,3,19.8,12,20.9,22.5c1.1,10.4-6.2,21.4-17.2,24.2c4,2.1,9.7,5.6,12.1,11.3
		s1.3,16.7-1.7,22.2c-2.9,5.5-9.9,9.3-16.3,7.7c1.9,9.1,2.8,19.5-3.3,26.8c-2.4,2.8-5.6,4.9-9.1,6.3
		C-475.7,698.5-480.4,699.3-484.5,697.8z"/>
	<path id="ek57ppnncy624_1_" class="st4" d="M-496.5,684.6c-4.2,0.8-7.9-2.9-9.7-6.5c-3.3-6.5-4.1-14.1-2.2-21.1
		c1.3-4.9,4-9.7,3.9-14.7c-0.2-5.1-3.1-9.7-6.2-13.9c-1.5-2-4.9-5.9-10.2-7.7c-1.2-0.4-3-0.9-4.1-1.2c-3.2-0.8-6-1.4-7.8-1.7
		c6.5-2.3,11.6-2.7,15.2-2.6c2.3,0.1,5.9,0.4,8.7-1.6c0.7-0.5,2.2-1.7,2.8-3.7c0.8-2.5-0.4-4.7-0.8-5.6c-3.8-8.2,0-21.4,3.7-26.7
		c1.3-1.9,3-3.8,5.2-4.7c2.2-1,5.1-0.9,6.9,0.8c1.5-7.2,6.3-14.6,13.5-17.3c-1.9,2.2-3.4,4.8-4.1,7.6c-1.6,5.8-0.1,12.2,3.8,16.9
		c-5.9-1.8-12.6,1.5-15.4,6.6c-2.8,5.1-2.1,11.4,0.5,16.5c1.1,2.1,2.5,4.2,2.8,6.5c0.3,2.3-0.9,5.1-3.4,5.6
		c-2.7,0.6-3.9,3.8-3.1,6.3c0.8,2.5,3,4.3,4.9,6.2c1.9,1.8,3.9,4,4.1,6.6c0.2,2.8-1.6,5.3-3.1,7.7c-2.3,3.7-4.1,7.6-5.2,11.8
		c-1,3.6-1.5,7.5-0.2,11.1c1.3,3.6,4.7,6.6,8.8,6.7c0.4-0.8,0.9-1.6,1.3-2.4c1.2,3.3,6.1,4.6,9.6,3.3c3.5-1.3,5.9-4.4,7.6-7.6
		c0.1,2.9,3.3,4.8,6.4,5.5c1.5,0.3,3.1,0.5,4.6,0.8c0.6,6.7-0.2,13.3-4.6,18.5c-2.4,2.8-5.6,4.9-9.1,6.3c-4.1,1.6-8.8,2.4-12.9,0.9
		C-490.5,695.8-493.8,690-496.5,684.6z"/>
	<path id="ek57ppnncy625_1_" class="st5" d="M-444.6,592.3c1.4,3.1,2.2,11.7-2.9,12.4c-1.7,0.2-3.3-1-4.1-2.4
		c-0.8-1.4-1.2-3-1.9-4.5c-0.9-1.6-2.3-2.9-4-3.7c-2.5-1.2-5.7-1.4-7.1-3.7c-1-1.8-0.3-4.1,1.3-5.5c1.6-1.4,3.9-1.8,6.1-1.7
		C-451.5,583.5-446.8,587.4-444.6,592.3z"/>
	<path id="ek57ppnncy626_1_" class="st5" d="M-446.2,650.6c-1.4,1.3-4.1,1.7-5.3,0.2c-1-1.3-0.3-3.1,0.2-4.7
		c0.7-2.1,0.9-4.4,0.8-6.6c-0.1-1-0.3-2,0-3c0.2-1,1-2,2-2.2c1.5-0.3,2.8,1,3.5,2.3C-443.2,640-443.2,647.6-446.2,650.6z"/>
</g>
<g id="ek57ppnncy627_1_" class="st2">
	<path id="ek57ppnncy628_1_" class="st3" d="M-1365.3,997.4c-17.6-7-33.6-17.6-45.4-31.5c-30.5-36.5-25.8-87.9-16.4-133.2
		c-31.8,8-66.6-10.9-81.2-38.3c-14.6-27.4-20.2-81.9-8.2-110.3c11.9-28.4,40.1-45.6,60.2-56c-54.4-13.9-91-68.4-85.4-120.2
		c5.6-51.9,49.9-96.9,103.9-111.7c-11.3-23.7-7.7-53.1,9.4-73.6s46.7-31.7,74.3-27.9c45.6,6.4,76.4,48.8,85.1,90.6
		c8.6-8.1,23.1-8.6,34.2-3.8c11.1,4.8,19.3,13.9,25.9,23.5c27.1,38.7,34,88.9,18.4,132.7c-3.4,9.5-7.8,18.8-8.9,28.7
		c-1,9.9,2,21,10.8,26.7c11.7,7.7,25.4-0.3,51.5-1.4c12.8-0.7,29.7,0.5,50.1,6.9c7.8,2.1,15.5,4.2,23.3,6.3
		c-12.6,0.8-33.8,3.5-57,14.2c-9,4.2-32.8,14.3-50.4,38.3c-15.4,20.9-30.1,43.7-31,68.8c-0.8,25.3,12.5,48.8,19.2,73.3
		c9.6,34.7,5.7,72.5-10.8,104.8c-9.1,18-27.2,36.2-48.2,32.3c-13.6,26.5-29.7,55.4-59.3,65.7
		C-1321.8,1009.2-1345.1,1005.5-1365.3,997.4z"/>
	<path id="ek57ppnncy629_1_" class="st4" d="M-1301.2,1002.1c-20.6,7.2-43.9,3.5-64.1-4.6c-17.6-7-33.6-17.6-45.4-31.5
		c-21.5-25.7-25.4-58.8-22.7-91.9c7.4-1.4,15.3-2.3,22.7-3.9c15.1-3.3,31.4-12.8,31.7-27.2c8.3,15.8,20.2,31.2,37.8,37.7
		c17.6,6.5,41.6,0.4,47.7-16.2c2.1,3.9,4.3,7.8,6.4,11.9c20.2-0.5,37.3-15.8,43.7-33.5c6.4-17.7,3.9-37-1-55.1
		c-5.6-20.5-14.5-40.1-25.9-58.4c-7.6-12-16.7-24.5-15.6-38.3c1-12.8,10.6-23.6,20.2-32.7c9.6-9.3,20.3-18.5,24.4-30.8
		c4-12.3-1.8-28.4-15.4-31.2c-12.4-2.5-18.6-16.2-17.1-27.8c1.5-11.6,8.5-21.9,13.8-32.5c12.9-25.7,16.3-56.8,2.5-82.1
		s-47.4-41.8-76.5-32.8c19.6-23.5,26.7-55.4,18.9-84.1c-3.8-13.7-10.9-26.6-20.6-37.7c35.6,13.6,59.4,49.9,66.9,85.9
		c8.6-8.1,23.1-8.6,34.2-3.8s19.3,13.9,25.9,23.5c18.4,26.3,37,92.2,18.4,132.7c-1.8,4-7.6,15.4-3.8,27.6c3,9.6,10.4,15.8,13.9,18.2
		c14.2,10,31.7,8.3,43.3,8.1c17.7-0.4,43.1,1.6,75.5,13c-9.3,1.7-22.8,4.4-38.8,8.6c-5.3,1.4-14.3,3.8-20.2,5.7
		c-26.1,8.9-43,28.2-50.4,38.3c-15.4,20.9-30.1,43.7-31,68.8c-0.8,25.3,12.5,48.8,19.2,73.3c9.6,34.7,5.7,72.5-10.8,104.8
		c-9.1,18-27.2,36.2-48.2,32.3C-1255.3,963-1271.5,991.8-1301.2,1002.1z"/>
	<path id="ek57ppnncy630_1_" class="st5" d="M-1436.5,432.9c10.8-0.4,22.2,1.8,30.2,8.5c8.1,6.6,11.6,18.4,6.4,27.1
		c-6.8,11.1-22.9,12.5-35.2,18.2c-8.5,3.9-15.5,10.4-19.8,18.2c-3.9,7.2-5.6,15.3-9.6,22.3c-4.2,7-12,13.3-20.6,12.1
		c-25.5-3.5-21.5-46.3-14.5-61.8C-1488.9,453.6-1465.4,434.1-1436.5,432.9z"/>
	<path id="ek57ppnncy631_1_" class="st5" d="M-1497.5,697.5c3.3-6.3,9.8-12.8,17.2-11.3c5.3,0.9,9,5.9,10.2,10.8
		c1.2,5,0.3,10-0.1,15.1c-0.8,10.9,0.5,22.2,3.9,32.7c2.5,7.8,6,16.8,0.9,23.5c-5.7,7.6-19.3,5.9-26.2-0.8
		C-1506.9,752.7-1506.5,714.7-1497.5,697.5z"/>
</g>
<g id="ek57ppnncy632_1_" class="st2">
	<path id="ek57ppnncy633_1_" class="st3" d="M-1344.7,929.6c-14-5.6-26.8-14-36.1-25.1c-24.3-29.1-20.5-69.9-13.1-106
		c-25.3,6.3-53-8.7-64.6-30.5s-16.1-65.2-6.5-87.8c9.4-22.6,32-36.3,47.9-44.6c-43.3-11.1-72.4-54.5-68-95.7
		c4.5-41.3,39.7-77.1,82.7-88.9c-9-18.9-6.1-42.2,7.5-58.6s37.1-25.2,59.1-22.2c36.3,5.1,60.8,38.8,67.8,72.1
		c6.8-6.4,18.4-6.8,27.2-3c8.8,3.8,15.4,11.1,20.6,18.7c21.6,30.8,27.1,70.8,14.6,105.6c-2.7,7.6-6.2,14.9-7.1,22.8
		c-0.8,7.9,1.6,16.7,8.6,21.3c9.3,6.1,20.2-0.2,41-1.1c10.2-0.5,23.7,0.4,39.8,5.5c6.2,1.7,12.3,3.3,18.6,5
		c-10.1,0.6-26.9,2.8-45.3,11.3c-7.2,3.3-26.1,11.4-40.2,30.5c-12.2,16.6-24,34.8-24.7,54.8c-0.6,20.1,10,38.8,15.3,58.3
		c7.7,27.6,4.6,57.7-8.6,83.4c-7.3,14.3-21.7,28.8-38.4,25.7c-10.8,21.1-23.7,44.1-47.2,52.3C-1310.1,939-1328.7,936.1-1344.7,929.6
		z"/>
	<path id="ek57ppnncy634_1_" class="st4" d="M-1293.7,933.4c-16.4,5.7-35,2.8-51-3.6c-14-5.6-26.8-14-36.1-25.1
		c-17.1-20.4-20.2-46.8-18.1-73.2c5.9-1.1,12.1-1.9,18.1-3.1c12-2.6,25-10.2,25.2-21.7c6.6,12.6,16.1,24.8,30.1,30s33.1,0.3,38-12.9
		c1.7,3.1,3.4,6.2,5.1,9.4c16.1-0.4,29.7-12.6,34.8-26.7s3.1-29.5-0.8-43.9c-4.5-16.3-11.5-32-20.6-46.5c-6-9.5-13.3-19.5-12.5-30.5
		c0.8-10.2,8.4-18.8,16.1-26c7.7-7.4,16.2-14.7,19.4-24.5c3.2-9.8-1.5-22.6-12.2-24.8c-9.9-2-14.8-12.9-13.6-22.1
		c1.2-9.2,6.7-17.4,11-25.8c10.3-20.4,13-45.2,2-65.4c-11-20.2-37.8-33.3-60.9-26.1c15.6-18.7,21.3-44.1,15-66.9
		c-3-10.9-8.7-21.2-16.4-30c28.3,10.8,47.3,39.7,53.2,68.4c6.8-6.4,18.4-6.8,27.2-3c8.8,3.8,15.4,11.1,20.6,18.7
		c14.6,21,29.5,73.4,14.6,105.6c-1.5,3.2-6,12.2-3,22c2.4,7.7,8.3,12.6,11.1,14.5c11.3,8,25.2,6.6,34.4,6.4
		c14.1-0.3,34.3,1.2,60.1,10.4c-7.4,1.3-18.2,3.5-30.9,6.8c-4.3,1.1-11.4,3-16.1,4.6c-20.8,7.1-34.2,22.4-40.2,30.5
		c-12.2,16.6-24,34.8-24.7,54.8c-0.6,20.1,10,38.8,15.3,58.3c7.7,27.6,4.6,57.7-8.6,83.4c-7.3,14.3-21.7,28.8-38.4,25.7
		C-1257.2,902.2-1270,925.2-1293.7,933.4z"/>
	<path id="ek57ppnncy635_1_" class="st5" d="M-1401.4,480.2c8.6-0.3,17.6,1.5,24.1,6.7c6.5,5.2,9.2,14.6,5.1,21.6
		c-5.4,8.8-18.3,10-28,14.5c-6.7,3.1-12.3,8.3-15.8,14.5c-3.1,5.7-4.5,12.1-7.7,17.7c-3.3,5.6-9.5,10.6-16.4,9.6
		c-20.3-2.8-17.1-36.8-11.5-49.2C-1443.1,496.7-1424.4,481.2-1401.4,480.2z"/>
	<path id="ek57ppnncy636_1_" class="st5" d="M-1450,690.9c2.6-5,7.8-10.2,13.7-9c4.3,0.7,7.2,4.7,8.1,8.6c0.9,3.9,0.2,8-0.1,12
		c-0.6,8.7,0.4,17.6,3.1,26c2,6.2,4.8,13.4,0.7,18.7c-4.6,6-15.4,4.7-20.9-0.6C-1457.4,734.8-1457.1,704.6-1450,690.9z"/>
</g>
<g id="ek57ppnncy637_1_" class="st2">
	<path id="ek57ppnncy638_1_" class="st3" d="M-1274.8,836.3c-9.9-4-18.9-9.9-25.5-17.7c-17.2-20.5-14.5-49.4-9.2-75
		c-17.9,4.5-37.5-6.2-45.7-21.6c-8.2-15.4-11.4-46.1-4.6-62.1c6.7-16,22.6-25.7,33.9-31.5c-30.6-7.8-51.2-38.5-48-67.6
		c3.2-29.2,28.1-54.5,58.5-62.9c-6.4-13.3-4.3-29.9,5.3-41.4c9.6-11.6,26.3-17.8,41.8-15.7c25.7,3.6,43,27.4,47.9,51
		c4.8-4.5,13-4.8,19.2-2.1c6.2,2.7,10.9,7.8,14.6,13.2c15.3,21.8,19.1,50,10.3,74.7c-1.9,5.4-4.4,10.6-5,16.1
		c-0.6,5.6,1.1,11.8,6.1,15c6.6,4.3,14.3-0.1,29-0.8c7.2-0.4,16.7,0.3,28.2,3.9c4.4,1.2,8.7,2.3,13.1,3.5c-7.1,0.4-19,2-32.1,8
		c-5.1,2.3-18.5,8.1-28.4,21.6c-8.7,11.7-16.9,24.6-17.5,38.7c-0.4,14.2,7,27.4,10.8,41.2c5.4,19.5,3.2,40.8-6.1,59
		c-5.1,10.1-15.3,20.4-27.1,18.2c-7.6,14.9-16.7,31.2-33.4,37C-1250.3,842.9-1263.4,840.8-1274.8,836.3z"/>
	<path id="ek57ppnncy639_1_" class="st4" d="M-1238.7,838.9c-11.6,4-24.7,2-36.1-2.6c-9.9-4-18.9-9.9-25.5-17.7
		c-12.1-14.4-14.3-33.1-12.8-51.7c4.2-0.8,8.6-1.3,12.8-2.2c8.5-1.8,17.7-7.2,17.8-15.3c4.7,8.9,11.4,17.5,21.3,21.2
		c9.9,3.7,23.4,0.2,26.8-9.1c1.2,2.2,2.4,4.4,3.6,6.7c11.4-0.3,21-8.9,24.6-18.9c3.6-10,2.2-20.8-0.6-31
		c-3.2-11.5-8.1-22.6-14.6-32.9c-4.3-6.7-9.4-13.8-8.8-21.6c0.6-7.2,5.9-13.3,11.4-18.4c5.4-5.2,11.4-10.4,13.7-17.3
		c2.3-6.9-1-16-8.7-17.5c-7-1.4-10.5-9.1-9.6-15.6s4.8-12.3,7.8-18.3c7.3-14.4,9.2-32,1.4-46.2c-7.8-14.2-26.7-23.5-43.1-18.5
		c11-13.2,15-31.2,10.6-47.3c-2.1-7.7-6.2-15-11.6-21.2c20,7.6,33.4,28.1,37.6,48.3c4.8-4.5,13-4.8,19.2-2.1
		c6.2,2.7,10.9,7.8,14.6,13.2c10.3,14.8,20.8,51.9,10.3,74.7c-1,2.3-4.3,8.7-2.1,15.5c1.7,5.4,5.9,8.9,7.8,10.3
		c8,5.6,17.8,4.7,24.4,4.5c10-0.2,24.3,0.9,42.5,7.3c-5.2,1-12.8,2.5-21.9,4.8c-3,0.8-8.1,2.1-11.4,3.2c-14.7,5-24.2,15.8-28.4,21.6
		c-8.7,11.7-16.9,24.6-17.5,38.7c-0.4,14.2,7,27.4,10.8,41.2c5.4,19.5,3.2,40.8-6.1,59c-5.1,10.1-15.3,20.4-27.1,18.2
		C-1212.9,816.9-1222,833.1-1238.7,838.9z"/>
	<path id="ek57ppnncy640_1_" class="st5" d="M-1314.9,518.6c6.1-0.2,12.5,1,17,4.8c4.5,3.7,6.5,10.3,3.6,15.3
		c-3.8,6.2-12.9,7-19.8,10.3c-4.8,2.2-8.7,5.9-11.1,10.3c-2.2,4-3.2,8.6-5.4,12.5c-2.3,4-6.7,7.5-11.6,6.8c-14.4-2-12.1-26-8.1-34.8
		C-1344.3,530.3-1331.1,519.3-1314.9,518.6z"/>
	<path id="ek57ppnncy641_1_" class="st5" d="M-1349.2,667.5c1.8-3.5,5.5-7.2,9.7-6.4c3,0.5,5.1,3.3,5.7,6.1c0.6,2.8,0.1,5.6-0.1,8.5
		c-0.4,6.2,0.3,12.5,2.2,18.4c1.4,4.4,3.4,9.5,0.5,13.2c-3.2,4.3-10.9,3.3-14.7-0.4C-1354.5,698.5-1354.2,677.2-1349.2,667.5z"/>
</g>
<g id="ek57ppnncy642_1_" class="st2">
	<path id="ek57ppnncy643_1_" class="st3" d="M-1243.4,770.4c-6.7-2.7-12.8-6.7-17.3-12c-11.7-13.9-9.9-33.6-6.3-50.9
		c-12.1,3-25.4-4.2-31-14.6c-5.6-10.5-7.7-31.3-3.1-42.1c4.5-10.9,15.3-17.4,23-21.4c-20.8-5.3-34.8-26.1-32.6-45.9
		c2.1-19.8,19.1-37,39.7-42.7c-4.3-9.1-2.9-20.3,3.6-28.1c6.5-7.9,17.8-12.1,28.4-10.7c17.4,2.4,29.2,18.6,32.5,34.6
		c3.3-3.1,8.8-3.3,13-1.4c4.2,1.8,7.4,5.3,9.9,9c10.4,14.8,13,34,7,50.7c-1.3,3.6-3,7.2-3.4,11c-0.4,3.8,0.7,8,4.1,10.2
		c4.5,2.9,9.7-0.1,19.7-0.5c4.9-0.2,11.4,0.2,19.1,2.6c3,0.8,5.9,1.6,8.9,2.4c-4.8,0.3-12.9,1.3-21.8,5.4
		c-3.4,1.6-12.5,5.5-19.3,14.6c-5.9,8-11.5,16.7-11.9,26.3c-0.3,9.7,4.8,18.6,7.3,28c3.7,13.2,2.2,27.7-4.1,40
		c-3.5,6.9-10.4,13.8-18.4,12.3c-5.2,10.1-11.4,21.2-22.7,25.1C-1226.8,774.9-1235.7,773.5-1243.4,770.4z"/>
	<path id="ek57ppnncy644_1_" class="st4" d="M-1218.9,772.2c-7.9,2.7-16.8,1.3-24.5-1.7c-6.7-2.7-12.8-6.7-17.3-12
		c-8.2-9.8-9.7-22.5-8.7-35.1c2.8-0.5,5.8-0.9,8.7-1.5c5.8-1.2,12-4.9,12.1-10.4c3.2,6,7.7,11.9,14.4,14.4
		c6.7,2.5,15.9,0.1,18.2-6.2c0.8,1.5,1.6,3,2.4,4.5c7.7-0.2,14.2-6,16.7-12.8c2.4-6.8,1.5-14.1-0.4-21.1c-2.1-7.8-5.5-15.3-9.9-22.3
		c-2.9-4.6-6.4-9.4-6-14.6c0.4-4.9,4-9,7.7-12.5s7.8-7.1,9.3-11.8c1.5-4.7-0.7-10.9-5.9-11.9c-4.7-0.9-7.1-6.2-6.5-10.6
		c0.6-4.4,3.2-8.4,5.3-12.4c4.9-9.8,6.2-21.7,0.9-31.4c-5.3-9.7-18.1-16-29.2-12.5c7.5-9,10.2-21.2,7.2-32.1
		c-1.4-5.2-4.2-10.2-7.9-14.4c13.6,5.2,22.7,19.1,25.5,32.8c3.3-3.1,8.8-3.3,13-1.4c4.2,1.8,7.4,5.3,9.9,9c7,10.1,14.1,35.2,7,50.7
		c-0.7,1.5-2.9,5.9-1.4,10.6c1.1,3.7,4,6,5.3,7c5.4,3.8,12.1,3.2,16.5,3.1c6.8-0.1,16.5,0.6,28.8,5c-3.5,0.6-8.7,1.7-14.8,3.3
		c-2,0.5-5.5,1.4-7.7,2.2c-10,3.4-16.4,10.8-19.3,14.6c-5.9,8-11.5,16.7-11.9,26.3c-0.3,9.7,4.8,18.6,7.3,28
		c3.7,13.2,2.2,27.7-4.1,40c-3.5,6.9-10.4,13.8-18.4,12.3C-1201.4,757.3-1207.6,768.3-1218.9,772.2z"/>
	<path id="ek57ppnncy645_1_" class="st5" d="M-1270.6,554.8c4.1-0.1,8.5,0.7,11.6,3.2s4.4,7,2.4,10.4c-2.6,4.2-8.8,4.8-13.4,7
		c-3.2,1.5-5.9,4-7.6,7c-1.5,2.7-2.1,5.8-3.7,8.5c-1.6,2.7-4.6,5.1-7.9,4.6c-9.8-1.3-8.2-17.7-5.5-23.6
		C-1290.6,562.7-1281.7,555.2-1270.6,554.8z"/>
	<path id="ek57ppnncy646_1_" class="st5" d="M-1293.9,655.9c1.2-2.4,3.7-4.9,6.6-4.3c2,0.3,3.4,2.2,3.9,4.1c0.5,1.9,0.1,3.8,0,5.8
		c-0.3,4.2,0.2,8.5,1.5,12.5c0.9,3,2.3,6.4,0.3,9c-2.2,2.9-7.4,2.2-10-0.3C-1297.5,676.9-1297.4,662.4-1293.9,655.9z"/>
</g>
<g id="ek57ppnncy647_1_" class="st2">
	<path id="ek57ppnncy648_1_" class="st3" d="M-1198.8,696.9c-3.5-1.4-6.8-3.5-9.1-6.3c-6.1-7.3-5.2-17.7-3.3-26.8
		c-6.4,1.6-13.4-2.2-16.3-7.7s-4.1-16.5-1.7-22.2c2.4-5.7,8.1-9.2,12.1-11.3c-10.9-2.8-18.3-13.8-17.2-24.2
		c1.1-10.4,10-19.5,20.9-22.5c-2.3-4.8-1.5-10.7,1.9-14.8c3.4-4.1,9.4-6.4,15-5.6c9.2,1.3,15.4,9.8,17.1,18.2
		c1.7-1.6,4.6-1.7,6.9-0.8c2.2,1,3.9,2.8,5.2,4.7c5.5,7.8,6.8,17.9,3.7,26.7c-0.7,1.9-1.6,3.8-1.8,5.8c-0.2,2,0.4,4.2,2.2,5.4
		c2.4,1.5,5.1-0.1,10.4-0.3c2.6-0.1,6,0.1,10.1,1.4c1.6,0.4,3.1,0.8,4.7,1.3c-2.5,0.2-6.8,0.7-11.5,2.9c-1.8,0.8-6.6,2.9-10.2,7.7
		c-3.1,4.2-6.1,8.8-6.2,13.9c-0.2,5.1,2.5,9.8,3.9,14.7c1.9,7,1.2,14.6-2.2,21.1c-1.8,3.6-5.5,7.3-9.7,6.5
		c-2.7,5.3-6,11.2-11.9,13.2C-1190,699.3-1194.7,698.5-1198.8,696.9z"/>
	<path id="ek57ppnncy649_1_" class="st4" d="M-1185.9,697.8c-4.1,1.4-8.8,0.7-12.9-0.9c-3.5-1.4-6.8-3.5-9.1-6.3
		c-4.3-5.2-5.1-11.8-4.6-18.5c1.5-0.3,3.1-0.5,4.6-0.8c3-0.7,6.3-2.6,6.4-5.5c1.7,3.2,4.1,6.3,7.6,7.6c3.5,1.3,8.4,0.1,9.6-3.3
		c0.4,0.8,0.9,1.6,1.3,2.4c4.1-0.1,7.5-3.2,8.8-6.7c1.3-3.6,0.8-7.5-0.2-11.1c-1.1-4.1-2.9-8.1-5.2-11.8c-1.5-2.4-3.4-4.9-3.1-7.7
		c0.2-2.6,2.1-4.7,4.1-6.6c1.9-1.9,4.1-3.7,4.9-6.2c0.8-2.5-0.4-5.7-3.1-6.3c-2.5-0.5-3.8-3.3-3.4-5.6c0.3-2.3,1.7-4.4,2.8-6.5
		c2.6-5.2,3.3-11.4,0.5-16.5c-2.8-5.1-9.6-8.4-15.4-6.6c3.9-4.7,5.4-11.2,3.8-16.9c-0.8-2.8-2.2-5.4-4.1-7.6
		c7.2,2.7,12,10,13.5,17.3c1.7-1.6,4.6-1.7,6.9-0.8c2.2,1,3.9,2.8,5.2,4.7c3.7,5.3,7.5,18.5,3.7,26.7c-0.4,0.8-1.5,3.1-0.8,5.6
		c0.6,1.9,2.1,3.2,2.8,3.7c2.9,2,6.4,1.7,8.7,1.6c3.6-0.1,8.7,0.3,15.2,2.6c-1.9,0.3-4.6,0.9-7.8,1.7c-1.1,0.3-2.9,0.8-4.1,1.2
		c-5.2,1.8-8.7,5.7-10.2,7.7c-3.1,4.2-6.1,8.8-6.2,13.9c-0.2,5.1,2.5,9.8,3.9,14.7c1.9,7,1.2,14.6-2.2,21.1
		c-1.8,3.6-5.5,7.3-9.7,6.5C-1176.6,690-1179.9,695.8-1185.9,697.8z"/>
	<path id="ek57ppnncy650_1_" class="st5" d="M-1213.1,583.3c2.2-0.1,4.5,0.4,6.1,1.7s2.3,3.7,1.3,5.5c-1.4,2.2-4.6,2.5-7.1,3.7
		c-1.7,0.8-3.1,2.1-4,3.7c-0.8,1.4-1.1,3.1-1.9,4.5c-0.8,1.4-2.4,2.7-4.1,2.4c-5.1-0.7-4.3-9.3-2.9-12.4
		C-1223.7,587.4-1218.9,583.5-1213.1,583.3z"/>
	<path id="ek57ppnncy651_1_" class="st5" d="M-1225.4,636.5c0.7-1.3,2-2.6,3.5-2.3c1.1,0.2,1.8,1.2,2,2.2c0.2,1,0.1,2,0,3
		c-0.2,2.2,0.1,4.5,0.8,6.6c0.5,1.6,1.2,3.4,0.2,4.7c-1.2,1.5-3.9,1.2-5.3-0.2C-1227.3,647.6-1227.2,640-1225.4,636.5z"/>
</g>
<g id="ek57ppnncy67_2_" class="st2">
	<path id="ek57ppnncy68_2_" class="st3" d="M1237,1231.8c-23.6-8.2-36.4-31.2-47.2-52.3c-16.7,3.1-31.1-11.4-38.4-25.7
		c-13.2-25.7-16.3-55.8-8.6-83.4c5.3-19.5,15.9-38.2,15.3-58.3c-0.7-20-12.5-38.2-24.7-54.8c-14-19.1-33-27.2-40.2-30.5
		c-18.5-8.5-35.3-10.7-45.3-11.3c6.2-1.7,12.3-3.3,18.6-5c16.2-5.1,29.7-6,39.8-5.5c20.8,0.9,31.6,7.3,41,1.1
		c7.1-4.6,9.4-13.4,8.6-21.3c-0.8-7.9-4.4-15.3-7.1-22.8c-12.5-34.9-7-74.8,14.6-105.6c5.3-7.6,11.8-14.8,20.6-18.7
		c8.8-3.8,20.3-3.4,27.2,3c7-33.3,31.4-67,67.8-72.1c22-3,45.6,5.8,59.1,22.2c13.6,16.4,16.5,39.7,7.5,58.6
		c43,11.8,78.2,47.6,82.7,88.9c4.5,41.2-24.7,84.6-68,95.7c16,8.3,38.5,22,47.9,44.6c9.5,22.6,5.1,66-6.5,87.8
		c-11.6,21.8-39.3,36.8-64.6,30.5c7.5,36.1,11.2,77-13.1,106c-9.3,11.1-22.1,19.5-36.1,25.1
		C1271.8,1234.5,1253.2,1237.4,1237,1231.8z"/>
	<path id="ek57ppnncy69_2_" class="st4" d="M1189.7,1179.6c-16.7,3.1-31.1-11.4-38.4-25.7c-13.2-25.7-16.3-55.8-8.6-83.4
		c5.3-19.5,15.9-38.2,15.3-58.3c-0.7-20-12.5-38.2-24.7-54.8c-5.9-8.1-19.4-23.4-40.2-30.5c-4.7-1.6-11.8-3.4-16.1-4.6
		c-12.8-3.3-23.6-5.5-30.9-6.8c25.7-9.1,46-10.7,60.1-10.4c9.2,0.2,23.1,1.6,34.4-6.4c2.8-2,8.7-6.8,11.1-14.5c3-9.8-1.6-18.8-3-22
		c-14.8-32.3,0-84.7,14.6-105.6c5.3-7.6,11.8-14.8,20.6-18.7c8.8-3.8,20.3-3.4,27.2,3c5.9-28.6,24.9-57.6,53.2-68.4
		c-7.7,8.8-13.4,19.1-16.4,30c-6.2,22.8-0.5,48.2,15,66.9c-23.1-7.2-49.9,6-60.9,26.1c-11,20.1-8.3,44.9,2,65.4
		c4.3,8.4,9.8,16.6,11,25.8c1.2,9.2-3.7,20.1-13.6,22.1c-10.8,2.2-15.5,15-12.2,24.8c3.2,9.8,11.7,17.1,19.4,24.5
		c7.7,7.3,15.3,15.9,16.1,26c0.8,11-6.4,21-12.5,30.5c-9.1,14.5-16.2,30.2-20.6,46.5c-3.9,14.4-5.9,29.8-0.8,43.9
		c5.1,14.1,18.7,26.3,34.8,26.7c1.7-3.2,3.4-6.3,5.1-9.4c4.9,13.2,24,18.1,38,12.9c14-5.2,23.4-17.4,30.1-30
		c0.2,11.5,13.2,19.1,25.2,21.7c5.9,1.2,12.1,2,18.1,3.1c2.2,26.4-0.9,52.7-18.1,73.2c-9.3,11.1-22.1,19.5-36.1,25.1
		c-16.1,6.4-34.7,9.3-51,3.6C1213.2,1223.6,1200.3,1200.6,1189.7,1179.6z"/>
	<path id="ek57ppnncy610_2_" class="st5" d="M1394.8,814.2c5.6,12.3,8.8,46.4-11.5,49.2c-6.8,0.9-13.1-4-16.4-9.6
		c-3.2-5.6-4.6-12-7.7-17.7c-3.4-6.2-9-11.4-15.8-14.5c-9.8-4.6-22.6-5.7-28-14.5c-4.2-7-1.3-16.3,5.1-21.6s15.5-7.1,24.1-6.7
		C1367.6,779.6,1386.3,795.1,1394.8,814.2z"/>
	<path id="ek57ppnncy611_2_" class="st5" d="M1388.4,1045c-5.5,5.3-16.3,6.6-20.9,0.6c-4-5.3-1.2-12.5,0.7-18.7
		c2.7-8.4,3.7-17.3,3.1-26c-0.3-4-1-8.1-0.1-12c0.9-3.9,3.8-7.9,8.1-8.6c5.9-1.1,11.1,4,13.7,9
		C1400.3,1003,1400.6,1033.2,1388.4,1045z"/>
</g>
<g id="ek57ppnncy612_2_" class="st2">
	<path id="ek57ppnncy613_2_" class="st3" d="M1182,1137.3c-16.6-5.8-25.7-22.1-33.4-37c-11.8,2.2-22-8.1-27.1-18.2
		c-9.3-18.2-11.5-39.5-6.1-59c3.7-13.8,11.2-27,10.8-41.2c-0.5-14.2-8.8-27-17.5-38.7c-9.9-13.5-23.3-19.2-28.4-21.6
		c-13.1-6-24.9-7.6-32.1-8c4.4-1.2,8.7-2.3,13.1-3.5c11.4-3.6,21-4.3,28.2-3.9c14.7,0.7,22.4,5.1,29,0.8c5-3.2,6.7-9.5,6.1-15
		c-0.6-5.5-3.1-10.8-5-16.1c-8.8-24.6-4.9-52.9,10.3-74.7c3.7-5.4,8.4-10.5,14.6-13.2c6.2-2.7,14.4-2.4,19.2,2.1
		c4.9-23.5,22.2-47.4,47.9-51c15.5-2.1,32.2,4.1,41.8,15.7c9.6,11.6,11.7,28.1,5.3,41.4c30.4,8.4,55.3,33.7,58.5,62.9
		c3.2,29.1-17.5,59.8-48,67.6c11.3,5.9,27.2,15.5,33.9,31.5c6.7,16,3.6,46.6-4.6,62.1c-8.2,15.5-27.8,26-45.7,21.6
		c5.3,25.5,7.9,54.4-9.2,75c-6.6,7.8-15.6,13.8-25.5,17.7C1206.6,1139.2,1193.5,1141.3,1182,1137.3z"/>
	<path id="ek57ppnncy614_2_" class="st4" d="M1148.6,1100.4c-11.8,2.2-22-8.1-27.1-18.2c-9.3-18.2-11.5-39.5-6.1-59
		c3.7-13.8,11.2-27,10.8-41.2c-0.5-14.2-8.8-27-17.5-38.7c-4.2-5.7-13.7-16.6-28.4-21.6c-3.3-1.1-8.4-2.4-11.4-3.2
		c-9-2.3-16.6-3.9-21.9-4.8c18.2-6.5,32.5-7.6,42.5-7.3c6.5,0.1,16.4,1.1,24.4-4.5c2-1.4,6.2-4.8,7.8-10.3
		c2.1-6.9-1.1-13.3-2.1-15.5c-10.5-22.8,0-59.9,10.3-74.7c3.7-5.4,8.4-10.5,14.6-13.2c6.2-2.7,14.4-2.4,19.2,2.1
		c4.2-20.2,17.6-40.7,37.6-48.3c-5.4,6.2-9.5,13.5-11.6,21.2c-4.4,16.1-0.4,34.1,10.6,47.3c-16.4-5.1-35.3,4.3-43.1,18.5
		c-7.8,14.2-5.9,31.8,1.4,46.2c3,5.9,6.9,11.7,7.8,18.3c0.9,6.5-2.6,14.2-9.6,15.6c-7.6,1.5-10.9,10.6-8.7,17.5
		c2.3,6.9,8.3,12.1,13.7,17.3c5.4,5.1,10.8,11.2,11.4,18.4c0.6,7.8-4.5,14.8-8.8,21.6c-6.5,10.3-11.4,21.3-14.6,32.9
		c-2.8,10.2-4.2,21.1-0.6,31c3.6,10,13.2,18.6,24.6,18.9c1.2-2.3,2.4-4.5,3.6-6.7c3.4,9.3,16.9,12.8,26.8,9.1
		c9.9-3.7,16.6-12.3,21.3-21.2c0.1,8.1,9.3,13.5,17.8,15.3c4.2,0.9,8.6,1.4,12.8,2.2c1.5,18.6-0.7,37.3-12.8,51.7
		c-6.6,7.8-15.6,13.8-25.5,17.7c-11.4,4.5-24.5,6.6-36.1,2.6C1165.2,1131.5,1156.1,1115.3,1148.6,1100.4z"/>
	<path id="ek57ppnncy615_2_" class="st5" d="M1293.5,842.2c4,8.7,6.2,32.8-8.1,34.8c-4.8,0.7-9.2-2.9-11.6-6.8
		c-2.3-4-3.2-8.5-5.4-12.5c-2.4-4.4-6.4-8.1-11.1-10.3c-6.9-3.2-16-4-19.8-10.3c-2.9-4.9-1-11.5,3.6-15.3c4.5-3.7,10.9-5,17-4.8
		C1274.3,817.7,1287.5,828.7,1293.5,842.2z"/>
	<path id="ek57ppnncy616_2_" class="st5" d="M1289,1005.3c-3.9,3.7-11.5,4.7-14.7,0.4c-2.9-3.7-0.9-8.8,0.5-13.2
		c1.9-5.9,2.6-12.2,2.2-18.4c-0.2-2.9-0.7-5.7-0.1-8.5c0.7-2.8,2.7-5.6,5.7-6.1c4.2-0.8,7.8,2.9,9.7,6.4
		C1297.4,975.6,1297.6,996.9,1289,1005.3z"/>
</g>
<g id="ek57ppnncy617_2_" class="st2">
	<path id="ek57ppnncy618_2_" class="st3" d="M1153,1064.5c-11.3-3.9-17.5-15-22.7-25.1c-8,1.5-14.9-5.5-18.4-12.3
		c-6.3-12.3-7.8-26.8-4.1-40c2.5-9.4,7.6-18.3,7.3-28c-0.3-9.6-6-18.3-11.9-26.3c-6.7-9.2-15.8-13-19.3-14.6
		c-8.9-4.1-16.9-5.1-21.8-5.4c3-0.8,5.9-1.6,8.9-2.4c7.8-2.4,14.2-2.9,19.1-2.6c10,0.4,15.2,3.5,19.7,0.5c3.4-2.2,4.5-6.4,4.1-10.2
		s-2.1-7.3-3.4-11c-6-16.7-3.3-35.9,7-50.7c2.5-3.6,5.7-7.1,9.9-9c4.2-1.8,9.8-1.6,13,1.4c3.3-16,15.1-32.2,32.5-34.6
		c10.6-1.4,21.9,2.8,28.4,10.7c6.5,7.9,7.9,19.1,3.6,28.1c20.6,5.7,37.5,22.9,39.7,42.7c2.1,19.8-11.9,40.6-32.6,45.9
		c7.7,4,18.5,10.6,23,21.4c4.6,10.9,2.4,31.7-3.1,42.1c-5.6,10.5-18.9,17.7-31,14.6c3.6,17.3,5.4,36.9-6.3,50.9
		c-4.5,5.3-10.6,9.4-17.3,12C1169.8,1065.8,1160.9,1067.2,1153,1064.5z"/>
	<path id="ek57ppnncy619_2_" class="st4" d="M1130.4,1039.5c-8,1.5-14.9-5.5-18.4-12.3c-6.3-12.3-7.8-26.8-4.1-40
		c2.5-9.4,7.6-18.3,7.3-28c-0.3-9.6-6-18.3-11.9-26.3c-2.8-3.9-9.3-11.3-19.3-14.6c-2.2-0.7-5.7-1.6-7.7-2.2
		c-6.1-1.6-11.3-2.6-14.8-3.3c12.3-4.4,22.1-5.1,28.8-5c4.4,0.1,11.1,0.7,16.5-3.1c1.3-0.9,4.2-3.3,5.3-7c1.4-4.7-0.7-9-1.4-10.6
		c-7.1-15.5,0-40.6,7-50.7c2.5-3.6,5.7-7.1,9.9-9c4.2-1.8,9.8-1.6,13,1.4c2.8-13.7,12-27.6,25.5-32.8c-3.7,4.2-6.4,9.2-7.9,14.4
		c-3,11-0.2,23.2,7.2,32.1c-11.1-3.4-24,2.9-29.2,12.5c-5.2,9.6-4,21.6,0.9,31.4c2,4,4.7,8,5.3,12.4s-1.8,9.7-6.5,10.6
		c-5.2,1-7.4,7.2-5.9,11.9s5.6,8.2,9.3,11.8c3.7,3.5,7.3,7.6,7.7,12.5c0.4,5.3-3.1,10.1-6,14.6c-4.4,7-7.8,14.5-9.9,22.3
		c-1.9,6.9-2.8,14.3-0.4,21.1s9,12.6,16.7,12.8c0.8-1.5,1.6-3,2.4-4.5c2.3,6.3,11.5,8.7,18.2,6.2c6.7-2.5,11.3-8.4,14.4-14.4
		c0.1,5.5,6.3,9.2,12.1,10.4c2.8,0.6,5.8,0.9,8.7,1.5c1,12.6-0.4,25.3-8.7,35.1c-4.5,5.3-10.6,9.4-17.3,12
		c-7.7,3.1-16.6,4.5-24.5,1.7C1141.6,1060.6,1135.5,1049.6,1130.4,1039.5z"/>
	<path id="ek57ppnncy620_2_" class="st5" d="M1228.8,864.2c2.7,5.9,4.2,22.3-5.5,23.6c-3.3,0.4-6.3-1.9-7.9-4.6
		c-1.5-2.7-2.2-5.8-3.7-8.5c-1.6-3-4.3-5.5-7.6-7c-4.7-2.2-10.9-2.7-13.4-7c-2-3.3-0.6-7.8,2.4-10.4c3.1-2.5,7.4-3.4,11.6-3.2
		C1215.7,847.5,1224.7,855,1228.8,864.2z"/>
	<path id="ek57ppnncy621_2_" class="st5" d="M1225.7,974.9c-2.6,2.5-7.8,3.2-10,0.3c-1.9-2.5-0.6-6,0.3-9c1.3-4,1.8-8.3,1.5-12.5
		c-0.1-1.9-0.5-3.9,0-5.8c0.5-1.9,1.8-3.8,3.9-4.1c2.8-0.5,5.3,1.9,6.6,4.3C1231.4,954.7,1231.6,969.2,1225.7,974.9z"/>
</g>
<g id="ek57ppnncy632_2_" class="st6">
	<path id="ek57ppnncy633_2_" class="st3" d="M268.9,1228c-14-5.6-26.8-14-36.1-25.1c-24.3-29.1-20.5-69.9-13.1-106
		c-25.3,6.3-53-8.7-64.6-30.5c-11.6-21.8-16.1-65.2-6.5-87.8c9.4-22.6,32-36.3,47.9-44.6c-43.3-11.1-72.4-54.5-68-95.7
		c4.5-41.3,39.7-77.1,82.7-88.9c-9-18.9-6.1-42.2,7.5-58.6c13.6-16.4,37.1-25.2,59.1-22.2c36.3,5.1,60.8,38.8,67.8,72.1
		c6.8-6.4,18.4-6.8,27.2-3c8.8,3.8,15.4,11.1,20.6,18.7C415,787.2,420.5,827.2,408,862c-2.7,7.6-6.2,14.9-7.1,22.8
		c-0.8,7.9,1.6,16.7,8.6,21.3c9.3,6.1,20.2-0.2,41-1.1c10.2-0.5,23.7,0.4,39.8,5.5c6.2,1.7,12.3,3.3,18.6,5
		c-10.1,0.6-26.9,2.8-45.3,11.3c-7.2,3.3-26.1,11.4-40.2,30.5c-12.2,16.6-24,34.8-24.7,54.8c-0.6,20.1,10,38.8,15.3,58.3
		c7.7,27.6,4.6,57.7-8.6,83.4c-7.3,14.3-21.7,28.8-38.4,25.7c-10.8,21.1-23.7,44.1-47.2,52.3C303.5,1237.4,284.9,1234.5,268.9,1228z
		"/>
	<path id="ek57ppnncy634_2_" class="st4" d="M319.9,1231.8c-16.4,5.7-35,2.8-51-3.6c-14-5.6-26.8-14-36.1-25.1
		c-17.1-20.4-20.2-46.8-18.1-73.2c5.9-1.1,12.1-1.9,18.1-3.1c12-2.6,25-10.2,25.2-21.7c6.6,12.6,16.1,24.8,30.1,30
		c14,5.2,33.1,0.3,38-12.9c1.7,3.1,3.4,6.2,5.1,9.4c16.1-0.4,29.7-12.6,34.8-26.7s3.1-29.5-0.8-43.9c-4.5-16.3-11.5-32-20.6-46.5
		c-6-9.5-13.3-19.5-12.5-30.5c0.8-10.2,8.4-18.8,16.1-26c7.7-7.4,16.2-14.7,19.4-24.5c3.2-9.8-1.5-22.6-12.2-24.8
		c-9.9-2-14.8-12.9-13.6-22.1c1.2-9.2,6.7-17.4,11-25.8c10.3-20.4,13-45.2,2-65.4s-37.8-33.3-60.9-26.1c15.6-18.7,21.3-44.1,15-66.9
		c-3-10.9-8.7-21.2-16.4-30c28.3,10.8,47.3,39.7,53.2,68.4c6.8-6.4,18.4-6.8,27.2-3c8.8,3.8,15.4,11.1,20.6,18.7
		c14.6,21,29.5,73.4,14.6,105.6c-1.5,3.2-6,12.2-3,22c2.4,7.7,8.3,12.6,11.1,14.5c11.3,8,25.2,6.6,34.4,6.4
		c14.1-0.3,34.3,1.2,60.1,10.4c-7.4,1.3-18.2,3.5-30.9,6.8c-4.3,1.1-11.4,3-16.1,4.6c-20.8,7.1-34.2,22.4-40.2,30.5
		c-12.2,16.6-24,34.8-24.7,54.8c-0.6,20.1,10,38.8,15.3,58.3c7.7,27.6,4.6,57.7-8.6,83.4c-7.3,14.3-21.7,28.8-38.4,25.7
		C356.4,1200.6,343.6,1223.6,319.9,1231.8z"/>
	<path id="ek57ppnncy635_2_" class="st5" d="M212.2,778.6c8.6-0.3,17.6,1.5,24.1,6.7c6.5,5.2,9.2,14.6,5.1,21.6
		c-5.4,8.8-18.3,10-28,14.5c-6.7,3.1-12.3,8.3-15.8,14.5c-3.1,5.7-4.5,12.1-7.7,17.7c-3.3,5.6-9.5,10.6-16.4,9.6
		c-20.3-2.8-17.1-36.8-11.5-49.2C170.5,795.1,189.2,779.6,212.2,778.6z"/>
	<path id="ek57ppnncy636_2_" class="st5" d="M163.6,989.3c2.6-5,7.8-10.2,13.7-9c4.3,0.7,7.2,4.7,8.1,8.6c0.9,3.9,0.2,8-0.1,12
		c-0.6,8.7,0.4,17.6,3.1,26c2,6.2,4.8,13.4,0.7,18.7c-4.6,6-15.4,4.7-20.9-0.6C156.2,1033.2,156.5,1003,163.6,989.3z"/>
</g>
<g id="ek57ppnncy642_2_" class="st6">
	<path id="ek57ppnncy643_2_" class="st3" d="M370.2,1068.8c-6.7-2.7-12.8-6.7-17.3-12c-11.7-13.9-9.9-33.6-6.3-50.9
		c-12.1,3-25.4-4.2-31-14.6c-5.6-10.5-7.7-31.3-3.1-42.1c4.5-10.9,15.3-17.4,23-21.4c-20.8-5.3-34.8-26.1-32.6-45.9
		c2.1-19.8,19.1-37,39.7-42.7c-4.3-9.1-2.9-20.3,3.6-28.1c6.5-7.9,17.8-12.1,28.4-10.7c17.4,2.4,29.2,18.6,32.5,34.6
		c3.3-3.1,8.8-3.3,13-1.4c4.2,1.8,7.4,5.3,9.9,9c10.4,14.8,13,34,7,50.7c-1.3,3.6-3,7.2-3.4,11c-0.4,3.8,0.7,8,4.1,10.2
		c4.5,2.9,9.7-0.1,19.7-0.5c4.9-0.2,11.4,0.2,19.1,2.6c3,0.8,5.9,1.6,8.9,2.4c-4.8,0.3-12.9,1.3-21.8,5.4
		c-3.4,1.6-12.5,5.5-19.3,14.6c-5.9,8-11.5,16.7-11.9,26.3c-0.3,9.7,4.8,18.6,7.3,28c3.7,13.2,2.2,27.7-4.1,40
		c-3.5,6.9-10.4,13.8-18.4,12.3c-5.2,10.1-11.4,21.2-22.7,25.1C386.8,1073.3,377.9,1071.9,370.2,1068.8z"/>
	<path id="ek57ppnncy644_2_" class="st4" d="M394.7,1070.6c-7.9,2.7-16.8,1.3-24.5-1.7c-6.7-2.7-12.8-6.7-17.3-12
		c-8.2-9.8-9.7-22.5-8.7-35.1c2.8-0.5,5.8-0.9,8.7-1.5c5.8-1.2,12-4.9,12.1-10.4c3.2,6,7.7,11.9,14.4,14.4
		c6.7,2.5,15.9,0.1,18.2-6.2c0.8,1.5,1.6,3,2.4,4.5c7.7-0.2,14.2-6,16.7-12.8c2.4-6.8,1.5-14.1-0.4-21.1c-2.1-7.8-5.5-15.3-9.9-22.3
		c-2.9-4.6-6.4-9.4-6-14.6c0.4-4.9,4-9,7.7-12.5c3.7-3.5,7.8-7.1,9.3-11.8c1.5-4.7-0.7-10.9-5.9-11.9c-4.7-0.9-7.1-6.2-6.5-10.6
		c0.6-4.4,3.2-8.4,5.3-12.4c4.9-9.8,6.2-21.7,0.9-31.4c-5.3-9.7-18.1-16-29.2-12.5c7.5-9,10.2-21.2,7.2-32.1
		c-1.4-5.2-4.2-10.2-7.9-14.4c13.6,5.2,22.7,19.1,25.5,32.8c3.3-3.1,8.8-3.3,13-1.4c4.2,1.8,7.4,5.3,9.9,9c7,10.1,14.1,35.2,7,50.7
		c-0.7,1.5-2.9,5.9-1.4,10.6c1.1,3.7,4,6,5.3,7c5.4,3.8,12.1,3.2,16.5,3.1c6.8-0.1,16.5,0.6,28.8,5c-3.5,0.6-8.7,1.7-14.8,3.3
		c-2,0.5-5.5,1.4-7.7,2.2c-10,3.4-16.4,10.8-19.3,14.6c-5.9,8-11.5,16.7-11.9,26.3c-0.3,9.7,4.8,18.6,7.3,28
		c3.7,13.2,2.2,27.7-4.1,40c-3.5,6.9-10.4,13.8-18.4,12.3C412.2,1055.7,406,1066.7,394.7,1070.6z"/>
	<path id="ek57ppnncy645_2_" class="st5" d="M343,853.2c4.1-0.1,8.5,0.7,11.6,3.2c3.1,2.5,4.4,7,2.4,10.4c-2.6,4.2-8.8,4.8-13.4,7
		c-3.2,1.5-5.9,4-7.6,7c-1.5,2.7-2.1,5.8-3.7,8.5c-1.6,2.7-4.6,5.1-7.9,4.6c-9.8-1.3-8.2-17.7-5.5-23.6
		C323,861.1,331.9,853.6,343,853.2z"/>
	<path id="ek57ppnncy646_2_" class="st5" d="M319.7,954.3c1.2-2.4,3.7-4.9,6.6-4.3c2,0.3,3.4,2.2,3.9,4.1c0.5,1.9,0.1,3.8,0,5.8
		c-0.3,4.2,0.2,8.5,1.5,12.5c0.9,3,2.3,6.4,0.3,9c-2.2,2.9-7.4,2.2-10-0.3C316.1,975.3,316.2,960.8,319.7,954.3z"/>
</g>
<g id="ek57ppnncy647_2_" class="st6">
	<path id="ek57ppnncy648_2_" class="st3" d="M414.8,995.3c-3.5-1.4-6.8-3.5-9.1-6.3c-6.1-7.3-5.2-17.7-3.3-26.8
		c-6.4,1.6-13.4-2.2-16.3-7.7c-2.9-5.5-4.1-16.5-1.7-22.2c2.4-5.7,8.1-9.2,12.1-11.3c-10.9-2.8-18.3-13.8-17.2-24.2
		c1.1-10.4,10-19.5,20.9-22.5c-2.3-4.8-1.5-10.7,1.9-14.8c3.4-4.1,9.4-6.4,15-5.6c9.2,1.3,15.4,9.8,17.1,18.2
		c1.7-1.6,4.6-1.7,6.9-0.8c2.2,1,3.9,2.8,5.2,4.7c5.5,7.8,6.8,17.9,3.7,26.7c-0.7,1.9-1.6,3.8-1.8,5.8c-0.2,2,0.4,4.2,2.2,5.4
		c2.4,1.5,5.1-0.1,10.4-0.3c2.6-0.1,6,0.1,10.1,1.4c1.6,0.4,3.1,0.8,4.7,1.3c-2.5,0.2-6.8,0.7-11.5,2.9c-1.8,0.8-6.6,2.9-10.2,7.7
		c-3.1,4.2-6.1,8.8-6.2,13.9c-0.2,5.1,2.5,9.8,3.9,14.7c1.9,7,1.2,14.6-2.2,21.1c-1.8,3.6-5.5,7.3-9.7,6.5
		c-2.7,5.3-6,11.2-11.9,13.2C423.6,997.7,418.9,996.9,414.8,995.3z"/>
	<path id="ek57ppnncy649_2_" class="st4" d="M427.7,996.2c-4.1,1.4-8.8,0.7-12.9-0.9c-3.5-1.4-6.8-3.5-9.1-6.3
		c-4.3-5.2-5.1-11.8-4.6-18.5c1.5-0.3,3.1-0.5,4.6-0.8c3-0.7,6.3-2.6,6.4-5.5c1.7,3.2,4.1,6.3,7.6,7.6c3.5,1.3,8.4,0.1,9.6-3.3
		c0.4,0.8,0.9,1.6,1.3,2.4c4.1-0.1,7.5-3.2,8.8-6.7c1.3-3.6,0.8-7.5-0.2-11.1c-1.1-4.1-2.9-8.1-5.2-11.8c-1.5-2.4-3.4-4.9-3.1-7.7
		c0.2-2.6,2.1-4.7,4.1-6.6c1.9-1.9,4.1-3.7,4.9-6.2s-0.4-5.7-3.1-6.3c-2.5-0.5-3.8-3.3-3.4-5.6c0.3-2.3,1.7-4.4,2.8-6.5
		c2.6-5.2,3.3-11.4,0.5-16.5c-2.8-5.1-9.6-8.4-15.4-6.6c3.9-4.7,5.4-11.2,3.8-16.9c-0.8-2.8-2.2-5.4-4.1-7.6
		c7.2,2.7,12,10,13.5,17.3c1.7-1.6,4.6-1.7,6.9-0.8c2.2,1,3.9,2.8,5.2,4.7c3.7,5.3,7.5,18.5,3.7,26.7c-0.4,0.8-1.5,3.1-0.8,5.6
		c0.6,1.9,2.1,3.2,2.8,3.7c2.9,2,6.4,1.7,8.7,1.6c3.6-0.1,8.7,0.3,15.2,2.6c-1.9,0.3-4.6,0.9-7.8,1.7c-1.1,0.3-2.9,0.8-4.1,1.2
		c-5.2,1.8-8.7,5.7-10.2,7.7c-3.1,4.2-6.1,8.8-6.2,13.9c-0.2,5.1,2.5,9.8,3.9,14.7c1.9,7,1.2,14.6-2.2,21.1
		c-1.8,3.6-5.5,7.3-9.7,6.5C437,988.4,433.7,994.2,427.7,996.2z"/>
	<path id="ek57ppnncy650_2_" class="st5" d="M400.5,881.7c2.2-0.1,4.5,0.4,6.1,1.7c1.6,1.3,2.3,3.7,1.3,5.5
		c-1.4,2.2-4.6,2.5-7.1,3.7c-1.7,0.8-3.1,2.1-4,3.7c-0.8,1.4-1.1,3.1-1.9,4.5c-0.8,1.4-2.4,2.7-4.1,2.4c-5.1-0.7-4.3-9.3-2.9-12.4
		C389.9,885.8,394.7,881.9,400.5,881.7z"/>
	<path id="ek57ppnncy651_2_" class="st5" d="M388.2,934.9c0.7-1.3,2-2.6,3.5-2.3c1.1,0.2,1.8,1.2,2,2.2c0.2,1,0.1,2,0,3
		c-0.2,2.2,0.1,4.5,0.8,6.6c0.5,1.6,1.2,3.4,0.2,4.7c-1.2,1.5-3.9,1.2-5.3-0.2C386.3,946,386.4,938.4,388.2,934.9z"/>
</g>
<g id="ek57ppnncy652_1_">
	<rect id="ek57ppnncy653_1_" x="-891.8" y="416.1" class="st7" width="110.3" height="146.8"/>
	<rect id="ek57ppnncy654_1_" x="-816.5" y="416.5" class="st8" width="34.6" height="156.8"/>
	<rect id="ek57ppnncy655_1_" x="-891.6" y="416.5" class="st8" width="33.7" height="156.8"/>
	<rect id="ek57ppnncy656_1_" x="-891.8" y="219.7" class="st7" width="110.3" height="114.1"/>
	<rect id="ek57ppnncy657_1_" x="-891.6" y="220.6" class="st9" width="15.8" height="113.2"/>
	<rect id="ek57ppnncy658_1_" x="-797.6" y="220.6" class="st9" width="15.8" height="113.2"/>
	<rect id="ek57ppnncy659_1_" x="-868.7" y="385.7" class="st7" width="64.1" height="30.5"/>
	<rect id="ek57ppnncy660_1_" x="-895" y="377.3" class="st10" width="116.7" height="8.3"/>
	<rect id="ek57ppnncy661_1_" x="-895" y="341.4" class="st10" width="116.7" height="8.3"/>
	<rect id="ek57ppnncy662_1_" x="-888.1" y="333.3" class="st7" width="104.1" height="8.3"/>
	<rect id="ek57ppnncy663_1_" x="-893.1" y="349.8" class="st7" width="112.8" height="27.6"/>
	<g id="ek57ppnncy664_1_">
		<rect id="ek57ppnncy665_1_" x="-985.4" y="581.5" class="st7" width="83.7" height="78.9"/>
		<path id="ek57ppnncy666_1_" class="st11" d="M-996.9,697.9h-93.8c-6.6,0-12-5.4-12-12V552.2c0-6.6,5.4-12,12-12h93.8V697.9z"/>
		<rect id="ek57ppnncy667_1_" x="-1102.7" y="613" class="st12" width="104.8" height="13.5"/>
		<path id="ek57ppnncy668_1_" class="st13" d="M-1141.4,668.1h38.3V566.2h-38.3c-9.1,0-16.5,7.4-16.5,16.5v68.9
			C-1157.9,660.7-1150.5,668.1-1141.4,668.1z"/>
		<rect id="ek57ppnncy669_1_" x="-997.6" y="539.9" class="st7" width="12.2" height="157.1"/>
		<rect id="ek57ppnncy670_1_" x="-985.7" y="581.5" class="st8" width="83.7" height="3.8"/>
		<rect id="ek57ppnncy671_1_" x="-985.7" y="656.5" class="st8" width="83.7" height="3.8"/>
		<rect id="ek57ppnncy672_1_" x="-989.4" y="540" class="st8" width="3.8" height="156.8"/>
	</g>
	<g id="ek57ppnncy673_1_">
		<rect id="ek57ppnncy674_1_" x="-774.4" y="581.6" class="st7" width="88.8" height="78.9"/>
		<path id="ek57ppnncy675_1_" class="st11" d="M-674.1,697.9h93.8c6.6,0,12-5.4,12-12V552.2c0-6.6-5.4-12-12-12h-93.8V697.9z"/>
		<rect id="ek57ppnncy676_1_" x="-673.1" y="612.9" class="st12" width="104.8" height="13.5"/>
		<path id="ek57ppnncy677_1_" class="st13" d="M-529.7,668.1H-568V566.2h38.3c9.1,0,16.5,7.4,16.5,16.5v68.9
			C-513.2,660.7-520.6,668.1-529.7,668.1z"/>
		<rect id="ek57ppnncy678_1_" x="-685.7" y="539.8" class="st7" width="12.2" height="157.1"/>
		<rect id="ek57ppnncy679_1_" x="-769.1" y="581.5" class="st8" width="83.7" height="3.8"/>
		<rect id="ek57ppnncy680_1_" x="-769.1" y="656.5" class="st8" width="83.7" height="3.8"/>
		<rect id="ek57ppnncy681_1_" x="-685.5" y="540" class="st8" width="3.8" height="156.8"/>
		<rect id="ek57ppnncy682_1_" x="-568.4" y="610.4" class="st14" width="54.3" height="16.5"/>
		<rect id="ek57ppnncy683_1_" x="-1156.1" y="610.4" class="st14" width="54.3" height="16.5"/>
	</g>
	<circle id="ek57ppnncy684_1_" class="st11" cx="-835.4" cy="618.1" r="76.9"/>
	<rect id="ek57ppnncy685_1_" x="-857.4" y="556.1" class="st15" width="44.9" height="14.5"/>
	<rect id="ek57ppnncy686_1_" x="-880" y="68.2" class="st7" width="83.6" height="95.5"/>
	<rect id="ek57ppnncy687_1_" x="-880.2" y="68" class="st9" width="11.5" height="95.6"/>
	<rect id="ek57ppnncy688_1_" x="-808.2" y="68" class="st9" width="11.5" height="95.6"/>
	<rect id="ek57ppnncy689_1_" x="-866.8" y="3.1" class="st7" width="57" height="65.2"/>
	<rect id="ek57ppnncy690_1_" x="-857.4" y="666.4" class="st15" width="44.9" height="14.5"/>
	<circle id="ek57ppnncy691_1_" class="st13" cx="-835.4" cy="618.1" r="55.8"/>
	<circle id="ek57ppnncy692_1_" class="st16" cx="-835.4" cy="618.1" r="4.8"/>
	<rect id="ek57ppnncy693_1_" x="-759.8" y="613" class="st12" width="19.4" height="13.5"/>
	<rect id="ek57ppnncy694_1_" x="-930.7" y="613" class="st12" width="19.4" height="13.5"/>
	<rect id="ek57ppnncy695_1_" x="-893.1" y="375.9" class="st17" width="112.9" height="1.3"/>
	<rect id="ek57ppnncy696_1_" x="-893.1" y="349.9" class="st17" width="112.9" height="1.3"/>
	<rect id="ek57ppnncy697_1_" x="-851.7" y="351.1" class="st7" width="31.7" height="24.8"/>
	<rect id="ek57ppnncy698_1_" x="-851.8" y="351.1" class="st18" width="1.3" height="24.8"/>
	<rect id="ek57ppnncy699_1_" x="-821.4" y="351.1" class="st18" width="1.3" height="24.8"/>
	<rect id="ek57ppnncy6100_1_" x="-850.5" y="351.1" class="st18" width="29.1" height="1.3"/>
	<rect id="ek57ppnncy6101_1_" x="-850.4" y="374.7" class="st18" width="29.1" height="1.3"/>
	<g id="ek57ppnncy6102_1_">
		<path id="ek57ppnncy6103_1_" class="st19" d="M-845,268h-56.4c-35.9,0-65.1-29.1-65.1-65.1l0,0c0-35.9,29.1-65.1,65.1-65.1h56.4
			c35.9,0,65.1,29.1,65.1,65.1l0,0C-779.9,238.9-809.1,268-845,268z"/>
		<rect id="ek57ppnncy6104_1_" x="-913.9" y="139.8" class="st20" width="2.9" height="126"/>
		<rect id="ek57ppnncy6105_1_" x="-936.6" y="148" class="st20" width="2.9" height="110"/>
		<rect id="ek57ppnncy6106_1_" x="-843.4" y="139.8" class="st20" width="2.9" height="126"/>
		<rect id="ek57ppnncy6107_1_" x="-968.7" y="195.9" class="st21" width="4.2" height="6.4"/>
	</g>
	<rect id="ek57ppnncy6108_1_" x="-891.8" y="416.2" class="st8" width="110.1" height="4.1"/>
	<rect id="ek57ppnncy6109_1_" x="-891.8" y="328.6" class="st8" width="110.1" height="4.1"/>
	<rect id="ek57ppnncy6110_1_" x="-866.8" y="3.2" class="st9" width="5.8" height="64.9"/>
	<rect id="ek57ppnncy6111_1_" x="-815.7" y="3.2" class="st9" width="5.8" height="64.9"/>
	<rect id="ek57ppnncy6112_1_" x="-880.1" y="68.5" class="st9" width="83.5" height="3.4"/>
</g>
<g id="ek57ppnncy6113_1_" class="st2">
	<path id="ek57ppnncy6114_1_" class="st3" d="M-760.3,288.3c-21.8-8.2-47.2-8.2-67.4,2.7s-34.2,33.9-31.6,56.8
		c-55.1-23.8-125-5.3-160.1,42.4c-35.2,47.6-32,119.6,7.2,165.1c-39.4,4.1-70.8,37-82.9,74.3c-12.2,37.2-8.2,78.1,0.2,116.7
		c9.5,43.8,28.2,90.9,68.8,110.7c4.9,2.4,10.3,4.6,13.3,9.1c2.8,4.3,2.6,9.6,2.7,14.7c1.9,54.7,51.8,98.5,104.7,114.2
		c48.9,14.6,103.7,10.7,147.5-14.6c43.6-25.3,74.4-72.9,75.2-123.4c10.7,14.4,32.8,16.8,49,9.3s27.6-22.4,36.5-37.8
		c37.7-64.4,42.7-149.3,4-214.1c42.6-30.7,49.8-95.3,25.7-142.5c-26.6-52.1-72.6-59.7-113.1-93.9
		C-713.6,350.2-713.6,305.9-760.3,288.3z"/>
	<path id="ek57ppnncy6115_1_" class="st5" d="M-811.2,392.3c38-0.8,73.4,34.3,72.6,72c14.9-12.3,37.5-12.1,55.1-3.6
		c17.6,8.5,30.6,24.3,40.4,41.2c17.9,30.8,26.2,68.9,14,102c-12.2,33.1-48.3,57.9-83.2,50.2c18.3-23.4,26.1-56.3,14.4-83.9
		c-11.6-27.6-45.4-46.1-73.5-35.9c12.8-4.6,1.1-52.3-2.9-60.4c-12-24.3-30.4-31.1-55.5-34.8c-12.5-1.9-36.2,5.5-39.5-10.3
		C-873.4,409.2-824,392.6-811.2,392.3z"/>
	<path id="ek57ppnncy6116_1_" class="st5" d="M-804.3,611c31.1,21.7,40.2,63.6,18.7,86.1c18.7,1.3,37,14.5,46.4,29.9
		s11.3,32.7,9.9,48.6c-2.6,29.1-17.1,57.1-45.1,70.1c-28.1,13.1-71,7-94.9-18c27.7-3.6,52.3-19,58-42.5
		c5.9-23.6-11.2-54.5-39.4-64.7c12.8,4.6,29.8-31.1,31-38.3c3.7-21.7-7.4-36.6-25.5-53.5c-9.1-8.5-32.2-17.8-26.2-29.3
		C-863.9,585-814.9,603.6-804.3,611z"/>
</g>
<g id="ek57ppnncy6117_1_" class="st2">
	<path id="ek57ppnncy6118_1_" class="st3" d="M-942.6,375.2c-17.3,4.5-33.1,15.9-40.9,31.9s-6.4,36.8,5.3,50.2
		c-44.9,9.5-80.5,52.5-81.4,98.5c-1,46,32.8,90.4,77.3,101.7c-22.8,20.2-27.9,55.2-19,84.3c8.8,29.1,29.4,53.3,51.6,74.1
		c25.3,23.6,57.8,45.2,91.8,39.6c4.1-0.6,8.4-1.7,12.3-0.1c3.6,1.5,5.8,4.9,8.2,8.1c25.4,33.9,75.9,39.4,115.9,25.7
		c37-12.6,69.6-39.6,85.8-75.3c16.1-35.6,14.4-79.6-7.4-112.1c13.1,4.4,27.9-4,34.7-16s7.4-26.5,6.2-40.3
		c-4.9-57.8-39.2-114-92-137.9c13-38.6-11-82.9-47-102.1c-39.7-21.2-71.7-5.5-112.2-9.1C-886.1,393.7-905.7,365.5-942.6,375.2z"/>
	<path id="ek57ppnncy6119_1_" class="st5" d="M-928.6,464c23.4-17.5,61-11,77.2,13.3c3.9-14.5,18.1-24.5,32.8-26.9
		c14.7-2.4,29.9,1.8,43.5,8.1c24.8,11.6,46.8,32.1,53.8,58.6c7,26.5-4.6,58.4-29.9,69.1c1.1-23-8.6-47.4-28-59.8
		c-19.5-12.4-48.8-9-61.8,10c6-8.7-22.4-33.7-28.5-37.1c-18.2-10.1-32.7-6.2-50,2.7c-8.6,4.4-20.2,19.7-29.2,11.1
		C-960,502.6-936.5,469.9-928.6,464z"/>
	<path id="ek57ppnncy6120_1_" class="st5" d="M-827.8,599.9c29-0.1,53.2,22.5,49.7,46.4c12.3-7.5,29.5-7.3,42.2-1.7
		c12.7,5.6,21.5,15.7,27.6,26.5c11.2,19.7,14.5,43.9,2.8,64.7c-11.8,20.9-41.3,36.2-67.2,31c15.7-14.6,24.3-35.4,17.5-53
		c-6.7-17.6-31.1-29.7-53.2-23.5c10.1-2.8,4.9-33.1,2.5-38.2c-7.3-15.4-20.8-20-39.6-22.6c-9.4-1.3-28,3.1-29.3-6.9
		C-876.5,610.1-837.6,599.9-827.8,599.9z"/>
</g>
<g id="ek57ppnncy6121_1_" class="st2">
	<path id="ek57ppnncy6122_1_" class="st3" d="M-774.1,436.1c-11.2-5.2-24.8-6.2-36-1c-11.3,5.1-19.7,16.9-19.4,29.2
		c-28.3-14.8-66.3-7.5-87.1,16.8c-20.8,24.2-22.4,62.9-3.6,88.6c-21.1,0.8-39.4,17.2-47.5,36.7s-7.8,41.5-5.1,62.5
		c3.1,23.8,10.9,49.7,31.7,61.8c2.5,1.5,5.3,2.8,6.6,5.4c1.3,2.4,0.9,5.2,0.8,8c-1.4,29.4,23.2,54.6,50.7,65
		c25.4,9.6,54.8,9.6,79.2-2.4c24.4-11.9,42.9-36.3,45.6-63.3c5,8.1,16.7,10.2,25.7,6.8c9-3.4,15.7-11,21.1-18.9
		c22.9-33.1,29.4-78.4,11.7-114.5c24.1-14.9,30.8-49.2,20-75.4c-11.9-28.9-36-34.6-56-54.5C-752,471-750,447.2-774.1,436.1z"/>
	<path id="ek57ppnncy6123_1_" class="st5" d="M-805.9,489.9c20.3,1,37.5,21.1,35.4,41.2c8.5-6,20.5-5.1,29.5,0.1
		s15.2,14.2,19.7,23.6c8.2,17.2,10.9,37.9,2.9,55.1c-8,17.3-28.3,29.2-46.6,23.8c10.8-11.8,16.4-29.2,11.4-44.4
		s-22.1-26.4-37.5-21.9c7-2,2.9-28,1.1-32.4c-5.3-13.4-14.8-17.8-28-20.7c-6.6-1.5-19.5,1.6-20.6-7
		C-839.7,496.6-812.7,489.5-805.9,489.9z"/>
	<path id="ek57ppnncy6124_1_" class="st5" d="M-812,607.2c15.6,12.8,18.6,35.6,6.1,46.8c9.9,1.4,19,9.1,23.4,17.7
		c4.3,8.6,4.6,17.9,3.1,26.4c-2.7,15.5-11.6,30-27.1,35.9c-15.5,6-38.1,1.1-49.7-13.1c14.9-0.9,28.7-8.2,32.8-20.6
		c4.2-12.4-3.5-29.6-18.1-36.1c6.6,3,17.3-15.5,18.2-19.4c2.9-11.5-2.3-19.9-11.2-29.6c-4.5-4.9-16.3-10.7-12.7-16.6
		C-842.5,591.1-817.3,602.9-812,607.2z"/>
</g>
<g id="ek57ppnncy6125_1_" class="st2">
	<path id="ek57ppnncy6126_1_" class="st3" d="M-875.4,499.2c-8.3,1.7-16.1,6.7-20.2,14.1c-4.1,7.4-3.9,17.3,1.3,24
		c-21.5,3.4-39.5,23-41,44.8c-1.6,21.8,13.4,43.7,34.2,50.1c-11.3,9.1-14.6,25.5-11.1,39.5s12.7,26,22.7,36.4
		c11.4,11.8,26.3,22.8,42.6,21c2-0.2,4-0.6,5.8,0.2c1.7,0.8,2.6,2.5,3.7,4c11.2,16.7,35,20.5,54.4,15c17.9-5.1,34-17.1,42.5-33.6
		s8.7-37.4-0.8-53.4c6.1,2.4,13.3-1.2,16.9-6.8c3.5-5.5,4.1-12.4,3.9-19c-0.9-27.5-15.9-55-40.3-67.6c7.1-18-3.2-39.6-19.8-49.5
		c-18.3-11-33.9-4.3-53-7C-849,509.4-857.6,495.5-875.4,499.2z"/>
	<path id="ek57ppnncy6127_1_" class="st5" d="M-870.8,541.7c11.5-7.7,29.2-3.8,36.3,8.2c2.2-6.8,9.2-11.2,16.2-12
		c7-0.8,14.1,1.6,20.4,4.9c11.5,6.1,21.4,16.3,24.1,29.1c2.7,12.7-3.6,27.6-15.8,32.1c1.1-10.9-2.9-22.7-11.9-29
		c-8.9-6.3-22.9-5.4-29.6,3.3c3-4-9.8-16.5-12.6-18.3c-8.4-5.2-15.4-3.7-23.8,0.1c-4.2,1.9-10.1,8.9-14.1,4.6
		C-886.7,559.3-874.7,544.3-870.8,541.7z"/>
	<path id="ek57ppnncy6128_1_" class="st5" d="M-826.3,608.6c13.8,0.6,24.7,11.9,22.5,23.2c6-3.3,14.2-2.8,20.1,0.2s9.8,8,12.5,13.2
		c4.8,9.6,5.8,21.2-0.2,30.8c-6.1,9.6-20.5,16.2-32.6,13.1c7.8-6.6,12.4-16.2,9.6-24.7s-14-14.8-24.7-12.4
		c4.8-1.1,3.1-15.6,2.1-18.1c-3.1-7.5-9.4-10-18.2-11.7c-4.4-0.8-13.3,0.8-13.7-4C-849.6,612.3-830.9,608.4-826.3,608.6z"/>
</g>
<g id="ek57ppnncy6129_1_" class="st2">
	<path id="ek57ppnncy6130_1_" class="st3" d="M-855.3,552.1c-4.8,1-9.3,3.9-11.7,8.2c-2.4,4.3-2.3,10,0.8,13.9
		c-12.5,2-22.8,13.3-23.7,25.9c-0.9,12.6,7.7,25.3,19.8,29c-6.5,5.2-8.4,14.8-6.4,22.9s7.3,15,13.1,21c6.6,6.8,15.2,13.2,24.7,12.1
		c1.1-0.1,2.3-0.3,3.4,0.1c1,0.5,1.5,1.4,2.1,2.3c6.5,9.7,20.3,11.9,31.5,8.7c10.3-2.9,19.7-9.9,24.6-19.5
		c4.9-9.6,5.1-21.7-0.5-30.9c3.5,1.4,7.7-0.7,9.8-3.9c2-3.2,2.4-7.2,2.2-11c-0.5-15.9-9.2-31.9-23.3-39.1
		c4.1-10.4-1.9-22.9-11.5-28.7c-10.6-6.4-19.6-2.5-30.7-4.1C-840.1,557.9-845.1,549.9-855.3,552.1z"/>
	<path id="ek57ppnncy6131_1_" class="st5" d="M-852.7,576.7c6.7-4.5,16.9-2.2,21,4.7c1.3-3.9,5.3-6.5,9.4-6.9
		c4.1-0.5,8.2,0.9,11.8,2.8c6.7,3.5,12.4,9.5,14,16.8c1.6,7.4-2.1,16-9.2,18.6c0.6-6.3-1.7-13.1-6.9-16.8
		c-5.2-3.7-13.3-3.2-17.1,1.9c1.8-2.3-5.7-9.6-7.3-10.6c-4.9-3-8.9-2.2-13.8,0c-2.4,1.1-5.8,5.1-8.2,2.6
		C-861.9,586.8-855,578.2-852.7,576.7z"/>
	<path id="ek57ppnncy6132_1_" class="st5" d="M-826.9,615.4c8,0.4,14.3,6.9,13,13.4c3.5-1.9,8.2-1.6,11.6,0.1
		c3.4,1.7,5.7,4.6,7.2,7.6c2.8,5.6,3.4,12.3-0.1,17.8c-3.5,5.6-11.8,9.4-18.9,7.6c4.5-3.8,7.2-9.4,5.5-14.3
		c-1.6-4.9-8.1-8.6-14.3-7.2c2.8-0.6,1.8-9,1.2-10.5c-1.8-4.3-5.4-5.8-10.5-6.7c-2.6-0.5-7.7,0.5-8-2.3
		C-840.4,617.5-829.6,615.2-826.9,615.4z"/>
</g>
<g id="ek57ppnncy6113_2_" class="st22">
	<path id="ek57ppnncy6114_2_" class="st3" d="M804.9,762.4c-21.8-6-47.2-6-67.4,2c-20.2,8-34.2,25-31.6,41.8
		c-55.1-17.5-125-3.9-160.1,31.2c-35.2,35-32,88,7.2,121.5c-39.4,3-70.8,27.2-82.9,54.7c-12.2,27.4-8.2,57.5,0.2,85.9
		c9.5,32.2,28.2,66.9,68.8,81.5c4.9,1.8,10.3,3.4,13.3,6.7c2.8,3.2,2.6,7.1,2.7,10.8c1.9,40.3,51.8,72.5,104.7,84.1
		c48.9,10.7,103.7,7.9,147.5-10.7c43.6-18.6,74.4-53.7,75.2-90.8c10.7,10.6,32.8,12.4,49,6.8s27.6-16.5,36.5-27.8
		c37.7-47.4,42.7-109.9,4-157.6c42.6-22.6,49.8-70.1,25.7-104.9c-26.6-38.3-72.6-43.9-113.1-69.1C851.6,808,851.6,775.4,804.9,762.4
		z"/>
	<path id="ek57ppnncy6115_2_" class="st5" d="M754,839c38-0.6,73.4,25.2,72.6,53c14.9-9.1,37.5-8.9,55.1-2.6
		c17.6,6.3,30.6,17.9,40.4,30.3c17.9,22.7,26.2,50.7,14,75.1c-12.2,24.4-48.3,42.6-83.2,36.9c18.3-17.2,26.1-41.4,14.4-61.8
		c-11.6-20.3-45.4-33.9-73.5-26.4c12.8-3.4,1.1-38.5-2.9-44.5c-12-17.9-30.4-22.9-55.5-25.6c-12.5-1.4-36.2,4-39.5-7.6
		C691.8,851.4,741.2,839.2,754,839z"/>
	<path id="ek57ppnncy6116_2_" class="st5" d="M760.9,999.9c31.1,16,40.2,46.8,18.7,63.4c18.7,1,37,10.7,46.4,22
		c9.4,11.3,11.3,24.1,9.9,35.8c-2.6,21.4-17.1,42-45.1,51.6c-28.1,9.6-71,5.2-94.9-13.2c27.7-2.6,52.3-14,58-31.3
		c5.9-17.4-11.2-40.1-39.4-47.6c12.8,3.4,29.8-22.9,31-28.2c3.7-16-7.4-26.9-25.5-39.4c-9.1-6.3-32.2-13.1-26.2-21.6
		C701.3,980.8,750.3,994.5,760.9,999.9z"/>
</g>
<g id="ek57ppnncy6117_2_" class="st22">
	<path id="ek57ppnncy6118_2_" class="st3" d="M622.6,826.4c-17.3,3.3-33.1,11.7-40.9,23.5s-6.4,27.1,5.3,37
		c-44.9,7-80.5,38.6-81.4,72.5c-1,33.9,32.8,66.5,77.3,74.9c-22.8,14.9-27.9,40.6-19,62c8.8,21.4,29.4,39.2,51.6,54.5
		c25.3,17.4,57.8,33.3,91.8,29.1c4.1-0.4,8.4-1.3,12.3-0.1c3.6,1.1,5.8,3.6,8.2,6c25.4,25,75.9,29,115.9,18.9
		c37-9.3,69.6-29.1,85.8-55.4c16.1-26.2,14.4-58.6-7.4-82.5c13.1,3.2,27.9-2.9,34.7-11.8c6.8-8.8,7.4-19.5,6.2-29.7
		c-4.9-42.5-39.2-83.9-92-101.5c13-28.4-11-61-47-75.2c-39.7-15.6-71.7-4-112.2-6.7C679.1,840,659.5,819.2,622.6,826.4z"/>
	<path id="ek57ppnncy6119_2_" class="st5" d="M636.6,891.7c23.4-12.9,61-8.1,77.2,9.8c3.9-10.7,18.1-18,32.8-19.8
		c14.7-1.8,29.9,1.3,43.5,6c24.8,8.5,46.8,23.6,53.8,43.1s-4.6,43-29.9,50.9c1.1-16.9-8.6-34.9-28-44c-19.5-9.1-48.8-6.6-61.8,7.4
		c6-6.4-22.4-24.8-28.5-27.3c-18.2-7.4-32.7-4.6-50,2c-8.6,3.2-20.2,14.5-29.2,8.2C605.2,920.1,628.7,896.1,636.6,891.7z"/>
	<path id="ek57ppnncy6120_2_" class="st5" d="M737.4,991.8c29-0.1,53.2,16.6,49.7,34.2c12.3-5.5,29.5-5.4,42.2-1.3
		s21.5,11.6,27.6,19.5c11.2,14.5,14.5,32.3,2.8,47.6c-11.8,15.4-41.3,26.6-67.2,22.8c15.7-10.7,24.3-26.1,17.5-39
		c-6.7-13-31.1-21.9-53.2-17.3c10.1-2.1,4.9-24.4,2.5-28.1c-7.3-11.3-20.8-14.7-39.6-16.6c-9.4-1-28,2.3-29.3-5.1
		C688.7,999.3,727.6,991.8,737.4,991.8z"/>
</g>
<g id="ek57ppnncy6121_2_" class="st22">
	<path id="ek57ppnncy6122_2_" class="st3" d="M791.1,871.2c-11.2-3.8-24.8-4.6-36-0.7c-11.3,3.8-19.7,12.4-19.4,21.5
		c-28.3-10.9-66.3-5.5-87.1,12.4c-20.8,17.8-22.4,46.3-3.6,65.2c-21.1,0.6-39.4,12.7-47.5,27c-8.1,14.4-7.8,30.5-5.1,46
		c3.1,17.5,10.9,36.6,31.7,45.5c2.5,1.1,5.3,2.1,6.6,4c1.3,1.8,0.9,3.8,0.8,5.9c-1.4,21.6,23.2,40.2,50.7,47.8
		c25.4,7.1,54.8,7.1,79.2-1.8c24.4-8.8,42.9-26.7,45.6-46.6c5,6,16.7,7.5,25.7,5c9-2.5,15.7-8.1,21.1-13.9
		c22.9-24.4,29.4-57.7,11.7-84.3c24.1-11,30.8-36.2,20-55.5c-11.9-21.3-36-25.5-56-40.1C813.2,896.9,815.2,879.4,791.1,871.2z"/>
	<path id="ek57ppnncy6123_2_" class="st5" d="M759.3,910.8c20.3,0.7,37.5,15.5,35.4,30.3c8.5-4.4,20.5-3.8,29.5,0.1
		s15.2,10.5,19.7,17.4c8.2,12.7,10.9,27.9,2.9,40.6c-8,12.7-28.3,21.5-46.6,17.5c10.8-8.7,16.4-21.5,11.4-32.7
		c-5-11.2-22.1-19.4-37.5-16.1c7-1.5,2.9-20.6,1.1-23.8c-5.3-9.9-14.8-13.1-28-15.2c-6.6-1.1-19.5,1.2-20.6-5.2
		C725.5,915.7,752.5,910.5,759.3,910.8z"/>
	<path id="ek57ppnncy6124_2_" class="st5" d="M753.2,997.1c15.6,9.4,18.6,26.2,6.1,34.4c9.9,1,19,6.7,23.4,13
		c4.3,6.3,4.6,13.2,3.1,19.4c-2.7,11.4-11.6,22.1-27.1,26.4c-15.5,4.4-38.1,0.8-49.7-9.6c14.9-0.7,28.7-6,32.8-15.2
		c4.2-9.1-3.5-21.8-18.1-26.6c6.6,2.2,17.3-11.4,18.2-14.3c2.9-8.5-2.3-14.6-11.2-21.8c-4.5-3.6-16.3-7.9-12.7-12.2
		C722.7,985.3,747.9,994,753.2,997.1z"/>
</g>
<g id="ek57ppnncy6125_2_" class="st22">
	<path id="ek57ppnncy6126_2_" class="st3" d="M689.8,917.6c-8.3,1.3-16.1,4.9-20.2,10.4c-4.1,5.4-3.9,12.7,1.3,17.7
		c-21.5,2.5-39.5,16.9-41,33c-1.6,16,13.4,32.2,34.2,36.9c-11.3,6.7-14.6,18.8-11.1,29.1s12.7,19.1,22.7,26.8
		c11.4,8.7,26.3,16.8,42.6,15.5c2-0.1,4-0.4,5.8,0.1c1.7,0.6,2.6,1.8,3.7,2.9c11.2,12.3,35,15.1,54.4,11c17.9-3.8,34-12.6,42.5-24.7
		c8.5-12.1,8.7-27.5-0.8-39.3c6.1,1.8,13.3-0.9,16.9-5c3.5-4,4.1-9.1,3.9-14c-0.9-20.2-15.9-40.5-40.3-49.8
		c7.1-13.2-3.2-29.1-19.8-36.4c-18.3-8.1-33.9-3.2-53-5.2C716.2,925.1,707.6,914.9,689.8,917.6z"/>
	<path id="ek57ppnncy6127_2_" class="st5" d="M694.4,948.9c11.5-5.7,29.2-2.8,36.3,6c2.2-5,9.2-8.2,16.2-8.8s14.1,1.2,20.4,3.6
		c11.5,4.5,21.4,12,24.1,21.4c2.7,9.3-3.6,20.3-15.8,23.6c1.1-8-2.9-16.7-11.9-21.3c-8.9-4.6-22.9-4-29.6,2.4
		c3-2.9-9.8-12.1-12.6-13.5c-8.4-3.8-15.4-2.7-23.8,0.1c-4.2,1.4-10.1,6.6-14.1,3.4C678.5,961.9,690.5,950.8,694.4,948.9z"/>
	<path id="ek57ppnncy6128_2_" class="st5" d="M738.9,998.2c13.8,0.4,24.7,8.8,22.5,17.1c6-2.4,14.2-2.1,20.1,0.1s9.8,5.9,12.5,9.7
		c4.8,7.1,5.8,15.6-0.2,22.7c-6.1,7.1-20.5,11.9-32.6,9.6c7.8-4.9,12.4-11.9,9.6-18.2c-2.8-6.3-14-10.9-24.7-9.1
		c4.8-0.8,3.1-11.5,2.1-13.3c-3.1-5.5-9.4-7.4-18.2-8.6c-4.4-0.6-13.3,0.6-13.7-2.9C715.6,1000.9,734.3,998,738.9,998.2z"/>
</g>
<g id="ek57ppnncy6129_2_" class="st22">
	<path id="ek57ppnncy6130_2_" class="st3" d="M709.9,956.6c-4.8,0.7-9.3,2.9-11.7,6c-2.4,3.2-2.3,7.4,0.8,10.2
		c-12.5,1.5-22.8,9.8-23.7,19.1c-0.9,9.3,7.7,18.6,19.8,21.3c-6.5,3.8-8.4,10.9-6.4,16.9s7.3,11,13.1,15.5c6.6,5,15.2,9.7,24.7,8.9
		c1.1-0.1,2.3-0.2,3.4,0.1c1,0.4,1.5,1,2.1,1.7c6.5,7.1,20.3,8.8,31.5,6.4c10.3-2.1,19.7-7.3,24.6-14.4c4.9-7.1,5.1-16-0.5-22.7
		c3.5,1,7.7-0.5,9.8-2.9c2-2.4,2.4-5.3,2.2-8.1c-0.5-11.7-9.2-23.5-23.3-28.8c4.1-7.7-1.9-16.9-11.5-21.1c-10.6-4.7-19.6-1.8-30.7-3
		C725.1,960.8,720.1,955,709.9,956.6z"/>
	<path id="ek57ppnncy6131_2_" class="st5" d="M712.5,974.7c6.7-3.3,16.9-1.6,21,3.5c1.3-2.9,5.3-4.8,9.4-5.1
		c4.1-0.4,8.2,0.7,11.8,2.1c6.7,2.6,12.4,7,14,12.4c1.6,5.4-2.1,11.8-9.2,13.7c0.6-4.6-1.7-9.6-6.9-12.4c-5.2-2.7-13.3-2.4-17.1,1.4
		c1.8-1.7-5.7-7.1-7.3-7.8c-4.9-2.2-8.9-1.6-13.8,0c-2.4,0.8-5.8,3.8-8.2,1.9C703.3,982.1,710.2,975.8,712.5,974.7z"/>
	<path id="ek57ppnncy6132_2_" class="st5" d="M738.3,1003.2c8,0.3,14.3,5.1,13,9.9c3.5-1.4,8.2-1.2,11.6,0.1
		c3.4,1.3,5.7,3.4,7.2,5.6c2.8,4.1,3.4,9.1-0.1,13.1c-3.5,4.1-11.8,6.9-18.9,5.6c4.5-2.8,7.2-6.9,5.5-10.5
		c-1.6-3.6-8.1-6.3-14.3-5.3c2.8-0.4,1.8-6.6,1.2-7.7c-1.8-3.2-5.4-4.3-10.5-4.9c-2.6-0.4-7.7,0.4-8-1.7
		C724.8,1004.7,735.6,1003,738.3,1003.2z"/>
</g>
<image style="overflow:visible;" width="170" height="128" xlink:href="943D837B.jpg"  transform="matrix(6.4401 0 0 6.4401 -1200.1063 -808.7127)">
</image>
<path class="st23" d="M-366.3,77.8v211.9h-46V78.3C-412.3,78.3-366.8,78.3-366.3,77.8z"/>
<polygon class="st24" points="-366.2,92.1 -230.9,96.2 -231.4,272.4 -366.7,281.1 "/>
<path class="st25" d="M-256.6,127.6v3.7c0,6.3-5.1,11.4-11.4,11.4h-99.2v-26.5c0,0,71,0,99.2,0
	C-261.7,116.2-256.6,121.3-256.6,127.6z"/>
<path class="st25" d="M-256.6,184.8v3.7c0,6.3-5.1,11.4-11.4,11.4h-99.2v-26.5c0,0,71,0,99.2,0
	C-261.7,173.3-256.6,178.5-256.6,184.8z"/>
<path class="st25" d="M-256.6,240.2v3.7c0,6.3-5.1,11.4-11.4,11.4h-99.2v-26.5c0,0,71,0,99.2,0
	C-261.7,228.8-256.6,233.9-256.6,240.2z"/>
<rect x="-367.3" y="94.9" class="st26" width="11.2" height="182.3"/>
<rect x="1364.6" y="277.5" class="st27" width="35.4" height="211.5"/>
<g>
	<path class="st23" d="M944.3,394.5v168.7h-36.6V394.9C907.7,394.9,943.9,394.9,944.3,394.5z"/>
	<polygon class="st24" points="944.4,406 1052.1,409.3 1051.7,549.5 944,556.4 	"/>
	<path class="st25" d="M1031.6,434.2v3c0,5-4.1,9.1-9.1,9.1h-79v-21.1c0,0,56.5,0,79,0C1027.5,425.1,1031.6,429.2,1031.6,434.2z"/>
	<path class="st25" d="M1031.6,479.7v3c0,5-4.1,9.1-9.1,9.1h-79v-21.1c0,0,56.5,0,79,0C1027.5,470.6,1031.6,474.7,1031.6,479.7z"/>
	<path class="st25" d="M1031.6,523.9v3c0,5-4.1,9.1-9.1,9.1h-79v-21.1c0,0,56.5,0,79,0C1027.5,514.8,1031.6,518.9,1031.6,523.9z"/>
	<rect x="943.6" y="408.2" class="st26" width="8.9" height="145.1"/>
	<path class="st23" d="M532.7,394.5v168.7h36.6V394.9C569.3,394.9,533.1,394.9,532.7,394.5z"/>
	<polygon class="st24" points="532.6,403.8 424.9,407.1 425.3,547.3 533,554.2 	"/>
	<path class="st25" d="M445.4,432v3c0,5,4.1,9.1,9.1,9.1h79V423c0,0-56.5,0-79,0C449.4,423,445.4,427,445.4,432z"/>
	<path class="st25" d="M445.4,477.6v3c0,5,4.1,9.1,9.1,9.1h79v-21.1c0,0-56.5,0-79,0C449.4,468.5,445.4,472.5,445.4,477.6z"/>
	<path class="st25" d="M445.4,521.7v3c0,5,4.1,9.1,9.1,9.1h79v-21.1c0,0-56.5,0-79,0C449.4,512.6,445.4,516.7,445.4,521.7z"/>
	
		<rect x="524.3" y="406.1" transform="matrix(-1 -4.486024e-11 4.486024e-11 -1 1057.639 957.3687)" class="st26" width="8.9" height="145.1"/>
	<rect x="892.3" y="395.7" class="st28" width="11.8" height="166.5"/>
	<rect x="903.6" y="423.4" class="st27" width="4.3" height="114.6"/>
	<rect x="788.1" y="423.1" class="st27" width="105.4" height="114.6"/>
	
		<rect x="655.2" y="301.2" transform="matrix(-1.836970e-16 1 -1 -1.836970e-16 1086.5514 -369.5323)" class="st27" width="145.7" height="114.6"/>
	<path class="st27" d="M635.1,192.2v85.4c0,11.5,9.3,20.9,20.9,20.9h142.4c11.5,0,20.9-9.3,20.9-20.9v-85.4
		c0-11.5-9.3-20.9-20.9-20.9H656C644.4,171.4,635.1,180.7,635.1,192.2z"/>
	<path class="st29" d="M624.1,160.5v18.4c0,5.9,4.8,10.6,10.6,10.6h182.7c5.9,0,10.6-4.8,10.6-10.6v-18.4c0-5.9-4.8-10.6-10.6-10.6
		H634.8C628.9,149.8,624.1,154.6,624.1,160.5z"/>
	
		<rect x="572.5" y="395.7" transform="matrix(-1 -1.224647e-16 1.224647e-16 -1 1156.7335 957.9106)" class="st28" width="11.8" height="166.5"/>
	
		<rect x="568.6" y="419.9" transform="matrix(-1 -1.224647e-16 1.224647e-16 -1 1141.5612 954.3207)" class="st27" width="4.3" height="114.6"/>
	
		<rect x="583" y="420.2" transform="matrix(-1 -1.224647e-16 1.224647e-16 -1 1271.4398 954.9303)" class="st27" width="105.4" height="114.6"/>
	<circle class="st30" cx="726.5" cy="479.2" r="84.7"/>
	<circle class="st23" cx="726.9" cy="479.2" r="73.4"/>
	<circle class="st31" cx="726.5" cy="479.2" r="22.7"/>
	<circle class="st32" cx="726.5" cy="479.2" r="6.2"/>
</g>
</svg>
