<?xml version="1.0" encoding="utf-8"?>
<!-- Generator: Adobe Illustrator 25.2.0, SVG Export Plug-In . SVG Version: 6.00 Build 0)  -->
<svg version="1.1" id="ek57ppnncy61" shape-rendering="geometricPrecision" text-rendering="geometricPrecision"
	 xmlns="http://www.w3.org/2000/svg" xmlns:xlink="http://www.w3.org/1999/xlink" x="0px" y="0px" viewBox="0 0 1417.3 1417.3"
	 style="enable-background:new 0 0 1417.3 1417.3;" xml:space="preserve">
<style type="text/css">
	.st0{fill:#878787;}
	.st1{fill:#777777;}
	.st2{opacity:0.39;fill:#6B6B6B;enable-background:new    ;}
	.st3{fill:#727777;}
	.st4{fill:#565B5B;}
	.st5{fill:#757474;}
	.st6{fill:#797A7A;}
	.st7{fill:#636860;}
	.st8{fill:#4F544D;}
</style>
<g>
	<path class="st0" d="M944.3,415.9v168.7h-36.6V416.3C907.7,416.3,943.9,416.3,944.3,415.9z"/>
	<polygon class="st0" points="944.4,427.5 1052.1,430.7 1051.7,570.9 944,577.8 	"/>
	<path class="st1" d="M1031.6,455.7v3c0,5-4.1,9.1-9.1,9.1h-79v-21.1c0,0,56.5,0,79,0C1027.5,446.6,1031.6,450.6,1031.6,455.7z"/>
	<path class="st1" d="M1031.6,501.2v3c0,5-4.1,9.1-9.1,9.1h-79v-21.1c0,0,56.5,0,79,0C1027.5,492.1,1031.6,496.2,1031.6,501.2z"/>
	<path class="st1" d="M1031.6,545.3v3c0,5-4.1,9.1-9.1,9.1h-79v-21.1c0,0,56.5,0,79,0C1027.5,536.3,1031.6,540.3,1031.6,545.3z"/>
	<rect x="943.6" y="429.6" class="st2" width="8.9" height="145.1"/>
	<path class="st0" d="M532.7,415.9v168.7h36.6V416.3C569.3,416.3,533.1,416.3,532.7,415.9z"/>
	<polygon class="st0" points="532.6,425.3 424.9,428.5 425.3,568.7 533,575.7 	"/>
	<path class="st1" d="M445.4,453.5v3c0,5,4.1,9.1,9.1,9.1h79v-21.1c0,0-56.5,0-79,0C449.4,444.4,445.4,448.5,445.4,453.5z"/>
	<path class="st1" d="M445.4,499v3c0,5,4.1,9.1,9.1,9.1h79V490c0,0-56.5,0-79,0C449.4,489.9,445.4,494,445.4,499z"/>
	<path class="st1" d="M445.4,543.2v3c0,5,4.1,9.1,9.1,9.1h79v-21.1c0,0-56.5,0-79,0C449.4,534.1,445.4,538.1,445.4,543.2z"/>
	<rect x="524.4" y="427.6" class="st2" width="8.9" height="145.1"/>
	<rect x="892.3" y="417.2" class="st3" width="11.8" height="166.5"/>
	<rect x="903.6" y="444.9" class="st4" width="4.3" height="114.6"/>
	<rect x="788.1" y="444.6" class="st0" width="105.4" height="114.6"/>
	<rect x="670.7" y="307.1" class="st0" width="114.6" height="145.7"/>
	<path class="st0" d="M635.1,213.7V299c0,11.5,9.3,20.9,20.9,20.9h142.4c11.5,0,20.9-9.3,20.9-20.9v-85.4c0-11.5-9.3-20.9-20.9-20.9
		H656C644.4,192.8,635.1,202.2,635.1,213.7z"/>
	<path class="st5" d="M624.1,181.9v18.4c0,5.9,4.8,10.6,10.6,10.6h182.7c5.9,0,10.6-4.8,10.6-10.6v-18.4c0-5.9-4.8-10.6-10.6-10.6
		H634.8C628.9,171.3,624.1,176,624.1,181.9z"/>
	<rect x="572.4" y="417.1" class="st3" width="11.8" height="166.5"/>
	<rect x="568.7" y="441.3" class="st4" width="4.3" height="114.6"/>
	<rect x="583" y="441.6" class="st0" width="105.4" height="114.6"/>
	<circle class="st6" cx="726.5" cy="500.7" r="84.7"/>
	<circle class="st0" cx="726.9" cy="500.7" r="73.4"/>
	<circle class="st7" cx="726.5" cy="500.7" r="22.7"/>
	<circle class="st8" cx="726.5" cy="500.7" r="6.2"/>
</g>
</svg>
