<?xml version="1.0" encoding="utf-8"?>
<!-- Generator: Adobe Illustrator 25.2.0, SVG Export Plug-In . SVG Version: 6.00 Build 0)  -->
<svg version="1.1" id="ek57ppnncy61" shape-rendering="geometricPrecision" text-rendering="geometricPrecision"
	 xmlns="http://www.w3.org/2000/svg" xmlns:xlink="http://www.w3.org/1999/xlink" x="0px" y="0px" viewBox="0 0 1417.3 1417.3"
	 style="enable-background:new 0 0 1417.3 1417.3;" xml:space="preserve">
<style type="text/css">
	.st0{fill:#D9D9D8;}
	.st1{fill:#BCBCBB;}
	.st2{fill:#FFFFFF;}
	.st3{opacity:0.72;}
	.st4{fill:#55B102;}
	.st5{fill:#55B004;}
	.st6{fill:#44A102;}
	.st7{opacity:0.39;fill:#3A7209;}
	.st8{fill:#3A474A;}
	.st9{fill:#323D3F;}
	.st10{fill:#1E2223;}
	.st11{fill:#508E0E;}
	.st12{fill:#2E6D05;}
	.st13{fill:#175608;}
</style>
<g id="ek57ppnncy67_2_">
	<path id="ek57ppnncy68_2_" class="st0" d="M1204.4,821.1c-23.6-8.2-36.4-31.2-47.2-52.3c-16.7,3.1-31.1-11.4-38.4-25.7
		c-13.2-25.7-16.3-55.8-8.6-83.4c5.3-19.5,15.9-38.2,15.3-58.3c-0.7-20-12.5-38.2-24.7-54.8c-14-19.1-33-27.2-40.2-30.5
		c-18.5-8.5-35.3-10.7-45.3-11.3c6.2-1.7,12.3-3.3,18.6-5c16.2-5.1,29.7-6,39.8-5.5c20.8,0.9,31.6,7.3,41,1.1
		c7.1-4.6,9.4-13.4,8.6-21.3c-0.8-7.9-4.4-15.3-7.1-22.8c-12.5-34.9-7-74.8,14.6-105.6c5.3-7.6,11.8-14.8,20.6-18.7
		c8.8-3.8,20.3-3.4,27.2,3c7-33.3,31.4-67,67.8-72.1c22-3,45.6,5.8,59.1,22.2c13.6,16.4,16.5,39.7,7.5,58.6
		c43,11.8,78.2,47.6,82.7,88.9c4.5,41.2-24.7,84.6-68,95.7c16,8.3,38.5,22,47.9,44.6c9.5,22.6,5.1,66-6.5,87.8
		c-11.6,21.8-39.3,36.8-64.6,30.5c7.5,36.1,11.2,77-13.1,106c-9.3,11.1-22.1,19.5-36.1,25.1C1239.2,823.8,1220.6,826.7,1204.4,821.1
		z"/>
	<path id="ek57ppnncy69_2_" class="st1" d="M1157.1,768.9c-16.7,3.1-31.1-11.4-38.4-25.7c-13.2-25.7-16.3-55.8-8.6-83.4
		c5.3-19.5,15.9-38.2,15.3-58.3c-0.7-20-12.5-38.2-24.7-54.8c-5.9-8.1-19.4-23.4-40.2-30.5c-4.7-1.6-11.8-3.4-16.1-4.6
		c-12.8-3.3-23.6-5.5-30.9-6.8c25.7-9.1,46-10.7,60.1-10.4c9.2,0.2,23.1,1.6,34.4-6.4c2.8-2,8.7-6.8,11.1-14.5c3-9.8-1.6-18.8-3-22
		c-14.8-32.3,0-84.7,14.6-105.6c5.3-7.6,11.8-14.8,20.6-18.7c8.8-3.8,20.3-3.4,27.2,3c5.9-28.6,24.9-57.6,53.2-68.4
		c-7.7,8.8-13.4,19.1-16.4,30c-6.2,22.8-0.5,48.2,15,66.9c-23.1-7.2-49.9,6-60.9,26.1s-8.3,44.9,2,65.4c4.3,8.4,9.8,16.6,11,25.8
		c1.2,9.2-3.7,20.1-13.6,22.1c-10.8,2.2-15.5,15-12.2,24.8c3.2,9.8,11.7,17.1,19.4,24.5c7.7,7.3,15.3,15.9,16.1,26
		c0.8,11-6.4,21-12.5,30.5c-9.1,14.5-16.2,30.2-20.6,46.5c-3.9,14.4-5.9,29.8-0.8,43.9c5.1,14.1,18.7,26.3,34.8,26.7
		c1.7-3.2,3.4-6.3,5.1-9.4c4.9,13.2,24,18.1,38,12.9s23.4-17.4,30.1-30c0.2,11.5,13.2,19.1,25.2,21.7c5.9,1.2,12.1,2,18.1,3.1
		c2.2,26.4-0.9,52.7-18.1,73.2c-9.3,11.1-22.1,19.5-36.1,25.1c-16.1,6.4-34.7,9.3-51,3.6C1180.6,812.9,1167.7,789.9,1157.1,768.9z"
		/>
	<path id="ek57ppnncy610_2_" class="st2" d="M1362.2,403.5c5.6,12.3,8.8,46.4-11.5,49.2c-6.8,0.9-13.1-4-16.4-9.6
		c-3.2-5.6-4.6-12-7.7-17.7c-3.4-6.2-9-11.4-15.8-14.5c-9.8-4.6-22.6-5.7-28-14.5c-4.2-7-1.3-16.3,5.1-21.6
		c6.4-5.3,15.5-7.1,24.1-6.7C1335,368.9,1353.7,384.4,1362.2,403.5z"/>
	<path id="ek57ppnncy611_2_" class="st2" d="M1355.8,634.3c-5.5,5.3-16.3,6.6-20.9,0.6c-4-5.3-1.2-12.5,0.7-18.7
		c2.7-8.4,3.7-17.3,3.1-26c-0.3-4-1-8.1-0.1-12c0.9-3.9,3.8-7.9,8.1-8.6c5.9-1.1,11.1,4,13.7,9
		C1367.7,592.3,1368,622.5,1355.8,634.3z"/>
</g>
<g id="ek57ppnncy612_2_">
	<path id="ek57ppnncy613_2_" class="st0" d="M1149.4,726.6c-16.6-5.8-25.7-22.1-33.4-37c-11.8,2.2-22-8.1-27.1-18.2
		c-9.3-18.2-11.5-39.5-6.1-59c3.7-13.8,11.2-27,10.8-41.2c-0.5-14.2-8.8-27-17.5-38.7c-9.9-13.5-23.3-19.2-28.4-21.6
		c-13.1-6-24.9-7.6-32.1-8c4.4-1.2,8.7-2.3,13.1-3.5c11.4-3.6,21-4.3,28.2-3.9c14.7,0.7,22.4,5.1,29,0.8c5-3.2,6.7-9.5,6.1-15
		c-0.6-5.5-3.1-10.8-5-16.1c-8.8-24.6-4.9-52.9,10.3-74.7c3.7-5.4,8.4-10.5,14.6-13.2c6.2-2.7,14.4-2.4,19.2,2.1
		c4.9-23.5,22.2-47.4,47.9-51c15.5-2.1,32.2,4.1,41.8,15.7s11.7,28.1,5.3,41.4c30.4,8.4,55.3,33.7,58.5,62.9
		c3.2,29.1-17.5,59.8-48,67.6c11.3,5.9,27.2,15.5,33.9,31.5c6.7,16,3.6,46.6-4.6,62.1c-8.2,15.5-27.8,26-45.7,21.6
		c5.3,25.5,7.9,54.4-9.2,75c-6.6,7.8-15.6,13.8-25.5,17.7C1174,728.5,1160.9,730.6,1149.4,726.6z"/>
	<path id="ek57ppnncy614_2_" class="st1" d="M1116,689.7c-11.8,2.2-22-8.1-27.1-18.2c-9.3-18.2-11.5-39.5-6.1-59
		c3.7-13.8,11.2-27,10.8-41.2c-0.5-14.2-8.8-27-17.5-38.7c-4.2-5.7-13.7-16.6-28.4-21.6c-3.3-1.1-8.4-2.4-11.4-3.2
		c-9-2.3-16.6-3.9-21.9-4.8c18.2-6.5,32.5-7.6,42.5-7.3c6.5,0.1,16.4,1.1,24.4-4.5c2-1.4,6.2-4.8,7.8-10.3
		c2.1-6.9-1.1-13.3-2.1-15.5c-10.5-22.8,0-59.9,10.3-74.7c3.7-5.4,8.4-10.5,14.6-13.2c6.2-2.7,14.4-2.4,19.2,2.1
		c4.2-20.2,17.6-40.7,37.6-48.3c-5.4,6.2-9.5,13.5-11.6,21.2c-4.4,16.1-0.4,34.1,10.6,47.3c-16.4-5.1-35.3,4.3-43.1,18.5
		c-7.8,14.2-5.9,31.8,1.4,46.2c3,5.9,6.9,11.7,7.8,18.3c0.9,6.5-2.6,14.2-9.6,15.6c-7.6,1.5-10.9,10.6-8.7,17.5
		c2.3,6.9,8.3,12.1,13.7,17.3c5.4,5.1,10.8,11.2,11.4,18.4c0.6,7.8-4.5,14.8-8.8,21.6c-6.5,10.3-11.4,21.3-14.6,32.9
		c-2.8,10.2-4.2,21.1-0.6,31c3.6,10,13.2,18.6,24.6,18.9c1.2-2.3,2.4-4.5,3.6-6.7c3.4,9.3,16.9,12.8,26.8,9.1
		c9.9-3.7,16.6-12.3,21.3-21.2c0.1,8.1,9.3,13.5,17.8,15.3c4.2,0.9,8.6,1.4,12.8,2.2c1.5,18.6-0.7,37.3-12.8,51.7
		c-6.6,7.8-15.6,13.8-25.5,17.7c-11.4,4.5-24.5,6.6-36.1,2.6C1132.6,720.8,1123.5,704.6,1116,689.7z"/>
	<path id="ek57ppnncy615_2_" class="st2" d="M1260.9,431.5c4,8.7,6.2,32.8-8.1,34.8c-4.8,0.7-9.2-2.9-11.6-6.8
		c-2.3-4-3.2-8.5-5.4-12.5c-2.4-4.4-6.4-8.1-11.1-10.3c-6.9-3.2-16-4-19.8-10.3c-2.9-4.9-1-11.5,3.6-15.3c4.5-3.7,10.9-5,17-4.8
		C1241.7,407,1254.9,418,1260.9,431.5z"/>
	<path id="ek57ppnncy616_2_" class="st2" d="M1256.4,594.6c-3.9,3.7-11.5,4.7-14.7,0.4c-2.9-3.7-0.9-8.8,0.5-13.2
		c1.9-5.9,2.6-12.2,2.2-18.4c-0.2-2.9-0.7-5.7-0.1-8.5c0.7-2.8,2.7-5.6,5.7-6.1c4.2-0.8,7.8,2.9,9.7,6.4
		C1264.8,564.9,1265,586.2,1256.4,594.6z"/>
</g>
<g id="ek57ppnncy617_2_">
	<path id="ek57ppnncy618_2_" class="st0" d="M1120.3,653.8c-11.3-3.9-17.5-15-22.7-25.1c-8,1.5-14.9-5.5-18.4-12.3
		c-6.3-12.3-7.8-26.8-4.1-40c2.5-9.4,7.6-18.3,7.3-28c-0.3-9.6-6-18.3-11.9-26.3c-6.7-9.2-15.8-13-19.3-14.6
		c-8.9-4.1-16.9-5.1-21.8-5.4c3-0.8,5.9-1.6,8.9-2.4c7.8-2.4,14.2-2.9,19.1-2.6c10,0.4,15.2,3.5,19.7,0.5c3.4-2.2,4.5-6.4,4.1-10.2
		s-2.1-7.3-3.4-11c-6-16.7-3.3-35.9,7-50.7c2.5-3.6,5.7-7.1,9.9-9c4.2-1.8,9.8-1.6,13,1.4c3.3-16,15.1-32.2,32.5-34.6
		c10.6-1.4,21.9,2.8,28.4,10.7c6.5,7.9,7.9,19.1,3.6,28.1c20.6,5.7,37.5,22.9,39.7,42.7c2.1,19.8-11.9,40.6-32.6,45.9
		c7.7,4,18.5,10.6,23,21.4c4.6,10.9,2.4,31.7-3.1,42.1c-5.6,10.5-18.9,17.7-31,14.6c3.6,17.3,5.4,36.9-6.3,50.9
		c-4.5,5.3-10.6,9.4-17.3,12C1137.1,655.1,1128.2,656.5,1120.3,653.8z"/>
	<path id="ek57ppnncy619_2_" class="st1" d="M1097.7,628.8c-8,1.5-14.9-5.5-18.4-12.3c-6.3-12.3-7.8-26.8-4.1-40
		c2.5-9.4,7.6-18.3,7.3-28c-0.3-9.6-6-18.3-11.9-26.3c-2.8-3.9-9.3-11.3-19.3-14.6c-2.2-0.7-5.7-1.6-7.7-2.2
		c-6.1-1.6-11.3-2.6-14.8-3.3c12.3-4.4,22.1-5.1,28.8-5c4.4,0.1,11.1,0.7,16.5-3.1c1.3-0.9,4.2-3.3,5.3-7c1.4-4.7-0.7-9-1.4-10.6
		c-7.1-15.5,0-40.6,7-50.7c2.5-3.6,5.7-7.1,9.9-9c4.2-1.8,9.8-1.6,13,1.4c2.8-13.7,12-27.6,25.5-32.8c-3.7,4.2-6.4,9.2-7.9,14.4
		c-3,11-0.2,23.2,7.2,32.1c-11.1-3.4-24,2.9-29.2,12.5c-5.2,9.6-4,21.6,0.9,31.4c2,4,4.7,8,5.3,12.4s-1.8,9.7-6.5,10.6
		c-5.2,1-7.4,7.2-5.9,11.9c1.5,4.7,5.6,8.2,9.3,11.8c3.7,3.5,7.3,7.6,7.7,12.5c0.4,5.3-3.1,10.1-6,14.6c-4.4,7-7.8,14.5-9.9,22.3
		c-1.9,6.9-2.8,14.3-0.4,21.1s9,12.6,16.7,12.8c0.8-1.5,1.6-3,2.4-4.5c2.3,6.3,11.5,8.7,18.2,6.2c6.7-2.5,11.3-8.4,14.4-14.4
		c0.1,5.5,6.3,9.2,12.1,10.4c2.8,0.6,5.8,0.9,8.7,1.5c1,12.6-0.4,25.3-8.7,35.1c-4.5,5.3-10.6,9.4-17.3,12
		c-7.7,3.1-16.6,4.5-24.5,1.7C1108.9,649.9,1102.8,638.9,1097.7,628.8z"/>
	<path id="ek57ppnncy620_2_" class="st2" d="M1196.1,453.5c2.7,5.9,4.2,22.3-5.5,23.6c-3.3,0.4-6.3-1.9-7.9-4.6
		c-1.5-2.7-2.2-5.8-3.7-8.5c-1.6-3-4.3-5.5-7.6-7c-4.7-2.2-10.9-2.7-13.4-7c-2-3.3-0.6-7.8,2.4-10.4c3.1-2.5,7.4-3.4,11.6-3.2
		C1183,436.8,1192,444.3,1196.1,453.5z"/>
	<path id="ek57ppnncy621_2_" class="st2" d="M1193,564.2c-2.6,2.5-7.8,3.2-10,0.3c-1.9-2.5-0.6-6,0.3-9c1.3-4,1.8-8.3,1.5-12.5
		c-0.1-1.9-0.5-3.9,0-5.8c0.5-1.9,1.8-3.8,3.9-4.1c2.8-0.5,5.3,1.9,6.6,4.3C1198.7,544,1198.9,558.5,1193,564.2z"/>
</g>
<g id="ek57ppnncy632_2_" class="st3">
	<path id="ek57ppnncy633_2_" class="st0" d="M209.7,814.5c-14-5.6-26.8-14-36.1-25.1c-24.3-29.1-20.5-69.9-13.1-106
		c-25.3,6.3-53-8.7-64.6-30.5s-16.1-65.2-6.5-87.8c9.4-22.6,32-36.3,47.9-44.6c-43.3-11.1-72.4-54.5-68-95.7
		c4.5-41.3,39.7-77.1,82.7-88.9c-9-18.9-6.1-42.2,7.5-58.6c13.6-16.4,37.1-25.2,59.1-22.2c36.3,5.1,60.8,38.8,67.8,72.1
		c6.8-6.4,18.4-6.8,27.2-3c8.8,3.8,15.4,11.1,20.6,18.7c21.6,30.8,27.1,70.8,14.6,105.6c-2.7,7.6-6.2,14.9-7.1,22.8
		c-0.8,7.9,1.6,16.7,8.6,21.3c9.3,6.1,20.2-0.2,41-1.1c10.2-0.5,23.7,0.4,39.8,5.5c6.2,1.7,12.3,3.3,18.6,5
		c-10.1,0.6-26.9,2.8-45.3,11.3c-7.2,3.3-26.1,11.4-40.2,30.5c-12.2,16.6-24,34.8-24.7,54.8c-0.6,20.1,10,38.8,15.3,58.3
		c7.7,27.6,4.6,57.7-8.6,83.4c-7.3,14.3-21.7,28.8-38.4,25.7c-10.8,21.1-23.7,44.1-47.2,52.3C244.3,823.9,225.7,821,209.7,814.5z"/>
	<path id="ek57ppnncy634_2_" class="st1" d="M260.7,818.3c-16.4,5.7-35,2.8-51-3.6c-14-5.6-26.8-14-36.1-25.1
		c-17.1-20.4-20.2-46.8-18.1-73.2c5.9-1.1,12.1-1.9,18.1-3.1c12-2.6,25-10.2,25.2-21.7c6.6,12.6,16.1,24.8,30.1,30s33.1,0.3,38-12.9
		c1.7,3.1,3.4,6.2,5.1,9.4c16.1-0.4,29.7-12.6,34.8-26.7s3.1-29.5-0.8-43.9c-4.5-16.3-11.5-32-20.6-46.5c-6-9.5-13.3-19.5-12.5-30.5
		c0.8-10.2,8.4-18.8,16.1-26c7.7-7.4,16.2-14.7,19.4-24.5c3.2-9.8-1.5-22.6-12.2-24.8c-9.9-2-14.8-12.9-13.6-22.1
		c1.2-9.2,6.7-17.4,11-25.8c10.3-20.4,13-45.2,2-65.4s-37.8-33.3-60.9-26.1c15.6-18.7,21.3-44.1,15-66.9c-3-10.9-8.7-21.2-16.4-30
		c28.3,10.8,47.3,39.7,53.2,68.4c6.8-6.4,18.4-6.8,27.2-3c8.8,3.8,15.4,11.1,20.6,18.7c14.6,21,29.5,73.4,14.6,105.6
		c-1.5,3.2-6,12.2-3,22c2.4,7.7,8.3,12.6,11.1,14.5c11.3,8,25.2,6.6,34.4,6.4c14.1-0.3,34.3,1.2,60.1,10.4
		c-7.4,1.3-18.2,3.5-30.9,6.8c-4.3,1.1-11.4,3-16.1,4.6c-20.8,7.1-34.2,22.4-40.2,30.5c-12.2,16.6-24,34.8-24.7,54.8
		c-0.6,20.1,10,38.8,15.3,58.3c7.7,27.6,4.6,57.7-8.6,83.4c-7.3,14.3-21.7,28.8-38.4,25.7C297.2,787.1,284.4,810.1,260.7,818.3z"/>
	<path id="ek57ppnncy635_2_" class="st2" d="M153,365.1c8.6-0.3,17.6,1.5,24.1,6.7c6.5,5.2,9.2,14.6,5.1,21.6
		c-5.4,8.8-18.3,10-28,14.5c-6.7,3.1-12.3,8.3-15.8,14.5c-3.1,5.7-4.5,12.1-7.7,17.7c-3.3,5.6-9.5,10.6-16.4,9.6
		c-20.3-2.8-17.1-36.8-11.5-49.2C111.3,381.6,130,366.1,153,365.1z"/>
	<path id="ek57ppnncy636_2_" class="st2" d="M104.4,575.8c2.6-5,7.8-10.2,13.7-9c4.3,0.7,7.2,4.7,8.1,8.6s0.2,8-0.1,12
		c-0.6,8.7,0.4,17.6,3.1,26c2,6.2,4.8,13.4,0.7,18.7c-4.6,6-15.4,4.7-20.9-0.6C97,619.7,97.3,589.5,104.4,575.8z"/>
</g>
<g id="ek57ppnncy642_2_" class="st3">
	<path id="ek57ppnncy643_2_" class="st0" d="M311,655.3c-6.7-2.7-12.8-6.7-17.3-12c-11.7-13.9-9.9-33.6-6.3-50.9
		c-12.1,3-25.4-4.2-31-14.6c-5.6-10.5-7.7-31.3-3.1-42.1c4.5-10.9,15.3-17.4,23-21.4c-20.8-5.3-34.8-26.1-32.6-45.9
		c2.1-19.8,19.1-37,39.7-42.7c-4.3-9.1-2.9-20.3,3.6-28.1c6.5-7.9,17.8-12.1,28.4-10.7c17.4,2.4,29.2,18.6,32.5,34.6
		c3.3-3.1,8.8-3.3,13-1.4c4.2,1.8,7.4,5.3,9.9,9c10.4,14.8,13,34,7,50.7c-1.3,3.6-3,7.2-3.4,11c-0.4,3.8,0.7,8,4.1,10.2
		c4.5,2.9,9.7-0.1,19.7-0.5c4.9-0.2,11.4,0.2,19.1,2.6c3,0.8,5.9,1.6,8.9,2.4c-4.8,0.3-12.9,1.3-21.8,5.4
		c-3.4,1.6-12.5,5.5-19.3,14.6c-5.9,8-11.5,16.7-11.9,26.3c-0.3,9.7,4.8,18.6,7.3,28c3.7,13.2,2.2,27.7-4.1,40
		c-3.5,6.9-10.4,13.8-18.4,12.3c-5.2,10.1-11.4,21.2-22.7,25.1C327.6,659.8,318.7,658.4,311,655.3z"/>
	<path id="ek57ppnncy644_2_" class="st1" d="M335.5,657.1c-7.9,2.7-16.8,1.3-24.5-1.7c-6.7-2.7-12.8-6.7-17.3-12
		c-8.2-9.8-9.7-22.5-8.7-35.1c2.8-0.5,5.8-0.9,8.7-1.5c5.8-1.2,12-4.9,12.1-10.4c3.2,6,7.7,11.9,14.4,14.4s15.9,0.1,18.2-6.2
		c0.8,1.5,1.6,3,2.4,4.5c7.7-0.2,14.2-6,16.7-12.8c2.4-6.8,1.5-14.1-0.4-21.1c-2.1-7.8-5.5-15.3-9.9-22.3c-2.9-4.6-6.4-9.4-6-14.6
		c0.4-4.9,4-9,7.7-12.5c3.7-3.5,7.8-7.1,9.3-11.8c1.5-4.7-0.7-10.9-5.9-11.9c-4.7-0.9-7.1-6.2-6.5-10.6c0.6-4.4,3.2-8.4,5.3-12.4
		c4.9-9.8,6.2-21.7,0.9-31.4c-5.3-9.7-18.1-16-29.2-12.5c7.5-9,10.2-21.2,7.2-32.1c-1.4-5.2-4.2-10.2-7.9-14.4
		c13.6,5.2,22.7,19.1,25.5,32.8c3.3-3.1,8.8-3.3,13-1.4c4.2,1.8,7.4,5.3,9.9,9c7,10.1,14.1,35.2,7,50.7c-0.7,1.5-2.9,5.9-1.4,10.6
		c1.1,3.7,4,6,5.3,7c5.4,3.8,12.1,3.2,16.5,3.1c6.8-0.1,16.5,0.6,28.8,5c-3.5,0.6-8.7,1.7-14.8,3.3c-2,0.5-5.5,1.4-7.7,2.2
		c-10,3.4-16.4,10.8-19.3,14.6c-5.9,8-11.5,16.7-11.9,26.3c-0.3,9.7,4.8,18.6,7.3,28c3.7,13.2,2.2,27.7-4.1,40
		c-3.5,6.9-10.4,13.8-18.4,12.3C353,642.2,346.8,653.2,335.5,657.1z"/>
	<path id="ek57ppnncy645_2_" class="st2" d="M283.8,439.7c4.1-0.1,8.5,0.7,11.6,3.2c3.1,2.5,4.4,7,2.4,10.4c-2.6,4.2-8.8,4.8-13.4,7
		c-3.2,1.5-5.9,4-7.6,7c-1.5,2.7-2.1,5.8-3.7,8.5c-1.6,2.7-4.6,5.1-7.9,4.6c-9.8-1.3-8.2-17.7-5.5-23.6
		C263.8,447.6,272.7,440.1,283.8,439.7z"/>
	<path id="ek57ppnncy646_2_" class="st2" d="M260.5,540.8c1.2-2.4,3.7-4.9,6.6-4.3c2,0.3,3.4,2.2,3.9,4.1c0.5,1.9,0.1,3.8,0,5.8
		c-0.3,4.2,0.2,8.5,1.5,12.5c0.9,3,2.3,6.4,0.3,9c-2.2,2.9-7.4,2.2-10-0.3C256.9,561.8,257,547.3,260.5,540.8z"/>
</g>
<g id="ek57ppnncy647_2_" class="st3">
	<path id="ek57ppnncy648_2_" class="st0" d="M355.6,581.8c-3.5-1.4-6.8-3.5-9.1-6.3c-6.1-7.3-5.2-17.7-3.3-26.8
		c-6.4,1.6-13.4-2.2-16.3-7.7c-2.9-5.5-4.1-16.5-1.7-22.2c2.4-5.7,8.1-9.2,12.1-11.3c-10.9-2.8-18.3-13.8-17.2-24.2
		c1.1-10.4,10-19.5,20.9-22.5c-2.3-4.8-1.5-10.7,1.9-14.8c3.4-4.1,9.4-6.4,15-5.6c9.2,1.3,15.4,9.8,17.1,18.2
		c1.7-1.6,4.6-1.7,6.9-0.8c2.2,1,3.9,2.8,5.2,4.7c5.5,7.8,6.8,17.9,3.7,26.7c-0.7,1.9-1.6,3.8-1.8,5.8c-0.2,2,0.4,4.2,2.2,5.4
		c2.4,1.5,5.1-0.1,10.4-0.3c2.6-0.1,6,0.1,10.1,1.4c1.6,0.4,3.1,0.8,4.7,1.3c-2.5,0.2-6.8,0.7-11.5,2.9c-1.8,0.8-6.6,2.9-10.2,7.7
		c-3.1,4.2-6.1,8.8-6.2,13.9c-0.2,5.1,2.5,9.8,3.9,14.7c1.9,7,1.2,14.6-2.2,21.1c-1.8,3.6-5.5,7.3-9.7,6.5
		c-2.7,5.3-6,11.2-11.9,13.2C364.4,584.2,359.7,583.4,355.6,581.8z"/>
	<path id="ek57ppnncy649_2_" class="st1" d="M368.5,582.7c-4.1,1.4-8.8,0.7-12.9-0.9c-3.5-1.4-6.8-3.5-9.1-6.3
		c-4.3-5.2-5.1-11.8-4.6-18.5c1.5-0.3,3.1-0.5,4.6-0.8c3-0.7,6.3-2.6,6.4-5.5c1.7,3.2,4.1,6.3,7.6,7.6c3.5,1.3,8.4,0.1,9.6-3.3
		c0.4,0.8,0.9,1.6,1.3,2.4c4.1-0.1,7.5-3.2,8.8-6.7c1.3-3.6,0.8-7.5-0.2-11.1c-1.1-4.1-2.9-8.1-5.2-11.8c-1.5-2.4-3.4-4.9-3.1-7.7
		c0.2-2.6,2.1-4.7,4.1-6.6c1.9-1.9,4.1-3.7,4.9-6.2s-0.4-5.7-3.1-6.3c-2.5-0.5-3.8-3.3-3.4-5.6c0.3-2.3,1.7-4.4,2.8-6.5
		c2.6-5.2,3.3-11.4,0.5-16.5c-2.8-5.1-9.6-8.4-15.4-6.6c3.9-4.7,5.4-11.2,3.8-16.9c-0.8-2.8-2.2-5.4-4.1-7.6
		c7.2,2.7,12,10,13.5,17.3c1.7-1.6,4.6-1.7,6.9-0.8c2.2,1,3.9,2.8,5.2,4.7c3.7,5.3,7.5,18.5,3.7,26.7c-0.4,0.8-1.5,3.1-0.8,5.6
		c0.6,1.9,2.1,3.2,2.8,3.7c2.9,2,6.4,1.7,8.7,1.6c3.6-0.1,8.7,0.3,15.2,2.6c-1.9,0.3-4.6,0.9-7.8,1.7c-1.1,0.3-2.9,0.8-4.1,1.2
		c-5.2,1.8-8.7,5.7-10.2,7.7c-3.1,4.2-6.1,8.8-6.2,13.9c-0.2,5.1,2.5,9.8,3.9,14.7c1.9,7,1.2,14.6-2.2,21.1
		c-1.8,3.6-5.5,7.3-9.7,6.5C377.8,574.9,374.5,580.7,368.5,582.7z"/>
	<path id="ek57ppnncy650_2_" class="st2" d="M341.3,468.2c2.2-0.1,4.5,0.4,6.1,1.7c1.6,1.3,2.3,3.7,1.3,5.5
		c-1.4,2.2-4.6,2.5-7.1,3.7c-1.7,0.8-3.1,2.1-4,3.7c-0.8,1.4-1.1,3.1-1.9,4.5c-0.8,1.4-2.4,2.7-4.1,2.4c-5.1-0.7-4.3-9.3-2.9-12.4
		C330.7,472.3,335.5,468.4,341.3,468.2z"/>
	<path id="ek57ppnncy651_2_" class="st2" d="M329,521.4c0.7-1.3,2-2.6,3.5-2.3c1.1,0.2,1.8,1.2,2,2.2c0.2,1,0.1,2,0,3
		c-0.2,2.2,0.1,4.5,0.8,6.6c0.5,1.6,1.2,3.4,0.2,4.7c-1.2,1.5-3.9,1.2-5.3-0.2C327.1,532.5,327.2,524.9,329,521.4z"/>
</g>
<g>
	<path class="st4" d="M944.3,415.9v168.7h-36.6V416.3C907.7,416.3,943.9,416.3,944.3,415.9z"/>
	<polygon class="st5" points="944.4,427.5 1052.1,430.7 1051.7,570.9 944,577.8 	"/>
	<path class="st6" d="M1031.6,455.7v3c0,5-4.1,9.1-9.1,9.1h-79v-21.1c0,0,56.5,0,79,0C1027.5,446.6,1031.6,450.6,1031.6,455.7z"/>
	<path class="st6" d="M1031.6,501.2v3c0,5-4.1,9.1-9.1,9.1h-79v-21.1c0,0,56.5,0,79,0C1027.5,492.1,1031.6,496.2,1031.6,501.2z"/>
	<path class="st6" d="M1031.6,545.3v3c0,5-4.1,9.1-9.1,9.1h-79v-21.1c0,0,56.5,0,79,0C1027.5,536.3,1031.6,540.3,1031.6,545.3z"/>
	<rect x="943.6" y="429.6" class="st7" width="8.9" height="145.1"/>
	<path class="st4" d="M532.7,415.9v168.7h36.6V416.3C569.3,416.3,533.1,416.3,532.7,415.9z"/>
	<polygon class="st5" points="532.6,425.3 424.9,428.5 425.3,568.7 533,575.7 	"/>
	<path class="st6" d="M445.4,453.5v3c0,5,4.1,9.1,9.1,9.1h79v-21.1c0,0-56.5,0-79,0C449.4,444.4,445.4,448.5,445.4,453.5z"/>
	<path class="st6" d="M445.4,499v3c0,5,4.1,9.1,9.1,9.1h79V490c0,0-56.5,0-79,0C449.4,489.9,445.4,494,445.4,499z"/>
	<path class="st6" d="M445.4,543.2v3c0,5,4.1,9.1,9.1,9.1h79v-21.1c0,0-56.5,0-79,0C449.4,534.1,445.4,538.1,445.4,543.2z"/>
	
		<rect x="524.3" y="427.6" transform="matrix(-1 -4.475854e-11 4.475854e-11 -1 1057.639 1000.2623)" class="st7" width="8.9" height="145.1"/>
	<rect x="892.3" y="417.2" class="st8" width="11.8" height="166.5"/>
	<rect x="903.6" y="444.9" class="st9" width="4.3" height="114.6"/>
	<rect x="788.1" y="444.6" class="st9" width="105.4" height="114.6"/>
	
		<rect x="655.2" y="322.7" transform="matrix(-1.836970e-16 1 -1 -1.836970e-16 1107.9983 -348.0855)" class="st9" width="145.7" height="114.6"/>
	<path class="st9" d="M635.1,213.7V299c0,11.5,9.3,20.9,20.9,20.9h142.4c11.5,0,20.9-9.3,20.9-20.9v-85.4c0-11.5-9.3-20.9-20.9-20.9
		H656C644.4,192.8,635.1,202.2,635.1,213.7z"/>
	<path class="st10" d="M624.1,181.9v18.4c0,5.9,4.8,10.6,10.6,10.6h182.7c5.9,0,10.6-4.8,10.6-10.6v-18.4c0-5.9-4.8-10.6-10.6-10.6
		H634.8C628.9,171.3,624.1,176,624.1,181.9z"/>
	
		<rect x="572.5" y="417.2" transform="matrix(-1 -1.224647e-16 1.224647e-16 -1 1156.7335 1000.8042)" class="st8" width="11.8" height="166.5"/>
	
		<rect x="568.6" y="441.3" transform="matrix(-1 -1.224647e-16 1.224647e-16 -1 1141.5612 997.2143)" class="st9" width="4.3" height="114.6"/>
	
		<rect x="583" y="441.6" transform="matrix(-1 -1.224647e-16 1.224647e-16 -1 1271.4398 997.8239)" class="st9" width="105.4" height="114.6"/>
	<circle class="st11" cx="726.5" cy="500.7" r="84.7"/>
	<circle class="st4" cx="726.9" cy="500.7" r="73.4"/>
	<circle class="st12" cx="726.5" cy="500.7" r="22.7"/>
	<circle class="st13" cx="726.5" cy="500.7" r="6.2"/>
</g>
<g id="ek57ppnncy6113_2_">
	<path id="ek57ppnncy6114_2_" class="st0" d="M786.4,273.4c-21.8-6-47.2-6-67.4,2s-34.2,25-31.6,41.8c-55.1-17.5-125-3.9-160.1,31.2
		c-35.2,35-32,88,7.2,121.5c-39.4,3-70.8,27.2-82.9,54.7c-12.2,27.4-8.2,57.5,0.2,85.9c9.5,32.2,28.2,66.9,68.8,81.5
		c4.9,1.8,10.3,3.4,13.3,6.7c2.8,3.2,2.6,7.1,2.7,10.8c1.9,40.3,51.8,72.5,104.7,84.1c48.9,10.7,103.7,7.9,147.5-10.7
		c43.6-18.6,74.4-53.7,75.2-90.8c10.7,10.6,32.8,12.4,49,6.8c16.2-5.5,27.6-16.5,36.5-27.8c37.7-47.4,42.7-109.9,4-157.6
		c42.6-22.6,49.8-70.1,25.7-104.9c-26.6-38.3-72.6-43.9-113.1-69.1C833.1,319,833.1,286.4,786.4,273.4z"/>
	<path id="ek57ppnncy6115_2_" class="st2" d="M735.5,350c38-0.6,73.4,25.2,72.6,53c14.9-9.1,37.5-8.9,55.1-2.6
		c17.6,6.3,30.6,17.9,40.4,30.3c17.9,22.7,26.2,50.7,14,75.1c-12.2,24.4-48.3,42.6-83.2,37c18.3-17.2,26.1-41.4,14.4-61.8
		c-11.6-20.3-45.4-33.9-73.5-26.4c12.8-3.4,1.1-38.5-2.9-44.5c-12-17.9-30.4-22.9-55.5-25.6c-12.5-1.4-36.2,4-39.5-7.6
		C673.3,362.4,722.7,350.2,735.5,350z"/>
	<path id="ek57ppnncy6116_2_" class="st2" d="M742.4,511c31.1,16,40.2,46.8,18.7,63.4c18.7,1,37,10.7,46.4,22
		c9.4,11.3,11.3,24.1,9.9,35.8c-2.6,21.4-17.1,42-45.1,51.6c-28.1,9.6-71,5.2-94.9-13.2c27.7-2.6,52.3-14,58-31.3
		c5.9-17.4-11.2-40.1-39.4-47.6c12.8,3.4,29.8-22.9,31-28.2c3.7-16-7.4-26.9-25.5-39.4c-9.1-6.3-32.2-13.1-26.2-21.6
		C682.8,491.8,731.8,505.5,742.4,511z"/>
</g>
<g id="ek57ppnncy6117_2_">
	<path id="ek57ppnncy6118_2_" class="st0" d="M604.1,337.4c-17.3,3.3-33.1,11.7-40.9,23.5s-6.4,27.1,5.3,37
		c-44.9,7-80.5,38.6-81.4,72.5c-1,33.9,32.8,66.5,77.3,74.9c-22.8,14.9-27.9,40.6-19,62c8.8,21.4,29.4,39.2,51.6,54.5
		c25.3,17.4,57.8,33.3,91.8,29.1c4.1-0.4,8.4-1.3,12.3-0.1c3.6,1.1,5.8,3.6,8.2,6c25.4,25,75.9,29,115.9,18.9
		c37-9.3,69.6-29.1,85.8-55.4c16.1-26.2,14.4-58.6-7.4-82.5c13.1,3.2,27.9-2.9,34.7-11.8c6.8-8.8,7.4-19.5,6.2-29.7
		c-4.9-42.5-39.2-83.9-92-101.5c13-28.4-11-61-47-75.2c-39.7-15.6-71.7-4-112.2-6.7C660.6,351,641,330.3,604.1,337.4z"/>
	<path id="ek57ppnncy6119_2_" class="st2" d="M618.1,402.8c23.4-12.9,61-8.1,77.2,9.8c3.9-10.7,18.1-18,32.8-19.8
		c14.7-1.8,29.9,1.3,43.5,6c24.8,8.5,46.8,23.6,53.8,43.1c7,19.5-4.6,43-29.9,50.9c1.1-16.9-8.6-34.9-28-44
		c-19.5-9.1-48.8-6.6-61.8,7.4c6-6.4-22.4-24.8-28.5-27.3c-18.2-7.4-32.7-4.6-50,2c-8.6,3.2-20.2,14.5-29.2,8.2
		C586.7,431.2,610.2,407.1,618.1,402.8z"/>
	<path id="ek57ppnncy6120_2_" class="st2" d="M718.9,502.8c29-0.1,53.2,16.6,49.7,34.2c12.3-5.5,29.5-5.4,42.2-1.3
		c12.7,4.1,21.5,11.6,27.6,19.5c11.2,14.5,14.5,32.3,2.8,47.6c-11.8,15.4-41.3,26.6-67.2,22.8c15.7-10.7,24.3-26.1,17.5-39
		c-6.7-13-31.1-21.9-53.2-17.3c10.1-2.1,4.9-24.4,2.5-28.1c-7.3-11.3-20.8-14.7-39.6-16.6c-9.4-1-28,2.3-29.3-5.1
		C670.2,510.3,709.1,502.8,718.9,502.8z"/>
</g>
<g id="ek57ppnncy6121_2_">
	<path id="ek57ppnncy6122_2_" class="st0" d="M772.6,382.2c-11.2-3.8-24.8-4.6-36-0.7c-11.3,3.8-19.7,12.4-19.4,21.5
		c-28.3-10.9-66.3-5.5-87.1,12.4c-20.8,17.8-22.4,46.3-3.6,65.2c-21.1,0.6-39.4,12.7-47.5,27c-8.1,14.4-7.8,30.5-5.1,46
		c3.1,17.5,10.9,36.6,31.7,45.5c2.5,1.1,5.3,2.1,6.6,4c1.3,1.8,0.9,3.8,0.8,5.9c-1.4,21.6,23.2,40.2,50.7,47.8
		c25.4,7.1,54.8,7.1,79.2-1.8c24.4-8.8,42.9-26.7,45.6-46.6c5,6,16.7,7.5,25.7,5c9-2.5,15.7-8.1,21.1-13.9
		c22.9-24.4,29.4-57.7,11.7-84.3c24.1-11,30.8-36.2,20-55.5c-11.9-21.3-36-25.5-56-40.1C794.7,407.9,796.7,390.4,772.6,382.2z"/>
	<path id="ek57ppnncy6123_2_" class="st2" d="M740.8,421.8c20.3,0.7,37.5,15.5,35.4,30.3c8.5-4.4,20.5-3.8,29.5,0.1
		c9,3.8,15.2,10.5,19.7,17.4c8.2,12.7,10.9,27.9,2.9,40.6c-8,12.7-28.3,21.5-46.6,17.5c10.8-8.7,16.4-21.5,11.4-32.7
		s-22.1-19.4-37.5-16.1c7-1.5,2.9-20.6,1.1-23.8c-5.3-9.9-14.8-13.1-28-15.2c-6.6-1.1-19.5,1.2-20.6-5.2
		C707,426.8,734,421.5,740.8,421.8z"/>
	<path id="ek57ppnncy6124_2_" class="st2" d="M734.7,508.2c15.6,9.4,18.6,26.2,6.1,34.4c9.9,1,19,6.7,23.4,13
		c4.3,6.3,4.6,13.2,3.1,19.4c-2.7,11.4-11.6,22.1-27.1,26.4c-15.5,4.4-38.1,0.8-49.7-9.6c14.9-0.7,28.7-6,32.8-15.2
		c4.2-9.1-3.5-21.8-18.1-26.6c6.6,2.2,17.3-11.4,18.2-14.3c2.9-8.5-2.3-14.6-11.2-21.8c-4.5-3.6-16.3-7.9-12.7-12.2
		C704.2,496.3,729.4,505,734.7,508.2z"/>
</g>
<g id="ek57ppnncy6125_2_">
	<path id="ek57ppnncy6126_2_" class="st0" d="M671.3,428.7c-8.3,1.3-16.1,4.9-20.2,10.4c-4.1,5.4-3.9,12.7,1.3,17.7
		c-21.5,2.5-39.5,16.9-41,33c-1.6,16,13.4,32.2,34.2,36.9c-11.3,6.7-14.6,18.8-11.1,29.1s12.7,19.1,22.7,26.8
		c11.4,8.7,26.3,16.8,42.6,15.5c2-0.1,4-0.4,5.8,0.1c1.7,0.6,2.6,1.8,3.7,2.9c11.2,12.3,35,15.1,54.4,11c17.9-3.8,34-12.6,42.5-24.7
		s8.7-27.5-0.8-39.3c6.1,1.8,13.3-0.9,16.9-5c3.5-4,4.1-9.1,3.9-14c-0.9-20.2-15.9-40.5-40.3-49.8c7.1-13.2-3.2-29.1-19.8-36.4
		c-18.3-8.1-33.9-3.2-53-5.2C697.7,436.2,689.1,425.9,671.3,428.7z"/>
	<path id="ek57ppnncy6127_2_" class="st2" d="M675.9,459.9c11.5-5.7,29.2-2.8,36.3,6c2.2-5,9.2-8.2,16.2-8.8
		c7-0.6,14.1,1.2,20.4,3.6c11.5,4.5,21.4,12,24.1,21.4c2.7,9.3-3.6,20.3-15.8,23.6c1.1-8-2.9-16.7-11.9-21.3
		c-8.9-4.6-22.9-4-29.6,2.4c3-2.9-9.8-12.1-12.6-13.5c-8.4-3.8-15.4-2.7-23.8,0.1c-4.2,1.4-10.1,6.6-14.1,3.4
		C660,472.9,672,461.9,675.9,459.9z"/>
	<path id="ek57ppnncy6128_2_" class="st2" d="M720.4,509.2c13.8,0.4,24.7,8.8,22.5,17.1c6-2.4,14.2-2.1,20.1,0.1
		c5.9,2.2,9.8,5.9,12.5,9.7c4.8,7.1,5.8,15.6-0.2,22.7c-6.1,7.1-20.5,11.9-32.6,9.6c7.8-4.9,12.4-11.9,9.6-18.2
		c-2.8-6.3-14-10.9-24.7-9.1c4.8-0.8,3.1-11.5,2.1-13.3c-3.1-5.5-9.4-7.4-18.2-8.6c-4.4-0.6-13.3,0.6-13.7-2.9
		C697.1,511.9,715.8,509,720.4,509.2z"/>
</g>
<g id="ek57ppnncy6129_2_">
	<path id="ek57ppnncy6130_2_" class="st0" d="M691.4,467.6c-4.8,0.7-9.3,2.9-11.7,6c-2.4,3.2-2.3,7.4,0.8,10.2
		c-12.5,1.5-22.8,9.8-23.7,19.1c-0.9,9.3,7.7,18.6,19.8,21.3c-6.5,3.8-8.4,10.9-6.4,16.9c2,6,7.3,11,13.1,15.5
		c6.6,5,15.2,9.7,24.7,8.9c1.1-0.1,2.3-0.2,3.4,0.1c1,0.4,1.5,1,2.1,1.7c6.5,7.1,20.3,8.8,31.5,6.4c10.3-2.1,19.7-7.3,24.6-14.4
		c4.9-7.1,5.1-16-0.5-22.7c3.5,1,7.7-0.5,9.8-2.9c2-2.4,2.4-5.3,2.2-8.1c-0.5-11.7-9.2-23.5-23.3-28.8c4.1-7.7-1.9-16.9-11.5-21.1
		c-10.6-4.7-19.6-1.8-30.7-3C706.6,471.9,701.6,466,691.4,467.6z"/>
	<path id="ek57ppnncy6131_2_" class="st2" d="M694,485.7c6.7-3.3,16.9-1.6,21,3.5c1.3-2.9,5.3-4.8,9.4-5.1c4.1-0.4,8.2,0.7,11.8,2.1
		c6.7,2.6,12.4,7,14,12.4c1.6,5.4-2.1,11.8-9.2,13.7c0.6-4.6-1.7-9.6-6.9-12.4c-5.2-2.7-13.3-2.4-17.1,1.4c1.8-1.7-5.7-7.1-7.3-7.8
		c-4.9-2.2-8.9-1.6-13.8,0c-2.4,0.8-5.8,3.8-8.2,1.9C684.8,493.1,691.7,486.8,694,485.7z"/>
	<path id="ek57ppnncy6132_2_" class="st2" d="M719.8,514.2c8,0.3,14.3,5.1,13,9.9c3.5-1.4,8.2-1.2,11.6,0.1c3.4,1.3,5.7,3.4,7.2,5.6
		c2.8,4.1,3.4,9.1-0.1,13.1c-3.5,4.1-11.8,6.9-18.9,5.6c4.5-2.8,7.2-6.9,5.5-10.5c-1.6-3.6-8.1-6.3-14.3-5.3
		c2.8-0.4,1.8-6.6,1.2-7.7c-1.8-3.2-5.4-4.3-10.5-4.9c-2.6-0.4-7.7,0.4-8-1.7C706.3,515.7,717.1,514,719.8,514.2z"/>
</g>
</svg>
