<svg id="e97FP6NuWDY1" xmlns="http://www.w3.org/2000/svg" xmlns:xlink="http://www.w3.org/1999/xlink" viewBox="0 0 1417.3 1417.3" shape-rendering="geometricPrecision" text-rendering="geometricPrecision"><style><![CDATA[#e97FP6NuWDY2 {animation: e97FP6NuWDY2_c_o 3500ms linear infinite normal forwards}@keyframes e97FP6NuWDY2_c_o { 0% {opacity: 0} 14.285714% {opacity: 0.3} 28.571429% {opacity: 0.6} 42.857143% {opacity: 0.3} 57.142857% {opacity: 0} 100% {opacity: 0}} #e97FP6NuWDY7 {animation: e97FP6NuWDY7_c_o 3500ms linear infinite normal forwards}@keyframes e97FP6NuWDY7_c_o { 0% {opacity: 0} 14.285714% {opacity: 0} 28.571429% {opacity: 0.3} 42.857143% {opacity: 0.6} 57.142857% {opacity: 0.3} 71.428571% {opacity: 0} 100% {opacity: 0}} #e97FP6NuWDY12 {animation: e97FP6NuWDY12_c_o 3500ms linear infinite normal forwards}@keyframes e97FP6NuWDY12_c_o { 0% {opacity: 0} 42.857143% {opacity: 0} 57.142857% {opacity: 0.3} 71.428571% {opacity: 0.7} 85.714286% {opacity: 0.3} 100% {opacity: 0}} #e97FP6NuWDY17 {animation: e97FP6NuWDY17_c_o 3500ms linear infinite normal forwards}@keyframes e97FP6NuWDY17_c_o { 0% {opacity: 0} 14.285714% {opacity: 0.3} 28.571429% {opacity: 0.6} 42.857143% {opacity: 0.3} 57.142857% {opacity: 0} 100% {opacity: 0}} #e97FP6NuWDY22 {animation: e97FP6NuWDY22_c_o 3500ms linear infinite normal forwards}@keyframes e97FP6NuWDY22_c_o { 0% {opacity: 0} 14.285714% {opacity: 0} 28.571429% {opacity: 0.3} 42.857143% {opacity: 0.6} 57.142857% {opacity: 0.3} 71.428571% {opacity: 0} 100% {opacity: 0}} #e97FP6NuWDY27 {animation: e97FP6NuWDY27_c_o 3500ms linear infinite normal forwards}@keyframes e97FP6NuWDY27_c_o { 0% {opacity: 0} 42.857143% {opacity: 0} 57.142857% {opacity: 0.3} 71.428571% {opacity: 0.7} 85.714286% {opacity: 0.3} 100% {opacity: 0}} #e97FP6NuWDY58 {animation: e97FP6NuWDY58_c_o 3500ms linear infinite normal forwards}@keyframes e97FP6NuWDY58_c_o { 0% {opacity: 0} 42.857143% {opacity: 0} 57.142857% {opacity: 0.3} 71.428571% {opacity: 0.6} 85.714286% {opacity: 0.3} 100% {opacity: 0}} #e97FP6NuWDY62 {animation: e97FP6NuWDY62_c_o 3500ms linear infinite normal forwards}@keyframes e97FP6NuWDY62_c_o { 0% {opacity: 0} 14.285714% {opacity: 0} 28.571429% {opacity: 0.3} 42.857143% {opacity: 0.6} 57.142857% {opacity: 0.3} 71.428571% {opacity: 0} 100% {opacity: 0}} #e97FP6NuWDY66 {animation: e97FP6NuWDY66_c_o 3500ms linear infinite normal forwards}@keyframes e97FP6NuWDY66_c_o { 0% {opacity: 0} 14.285714% {opacity: 0.3} 28.571429% {opacity: 0.6} 42.857143% {opacity: 0.3} 57.142857% {opacity: 0} 100% {opacity: 0}} #e97FP6NuWDY70 {animation: e97FP6NuWDY70_c_o 3500ms linear infinite normal forwards}@keyframes e97FP6NuWDY70_c_o { 0% {opacity: 0} 14.285714% {opacity: 0.3} 28.571429% {opacity: 0} 100% {opacity: 0}}]]></style><g id="e97FP6NuWDY2" opacity="0"><path d="M1120.3,653.8c-11.3-3.9-17.5-15-22.7-25.1-8,1.5-14.9-5.5-18.4-12.3-6.3-12.3-7.8-26.8-4.1-40c2.5-9.4,7.6-18.3,7.3-28-.3-9.6-6-18.3-11.9-26.3-6.7-9.2-15.8-13-19.3-14.6-8.9-4.1-16.9-5.1-21.8-5.4c3-.8,5.9-1.6,8.9-2.4c7.8-2.4,14.2-2.9,19.1-2.6c10,.4,15.2,3.5,19.7.5c3.4-2.2,4.5-6.4,4.1-10.2s-2.1-7.3-3.4-11c-6-16.7-3.3-35.9,7-50.7c2.5-3.6,5.7-7.1,9.9-9c4.2-1.8,9.8-1.6,13,1.4c3.3-16,15.1-32.2,32.5-34.6c10.6-1.4,21.9,2.8,28.4,10.7s7.9,19.1,3.6,28.1c20.6,5.7,37.5,22.9,39.7,42.7c2.1,19.8-11.9,40.6-32.6,45.9c7.7,4,18.5,10.6,23,21.4c4.6,10.9,2.4,31.7-3.1,42.1-5.6,10.5-18.9,17.7-31,14.6c3.6,17.3,5.4,36.9-6.3,50.9-4.5,5.3-10.6,9.4-17.3,12-7.5,3.2-16.4,4.6-24.3,1.9Z" fill="#d9d9d8"/><path d="M1097.7,628.8c-8,1.5-14.9-5.5-18.4-12.3-6.3-12.3-7.8-26.8-4.1-40c2.5-9.4,7.6-18.3,7.3-28-.3-9.6-6-18.3-11.9-26.3-2.8-3.9-9.3-11.3-19.3-14.6-2.2-.7-5.7-1.6-7.7-2.2-6.1-1.6-11.3-2.6-14.8-3.3c12.3-4.4,22.1-5.1,28.8-5c4.4.1,11.1.7,16.5-3.1c1.3-.9,4.2-3.3,5.3-7c1.4-4.7-.7-9-1.4-10.6-7.1-15.5,0-40.6,7-50.7c2.5-3.6,5.7-7.1,9.9-9c4.2-1.8,9.8-1.6,13,1.4c2.8-13.7,12-27.6,25.5-32.8-3.7,4.2-6.4,9.2-7.9,14.4-3,11-.2,23.2,7.2,32.1-11.1-3.4-24,2.9-29.2,12.5s-4,21.6.9,31.4c2,4,4.7,8,5.3,12.4s-1.8,9.7-6.5,10.6c-5.2,1-7.4,7.2-5.9,11.9s5.6,8.2,9.3,11.8c3.7,3.5,7.3,7.6,7.7,12.5.4,5.3-3.1,10.1-6,14.6-4.4,7-7.8,14.5-9.9,22.3-1.9,6.9-2.8,14.3-.4,21.1s9,12.6,16.7,12.8c.8-1.5,1.6-3,2.4-4.5c2.3,6.3,11.5,8.7,18.2,6.2s11.3-8.4,14.4-14.4c.1,5.5,6.3,9.2,12.1,10.4c2.8.6,5.8.9,8.7,1.5c1,12.6-.4,25.3-8.7,35.1-4.5,5.3-10.6,9.4-17.3,12-7.7,3.1-16.6,4.5-24.5,1.7-11.1-3.8-17.2-14.8-22.3-24.9Z" fill="#bcbcbb"/><path d="M1196.1,453.5c2.7,5.9,4.2,22.3-5.5,23.6-3.3.4-6.3-1.9-7.9-4.6-1.5-2.7-2.2-5.8-3.7-8.5-1.6-3-4.3-5.5-7.6-7-4.7-2.2-10.9-2.7-13.4-7-2-3.3-.6-7.8,2.4-10.4c3.1-2.5,7.4-3.4,11.6-3.2c11,.4,20,7.9,24.1,17.1Z" fill="#fff"/><path d="M1193,564.2c-2.6,2.5-7.8,3.2-10,.3-1.9-2.5-.6-6,.3-9c1.3-4,1.8-8.3,1.5-12.5-.1-1.9-.5-3.9,0-5.8s1.8-3.8,3.9-4.1c2.8-.5,5.3,1.9,6.6,4.3c3.4,6.6,3.6,21.1-2.3,26.8Z" fill="#fff"/></g><g id="e97FP6NuWDY7" opacity="0"><path d="M1149.4,726.6c-16.6-5.8-25.7-22.1-33.4-37-11.8,2.2-22-8.1-27.1-18.2-9.3-18.2-11.5-39.5-6.1-59c3.7-13.8,11.2-27,10.8-41.2-.5-14.2-8.8-27-17.5-38.7-9.9-13.5-23.3-19.2-28.4-21.6-13.1-6-24.9-7.6-32.1-8c4.4-1.2,8.7-2.3,13.1-3.5c11.4-3.6,21-4.3,28.2-3.9c14.7.7,22.4,5.1,29,.8c5-3.2,6.7-9.5,6.1-15s-3.1-10.8-5-16.1c-8.8-24.6-4.9-52.9,10.3-74.7c3.7-5.4,8.4-10.5,14.6-13.2s14.4-2.4,19.2,2.1c4.9-23.5,22.2-47.4,47.9-51c15.5-2.1,32.2,4.1,41.8,15.7s11.7,28.1,5.3,41.4c30.4,8.4,55.3,33.7,58.5,62.9c3.2,29.1-17.5,59.8-48,67.6c11.3,5.9,27.2,15.5,33.9,31.5s3.6,46.6-4.6,62.1-27.8,26-45.7,21.6c5.3,25.5,7.9,54.4-9.2,75-6.6,7.8-15.6,13.8-25.5,17.7-11.5,4.6-24.6,6.7-36.1,2.7Z" fill="#d9d9d8"/><path d="M1116,689.7c-11.8,2.2-22-8.1-27.1-18.2-9.3-18.2-11.5-39.5-6.1-59c3.7-13.8,11.2-27,10.8-41.2-.5-14.2-8.8-27-17.5-38.7-4.2-5.7-13.7-16.6-28.4-21.6-3.3-1.1-8.4-2.4-11.4-3.2-9-2.3-16.6-3.9-21.9-4.8c18.2-6.5,32.5-7.6,42.5-7.3c6.5.1,16.4,1.1,24.4-4.5c2-1.4,6.2-4.8,7.8-10.3c2.1-6.9-1.1-13.3-2.1-15.5-10.5-22.8,0-59.9,10.3-74.7c3.7-5.4,8.4-10.5,14.6-13.2s14.4-2.4,19.2,2.1c4.2-20.2,17.6-40.7,37.6-48.3-5.4,6.2-9.5,13.5-11.6,21.2-4.4,16.1-.4,34.1,10.6,47.3-16.4-5.1-35.3,4.3-43.1,18.5s-5.9,31.8,1.4,46.2c3,5.9,6.9,11.7,7.8,18.3.9,6.5-2.6,14.2-9.6,15.6-7.6,1.5-10.9,10.6-8.7,17.5c2.3,6.9,8.3,12.1,13.7,17.3c5.4,5.1,10.8,11.2,11.4,18.4.6,7.8-4.5,14.8-8.8,21.6-6.5,10.3-11.4,21.3-14.6,32.9-2.8,10.2-4.2,21.1-.6,31c3.6,10,13.2,18.6,24.6,18.9c1.2-2.3,2.4-4.5,3.6-6.7c3.4,9.3,16.9,12.8,26.8,9.1s16.6-12.3,21.3-21.2c.1,8.1,9.3,13.5,17.8,15.3c4.2.9,8.6,1.4,12.8,2.2c1.5,18.6-.7,37.3-12.8,51.7-6.6,7.8-15.6,13.8-25.5,17.7-11.4,4.5-24.5,6.6-36.1,2.6-16.5-5.9-25.6-22.1-33.1-37Z" fill="#bcbcbb"/><path d="M1260.9,431.5c4,8.7,6.2,32.8-8.1,34.8-4.8.7-9.2-2.9-11.6-6.8-2.3-4-3.2-8.5-5.4-12.5-2.4-4.4-6.4-8.1-11.1-10.3-6.9-3.2-16-4-19.8-10.3-2.9-4.9-1-11.5,3.6-15.3c4.5-3.7,10.9-5,17-4.8c16.2.7,29.4,11.7,35.4,25.2Z" fill="#fff"/><path d="M1256.4,594.6c-3.9,3.7-11.5,4.7-14.7.4-2.9-3.7-.9-8.8.5-13.2c1.9-5.9,2.6-12.2,2.2-18.4-.2-2.9-.7-5.7-.1-8.5.7-2.8,2.7-5.6,5.7-6.1c4.2-.8,7.8,2.9,9.7,6.4c5.1,9.7,5.3,31-3.3,39.4Z" fill="#fff"/></g><g id="e97FP6NuWDY12" opacity="0"><path d="M1204.4,821.1c-23.6-8.2-36.4-31.2-47.2-52.3-16.7,3.1-31.1-11.4-38.4-25.7-13.2-25.7-16.3-55.8-8.6-83.4c5.3-19.5,15.9-38.2,15.3-58.3-.7-20-12.5-38.2-24.7-54.8-14-19.1-33-27.2-40.2-30.5-18.5-8.5-35.3-10.7-45.3-11.3c6.2-1.7,12.3-3.3,18.6-5c16.2-5.1,29.7-6,39.8-5.5c20.8.9,31.6,7.3,41,1.1c7.1-4.6,9.4-13.4,8.6-21.3s-4.4-15.3-7.1-22.8c-12.5-34.9-7-74.8,14.6-105.6c5.3-7.6,11.8-14.8,20.6-18.7c8.8-3.8,20.3-3.4,27.2,3c7-33.3,31.4-67,67.8-72.1c22-3,45.6,5.8,59.1,22.2c13.6,16.4,16.5,39.7,7.5,58.6c43,11.8,78.2,47.6,82.7,88.9c4.5,41.2-24.7,84.6-68,95.7c16,8.3,38.5,22,47.9,44.6c9.5,22.6,5.1,66-6.5,87.8s-39.3,36.8-64.6,30.5c7.5,36.1,11.2,77-13.1,106-9.3,11.1-22.1,19.5-36.1,25.1-16.1,6.5-34.7,9.4-50.9,3.8Z" fill="#d9d9d8"/><path d="M1157.1,768.9c-16.7,3.1-31.1-11.4-38.4-25.7-13.2-25.7-16.3-55.8-8.6-83.4c5.3-19.5,15.9-38.2,15.3-58.3-.7-20-12.5-38.2-24.7-54.8-5.9-8.1-19.4-23.4-40.2-30.5-4.7-1.6-11.8-3.4-16.1-4.6-12.8-3.3-23.6-5.5-30.9-6.8c25.7-9.1,46-10.7,60.1-10.4c9.2.2,23.1,1.6,34.4-6.4c2.8-2,8.7-6.8,11.1-14.5c3-9.8-1.6-18.8-3-22-14.8-32.3,0-84.7,14.6-105.6c5.3-7.6,11.8-14.8,20.6-18.7c8.8-3.8,20.3-3.4,27.2,3c5.9-28.6,24.9-57.6,53.2-68.4-7.7,8.8-13.4,19.1-16.4,30-6.2,22.8-.5,48.2,15,66.9-23.1-7.2-49.9,6-60.9,26.1s-8.3,44.9,2,65.4c4.3,8.4,9.8,16.6,11,25.8s-3.7,20.1-13.6,22.1c-10.8,2.2-15.5,15-12.2,24.8c3.2,9.8,11.7,17.1,19.4,24.5c7.7,7.3,15.3,15.9,16.1,26c.8,11-6.4,21-12.5,30.5-9.1,14.5-16.2,30.2-20.6,46.5-3.9,14.4-5.9,29.8-.8,43.9s18.7,26.3,34.8,26.7c1.7-3.2,3.4-6.3,5.1-9.4c4.9,13.2,24,18.1,38,12.9s23.4-17.4,30.1-30c.2,11.5,13.2,19.1,25.2,21.7c5.9,1.2,12.1,2,18.1,3.1c2.2,26.4-.9,52.7-18.1,73.2-9.3,11.1-22.1,19.5-36.1,25.1-16.1,6.4-34.7,9.3-51,3.6-23.7-8.3-36.6-31.3-47.2-52.3Z" fill="#bcbcbb"/><path d="M1362.2,403.5c5.6,12.3,8.8,46.4-11.5,49.2-6.8.9-13.1-4-16.4-9.6-3.2-5.6-4.6-12-7.7-17.7-3.4-6.2-9-11.4-15.8-14.5-9.8-4.6-22.6-5.7-28-14.5-4.2-7-1.3-16.3,5.1-21.6s15.5-7.1,24.1-6.7c23,.8,41.7,16.3,50.2,35.4Z" fill="#fff"/><path d="M1355.8,634.3c-5.5,5.3-16.3,6.6-20.9.6-4-5.3-1.2-12.5.7-18.7c2.7-8.4,3.7-17.3,3.1-26-.3-4-1-8.1-.1-12s3.8-7.9,8.1-8.6c5.9-1.1,11.1,4,13.7,9c7.3,13.7,7.6,43.9-4.6,55.7Z" fill="#fff"/></g><g id="e97FP6NuWDY17" opacity="0"><path d="M355.6,581.8c-3.5-1.4-6.8-3.5-9.1-6.3-6.1-7.3-5.2-17.7-3.3-26.8-6.4,1.6-13.4-2.2-16.3-7.7s-4.1-16.5-1.7-22.2s8.1-9.2,12.1-11.3c-10.9-2.8-18.3-13.8-17.2-24.2s10-19.5,20.9-22.5c-2.3-4.8-1.5-10.7,1.9-14.8s9.4-6.4,15-5.6c9.2,1.3,15.4,9.8,17.1,18.2c1.7-1.6,4.6-1.7,6.9-.8c2.2,1,3.9,2.8,5.2,4.7c5.5,7.8,6.8,17.9,3.7,26.7-.7,1.9-1.6,3.8-1.8,5.8s.4,4.2,2.2,5.4c2.4,1.5,5.1-.1,10.4-.3c2.6-.1,6,.1,10.1,1.4c1.6.4,3.1.8,4.7,1.3-2.5.2-6.8.7-11.5,2.9-1.8.8-6.6,2.9-10.2,7.7-3.1,4.2-6.1,8.8-6.2,13.9-.2,5.1,2.5,9.8,3.9,14.7c1.9,7,1.2,14.6-2.2,21.1-1.8,3.6-5.5,7.3-9.7,6.5-2.7,5.3-6,11.2-11.9,13.2-4.2,1.4-8.9.6-13-1Z" fill="#d9d9d8"/><path d="M368.5,582.7c-4.1,1.4-8.8.7-12.9-.9-3.5-1.4-6.8-3.5-9.1-6.3-4.3-5.2-5.1-11.8-4.6-18.5c1.5-.3,3.1-.5,4.6-.8c3-.7,6.3-2.6,6.4-5.5c1.7,3.2,4.1,6.3,7.6,7.6s8.4.1,9.6-3.3c.4.8.9,1.6,1.3,2.4c4.1-.1,7.5-3.2,8.8-6.7c1.3-3.6.8-7.5-.2-11.1-1.1-4.1-2.9-8.1-5.2-11.8-1.5-2.4-3.4-4.9-3.1-7.7.2-2.6,2.1-4.7,4.1-6.6c1.9-1.9,4.1-3.7,4.9-6.2s-.4-5.7-3.1-6.3c-2.5-.5-3.8-3.3-3.4-5.6.3-2.3,1.7-4.4,2.8-6.5c2.6-5.2,3.3-11.4.5-16.5s-9.6-8.4-15.4-6.6c3.9-4.7,5.4-11.2,3.8-16.9-.8-2.8-2.2-5.4-4.1-7.6c7.2,2.7,12,10,13.5,17.3c1.7-1.6,4.6-1.7,6.9-.8c2.2,1,3.9,2.8,5.2,4.7c3.7,5.3,7.5,18.5,3.7,26.7-.4.8-1.5,3.1-.8,5.6.6,1.9,2.1,3.2,2.8,3.7c2.9,2,6.4,1.7,8.7,1.6c3.6-.1,8.7.3,15.2,2.6-1.9.3-4.6.9-7.8,1.7-1.1.3-2.9.8-4.1,1.2-5.2,1.8-8.7,5.7-10.2,7.7-3.1,4.2-6.1,8.8-6.2,13.9-.2,5.1,2.5,9.8,3.9,14.7c1.9,7,1.2,14.6-2.2,21.1-1.8,3.6-5.5,7.3-9.7,6.5-2.9,5.4-6.2,11.2-12.2,13.2Z" fill="#bcbcbb"/><path d="M341.3,468.2c2.2-.1,4.5.4,6.1,1.7s2.3,3.7,1.3,5.5c-1.4,2.2-4.6,2.5-7.1,3.7-1.7.8-3.1,2.1-4,3.7-.8,1.4-1.1,3.1-1.9,4.5s-2.4,2.7-4.1,2.4c-5.1-.7-4.3-9.3-2.9-12.4c2-5,6.8-8.9,12.6-9.1Z" fill="#fff"/><path d="M329,521.4c.7-1.3,2-2.6,3.5-2.3c1.1.2,1.8,1.2,2,2.2s.1,2,0,3c-.2,2.2.1,4.5.8,6.6.5,1.6,1.2,3.4.2,4.7-1.2,1.5-3.9,1.2-5.3-.2-3.1-2.9-3-10.5-1.2-14Z" fill="#fff"/></g><g id="e97FP6NuWDY22" transform="matrix(1.420242 0 0 1.368407-140.817412-192.528359)" opacity="0"><path d="M311,655.3c-6.7-2.7-12.8-6.7-17.3-12-11.7-13.9-9.9-33.6-6.3-50.9-12.1,3-25.4-4.2-31-14.6-5.6-10.5-7.7-31.3-3.1-42.1c4.5-10.9,15.3-17.4,23-21.4-20.8-5.3-34.8-26.1-32.6-45.9c2.1-19.8,19.1-37,39.7-42.7-4.3-9.1-2.9-20.3,3.6-28.1c6.5-7.9,17.8-12.1,28.4-10.7c17.4,2.4,29.2,18.6,32.5,34.6c3.3-3.1,8.8-3.3,13-1.4c4.2,1.8,7.4,5.3,9.9,9c10.4,14.8,13,34,7,50.7-1.3,3.6-3,7.2-3.4,11s.7,8,4.1,10.2c4.5,2.9,9.7-.1,19.7-.5c4.9-.2,11.4.2,19.1,2.6c3,.8,5.9,1.6,8.9,2.4-4.8.3-12.9,1.3-21.8,5.4-3.4,1.6-12.5,5.5-19.3,14.6-5.9,8-11.5,16.7-11.9,26.3-.3,9.7,4.8,18.6,7.3,28c3.7,13.2,2.2,27.7-4.1,40-3.5,6.9-10.4,13.8-18.4,12.3-5.2,10.1-11.4,21.2-22.7,25.1-7.7,2.6-16.6,1.2-24.3-1.9Z" fill="#d9d9d8"/><path d="M335.5,657.1c-7.9,2.7-16.8,1.3-24.5-1.7-6.7-2.7-12.8-6.7-17.3-12-8.2-9.8-9.7-22.5-8.7-35.1c2.8-.5,5.8-.9,8.7-1.5c5.8-1.2,12-4.9,12.1-10.4c3.2,6,7.7,11.9,14.4,14.4s15.9.1,18.2-6.2c.8,1.5,1.6,3,2.4,4.5c7.7-.2,14.2-6,16.7-12.8c2.4-6.8,1.5-14.1-.4-21.1-2.1-7.8-5.5-15.3-9.9-22.3-2.9-4.6-6.4-9.4-6-14.6.4-4.9,4-9,7.7-12.5s7.8-7.1,9.3-11.8-.7-10.9-5.9-11.9c-4.7-.9-7.1-6.2-6.5-10.6s3.2-8.4,5.3-12.4c4.9-9.8,6.2-21.7.9-31.4s-18.1-16-29.2-12.5c7.5-9,10.2-21.2,7.2-32.1-1.4-5.2-4.2-10.2-7.9-14.4c13.6,5.2,22.7,19.1,25.5,32.8c3.3-3.1,8.8-3.3,13-1.4c4.2,1.8,7.4,5.3,9.9,9c7,10.1,14.1,35.2,7,50.7-.7,1.5-2.9,5.9-1.4,10.6c1.1,3.7,4,6,5.3,7c5.4,3.8,12.1,3.2,16.5,3.1c6.8-.1,16.5.6,28.8,5-3.5.6-8.7,1.7-14.8,3.3-2,.5-5.5,1.4-7.7,2.2-10,3.4-16.4,10.8-19.3,14.6-5.9,8-11.5,16.7-11.9,26.3-.3,9.7,4.8,18.6,7.3,28c3.7,13.2,2.2,27.7-4.1,40-3.5,6.9-10.4,13.8-18.4,12.3-4.8,10-11,21-22.3,24.9Z" fill="#bcbcbb"/><path d="M283.8,439.7c4.1-.1,8.5.7,11.6,3.2s4.4,7,2.4,10.4c-2.6,4.2-8.8,4.8-13.4,7-3.2,1.5-5.9,4-7.6,7-1.5,2.7-2.1,5.8-3.7,8.5s-4.6,5.1-7.9,4.6c-9.8-1.3-8.2-17.7-5.5-23.6c4.1-9.2,13-16.7,24.1-17.1Z" fill="#fff"/><path d="M260.5,540.8c1.2-2.4,3.7-4.9,6.6-4.3c2,.3,3.4,2.2,3.9,4.1s.1,3.8,0,5.8c-.3,4.2.2,8.5,1.5,12.5.9,3,2.3,6.4.3,9-2.2,2.9-7.4,2.2-10-.3-5.9-5.8-5.8-20.3-2.3-26.8Z" fill="#fff"/></g><g id="e97FP6NuWDY27" opacity="0"><path d="M209.7,814.5c-14-5.6-26.8-14-36.1-25.1-24.3-29.1-20.5-69.9-13.1-106-25.3,6.3-53-8.7-64.6-30.5s-16.1-65.2-6.5-87.8c9.4-22.6,32-36.3,47.9-44.6-43.3-11.1-72.4-54.5-68-95.7c4.5-41.3,39.7-77.1,82.7-88.9-9-18.9-6.1-42.2,7.5-58.6s37.1-25.2,59.1-22.2c36.3,5.1,60.8,38.8,67.8,72.1c6.8-6.4,18.4-6.8,27.2-3s15.4,11.1,20.6,18.7c21.6,30.8,27.1,70.8,14.6,105.6-2.7,7.6-6.2,14.9-7.1,22.8-.8,7.9,1.6,16.7,8.6,21.3c9.3,6.1,20.2-.2,41-1.1c10.2-.5,23.7.4,39.8,5.5c6.2,1.7,12.3,3.3,18.6,5-10.1.6-26.9,2.8-45.3,11.3-7.2,3.3-26.1,11.4-40.2,30.5-12.2,16.6-24,34.8-24.7,54.8-.6,20.1,10,38.8,15.3,58.3c7.7,27.6,4.6,57.7-8.6,83.4-7.3,14.3-21.7,28.8-38.4,25.7-10.8,21.1-23.7,44.1-47.2,52.3-16.3,5.6-34.9,2.7-50.9-3.8Z" fill="#d9d9d8"/><path d="M260.7,818.3c-16.4,5.7-35,2.8-51-3.6-14-5.6-26.8-14-36.1-25.1-17.1-20.4-20.2-46.8-18.1-73.2c5.9-1.1,12.1-1.9,18.1-3.1c12-2.6,25-10.2,25.2-21.7c6.6,12.6,16.1,24.8,30.1,30s33.1.3,38-12.9c1.7,3.1,3.4,6.2,5.1,9.4c16.1-.4,29.7-12.6,34.8-26.7s3.1-29.5-.8-43.9c-4.5-16.3-11.5-32-20.6-46.5-6-9.5-13.3-19.5-12.5-30.5.8-10.2,8.4-18.8,16.1-26c7.7-7.4,16.2-14.7,19.4-24.5s-1.5-22.6-12.2-24.8c-9.9-2-14.8-12.9-13.6-22.1s6.7-17.4,11-25.8c10.3-20.4,13-45.2,2-65.4s-37.8-33.3-60.9-26.1c15.6-18.7,21.3-44.1,15-66.9-3-10.9-8.7-21.2-16.4-30c28.3,10.8,47.3,39.7,53.2,68.4c6.8-6.4,18.4-6.8,27.2-3s15.4,11.1,20.6,18.7c14.6,21,29.5,73.4,14.6,105.6-1.5,3.2-6,12.2-3,22c2.4,7.7,8.3,12.6,11.1,14.5c11.3,8,25.2,6.6,34.4,6.4c14.1-.3,34.3,1.2,60.1,10.4-7.4,1.3-18.2,3.5-30.9,6.8-4.3,1.1-11.4,3-16.1,4.6-20.8,7.1-34.2,22.4-40.2,30.5-12.2,16.6-24,34.8-24.7,54.8-.6,20.1,10,38.8,15.3,58.3c7.7,27.6,4.6,57.7-8.6,83.4-7.3,14.3-21.7,28.8-38.4,25.7-10.7,21.1-23.5,44.1-47.2,52.3Z" fill="#bcbcbb"/><path d="M153,365.1c8.6-.3,17.6,1.5,24.1,6.7s9.2,14.6,5.1,21.6c-5.4,8.8-18.3,10-28,14.5-6.7,3.1-12.3,8.3-15.8,14.5-3.1,5.7-4.5,12.1-7.7,17.7-3.3,5.6-9.5,10.6-16.4,9.6-20.3-2.8-17.1-36.8-11.5-49.2c8.5-18.9,27.2-34.4,50.2-35.4Z" fill="#fff"/><path d="M104.4,575.8c2.6-5,7.8-10.2,13.7-9c4.3.7,7.2,4.7,8.1,8.6s.2,8-.1,12c-.6,8.7.4,17.6,3.1,26c2,6.2,4.8,13.4.7,18.7-4.6,6-15.4,4.7-20.9-.6-12-11.8-11.7-42-4.6-55.7Z" fill="#fff"/></g><g><path d="M944.3,415.9v168.7h-36.6v-168.3c0,0,36.2,0,36.6-.4Z" fill="#55b102"/><polygon points="944.4,427.5 1052.1,430.7 1051.7,570.9 944,577.8" fill="#55b004"/><path d="M1031.6,455.7v3c0,5-4.1,9.1-9.1,9.1h-79v-21.1c0,0,56.5,0,79,0c5-.1,9.1,3.9,9.1,9Z" fill="#44a102"/><path d="M1031.6,501.2v3c0,5-4.1,9.1-9.1,9.1h-79v-21.1c0,0,56.5,0,79,0c5-.1,9.1,4,9.1,9Z" fill="#44a102"/><path d="M1031.6,545.3v3c0,5-4.1,9.1-9.1,9.1h-79v-21.1c0,0,56.5,0,79,0c5,0,9.1,4,9.1,9Z" fill="#44a102"/><rect width="8.9" height="145.1" rx="0" ry="0" transform="translate(943.6 429.6)" opacity="0.39" fill="#3a7209"/><path d="M532.7,415.9v168.7h36.6v-168.3c0,0-36.2,0-36.6-.4Z" fill="#55b102"/><polygon points="532.6,425.3 424.9,428.5 425.3,568.7 533,575.7" fill="#55b004"/><path d="M445.4,453.5v3c0,5,4.1,9.1,9.1,9.1h79v-21.1c0,0-56.5,0-79,0-5.1-.1-9.1,4-9.1,9Z" fill="#44a102"/><path d="M445.4,499v3c0,5,4.1,9.1,9.1,9.1h79v-21.1c0,0-56.5,0-79,0-5.1-.1-9.1,4-9.1,9Z" fill="#44a102"/><path d="M445.4,543.2v3c0,5,4.1,9.1,9.1,9.1h79v-21.1c0,0-56.5,0-79,0-5.1-.1-9.1,3.9-9.1,9Z" fill="#44a102"/><rect width="8.9" height="145.1" rx="0" ry="0" transform="matrix(-1 0 0-1 533.34 572.66)" opacity="0.39" fill="#3a7209"/><rect width="11.8" height="166.5" rx="0" ry="0" transform="translate(892.3 417.2)" fill="#3a474a"/><rect width="4.3" height="114.6" rx="0" ry="0" transform="translate(903.6 444.9)" fill="#323d3f"/><rect width="105.4" height="114.6" rx="0" ry="0" transform="translate(788.1 444.6)" fill="#323d3f"/><rect width="145.7" height="114.6" rx="0" ry="0" transform="matrix(0 1-1 0 785.3 307.114)" fill="#323d3f"/><path d="M635.1,213.7v85.3c0,11.5,9.3,20.9,20.9,20.9h142.4c11.5,0,20.9-9.3,20.9-20.9v-85.4c0-11.5-9.3-20.9-20.9-20.9h-142.4c-11.6.1-20.9,9.5-20.9,21Z" fill="#323d3f"/><path d="M624.1,181.9v18.4c0,5.9,4.8,10.6,10.6,10.6h182.7c5.9,0,10.6-4.8,10.6-10.6v-18.4c0-5.9-4.8-10.6-10.6-10.6h-182.6c-5.9,0-10.7,4.7-10.7,10.6Z" fill="#1e2223"/><rect width="11.8" height="166.5" rx="0" ry="0" transform="matrix(-1 0 0-1 584.23 583.6)" fill="#3a474a"/><rect width="4.3" height="114.6" rx="0" ry="0" transform="matrix(-1 0 0-1 572.96 555.914)" fill="#323d3f"/><rect width="105.4" height="114.6" rx="0" ry="0" transform="matrix(-1 0 0-1 688.44 556.224)" fill="#323d3f"/><circle r="84.7" transform="translate(726.5 500.7)" fill="#508e0e"/><circle r="73.4" transform="translate(726.9 500.7)" fill="#55b102"/><circle r="22.7" transform="translate(726.5 500.7)" fill="#2e6d05"/><circle r="6.2" transform="translate(726.5 500.7)" fill="#175608"/></g><g id="e97FP6NuWDY58" opacity="0"><path d="M786.4,273.4c-21.8-6-47.2-6-67.4,2s-34.2,25-31.6,41.8c-55.1-17.5-125-3.9-160.1,31.2-35.2,35-32,88,7.2,121.5-39.4,3-70.8,27.2-82.9,54.7-12.2,27.4-8.2,57.5.2,85.9c9.5,32.2,28.2,66.9,68.8,81.5c4.9,1.8,10.3,3.4,13.3,6.7c2.8,3.2,2.6,7.1,2.7,10.8c1.9,40.3,51.8,72.5,104.7,84.1c48.9,10.7,103.7,7.9,147.5-10.7c43.6-18.6,74.4-53.7,75.2-90.8c10.7,10.6,32.8,12.4,49,6.8c16.2-5.5,27.6-16.5,36.5-27.8c37.7-47.4,42.7-109.9,4-157.6c42.6-22.6,49.8-70.1,25.7-104.9-26.6-38.3-72.6-43.9-113.1-69.1-33-20.5-33-53.1-79.7-66.1Z" fill="#d9d9d8"/><path d="M735.5,350c38-.6,73.4,25.2,72.6,53c14.9-9.1,37.5-8.9,55.1-2.6s30.6,17.9,40.4,30.3c17.9,22.7,26.2,50.7,14,75.1s-48.3,42.6-83.2,37c18.3-17.2,26.1-41.4,14.4-61.8-11.6-20.3-45.4-33.9-73.5-26.4c12.8-3.4,1.1-38.5-2.9-44.5-12-17.9-30.4-22.9-55.5-25.6-12.5-1.4-36.2,4-39.5-7.6-4.1-14.5,45.3-26.7,58.1-26.9Z" fill="#fff"/><path d="M742.4,511c31.1,16,40.2,46.8,18.7,63.4c18.7,1,37,10.7,46.4,22s11.3,24.1,9.9,35.8c-2.6,21.4-17.1,42-45.1,51.6-28.1,9.6-71,5.2-94.9-13.2c27.7-2.6,52.3-14,58-31.3c5.9-17.4-11.2-40.1-39.4-47.6c12.8,3.4,29.8-22.9,31-28.2c3.7-16-7.4-26.9-25.5-39.4-9.1-6.3-32.2-13.1-26.2-21.6c7.5-10.7,56.5,3,67.1,8.5Z" fill="#fff"/></g><g id="e97FP6NuWDY62" opacity="0"><path d="M604.1,337.4c-17.3,3.3-33.1,11.7-40.9,23.5s-6.4,27.1,5.3,37c-44.9,7-80.5,38.6-81.4,72.5-1,33.9,32.8,66.5,77.3,74.9-22.8,14.9-27.9,40.6-19,62c8.8,21.4,29.4,39.2,51.6,54.5c25.3,17.4,57.8,33.3,91.8,29.1c4.1-.4,8.4-1.3,12.3-.1c3.6,1.1,5.8,3.6,8.2,6c25.4,25,75.9,29,115.9,18.9c37-9.3,69.6-29.1,85.8-55.4c16.1-26.2,14.4-58.6-7.4-82.5c13.1,3.2,27.9-2.9,34.7-11.8c6.8-8.8,7.4-19.5,6.2-29.7-4.9-42.5-39.2-83.9-92-101.5c13-28.4-11-61-47-75.2-39.7-15.6-71.7-4-112.2-6.7-32.7-1.9-52.3-22.6-89.2-15.5Z" fill="#d9d9d8"/><path d="M618.1,402.8c23.4-12.9,61-8.1,77.2,9.8c3.9-10.7,18.1-18,32.8-19.8s29.9,1.3,43.5,6c24.8,8.5,46.8,23.6,53.8,43.1s-4.6,43-29.9,50.9c1.1-16.9-8.6-34.9-28-44-19.5-9.1-48.8-6.6-61.8,7.4c6-6.4-22.4-24.8-28.5-27.3-18.2-7.4-32.7-4.6-50,2-8.6,3.2-20.2,14.5-29.2,8.2-11.3-7.9,12.2-32,20.1-36.3Z" fill="#fff"/><path d="M718.9,502.8c29-.1,53.2,16.6,49.7,34.2c12.3-5.5,29.5-5.4,42.2-1.3s21.5,11.6,27.6,19.5c11.2,14.5,14.5,32.3,2.8,47.6-11.8,15.4-41.3,26.6-67.2,22.8c15.7-10.7,24.3-26.1,17.5-39-6.7-13-31.1-21.9-53.2-17.3c10.1-2.1,4.9-24.4,2.5-28.1-7.3-11.3-20.8-14.7-39.6-16.6-9.4-1-28,2.3-29.3-5.1-1.7-9.2,37.2-16.7,47-16.7Z" fill="#fff"/></g><g id="e97FP6NuWDY66" opacity="0"><path d="M772.6,382.2c-11.2-3.8-24.8-4.6-36-.7-11.3,3.8-19.7,12.4-19.4,21.5-28.3-10.9-66.3-5.5-87.1,12.4-20.8,17.8-22.4,46.3-3.6,65.2-21.1.6-39.4,12.7-47.5,27-8.1,14.4-7.8,30.5-5.1,46c3.1,17.5,10.9,36.6,31.7,45.5c2.5,1.1,5.3,2.1,6.6,4c1.3,1.8.9,3.8.8,5.9-1.4,21.6,23.2,40.2,50.7,47.8c25.4,7.1,54.8,7.1,79.2-1.8c24.4-8.8,42.9-26.7,45.6-46.6c5,6,16.7,7.5,25.7,5s15.7-8.1,21.1-13.9c22.9-24.4,29.4-57.7,11.7-84.3c24.1-11,30.8-36.2,20-55.5-11.9-21.3-36-25.5-56-40.1-16.3-11.7-14.3-29.2-38.4-37.4Z" fill="#d9d9d8"/><path d="M740.8,421.8c20.3.7,37.5,15.5,35.4,30.3c8.5-4.4,20.5-3.8,29.5.1c9,3.8,15.2,10.5,19.7,17.4c8.2,12.7,10.9,27.9,2.9,40.6s-28.3,21.5-46.6,17.5c10.8-8.7,16.4-21.5,11.4-32.7s-22.1-19.4-37.5-16.1c7-1.5,2.9-20.6,1.1-23.8-5.3-9.9-14.8-13.1-28-15.2-6.6-1.1-19.5,1.2-20.6-5.2-1.1-7.9,25.9-13.2,32.7-12.9Z" fill="#fff"/><path d="M734.7,508.2c15.6,9.4,18.6,26.2,6.1,34.4c9.9,1,19,6.7,23.4,13c4.3,6.3,4.6,13.2,3.1,19.4-2.7,11.4-11.6,22.1-27.1,26.4-15.5,4.4-38.1.8-49.7-9.6c14.9-.7,28.7-6,32.8-15.2c4.2-9.1-3.5-21.8-18.1-26.6c6.6,2.2,17.3-11.4,18.2-14.3c2.9-8.5-2.3-14.6-11.2-21.8-4.5-3.6-16.3-7.9-12.7-12.2c4.7-5.4,29.9,3.3,35.2,6.5Z" fill="#fff"/></g><g id="e97FP6NuWDY70" opacity="0"><path d="M671.3,428.7c-8.3,1.3-16.1,4.9-20.2,10.4-4.1,5.4-3.9,12.7,1.3,17.7-21.5,2.5-39.5,16.9-41,33-1.6,16,13.4,32.2,34.2,36.9-11.3,6.7-14.6,18.8-11.1,29.1s12.7,19.1,22.7,26.8c11.4,8.7,26.3,16.8,42.6,15.5c2-.1,4-.4,5.8.1c1.7.6,2.6,1.8,3.7,2.9c11.2,12.3,35,15.1,54.4,11c17.9-3.8,34-12.6,42.5-24.7s8.7-27.5-.8-39.3c6.1,1.8,13.3-.9,16.9-5c3.5-4,4.1-9.1,3.9-14-.9-20.2-15.9-40.5-40.3-49.8c7.1-13.2-3.2-29.1-19.8-36.4-18.3-8.1-33.9-3.2-53-5.2-15.4-1.5-24-11.8-41.8-9Z" fill="#d9d9d8"/><path d="M675.9,459.9c11.5-5.7,29.2-2.8,36.3,6c2.2-5,9.2-8.2,16.2-8.8s14.1,1.2,20.4,3.6c11.5,4.5,21.4,12,24.1,21.4c2.7,9.3-3.6,20.3-15.8,23.6c1.1-8-2.9-16.7-11.9-21.3-8.9-4.6-22.9-4-29.6,2.4c3-2.9-9.8-12.1-12.6-13.5-8.4-3.8-15.4-2.7-23.8.1-4.2,1.4-10.1,6.6-14.1,3.4-5.1-3.9,6.9-14.9,10.8-16.9Z" fill="#fff"/><path d="M720.4,509.2c13.8.4,24.7,8.8,22.5,17.1c6-2.4,14.2-2.1,20.1.1s9.8,5.9,12.5,9.7c4.8,7.1,5.8,15.6-.2,22.7-6.1,7.1-20.5,11.9-32.6,9.6c7.8-4.9,12.4-11.9,9.6-18.2s-14-10.9-24.7-9.1c4.8-.8,3.1-11.5,2.1-13.3-3.1-5.5-9.4-7.4-18.2-8.6-4.4-.6-13.3.6-13.7-2.9-.7-4.4,18-7.3,22.6-7.1Z" fill="#fff"/></g></svg>